<?xml version="1.0" standalone="no"?>
 <!DOCTYPE svg PUBLIC "-//W3C//DTD SVG 1.1//EN" 
 "http://www.w3.org/Graphics/SVG/1.1/DTD/svg11.dtd"> 
<svg
  xmlns:svg="http://www.w3.org/2000/svg"
  xmlns="http://www.w3.org/2000/svg"
  xmlns:xlink="http://www.w3.org/1999/xlink"
  version="1.1"
  width="29.700220cm" height="21.000720cm" viewBox="0 0 116930 82680">
<title>SVG Picture created as corne-cherry-Dwgs_User.svg date 2020/07/06 22:41:00 </title>
  <desc>Picture generated by PCBNEW </desc>
<g style="fill:#000000; fill-opacity:1;stroke:#000000; stroke-opacity:1;
stroke-linecap:round; stroke-linejoin:round;"
 transform="translate(0 0) scale(1 1)">
</g>
<g style="fill:#000000; fill-opacity:0.0; 
stroke:#000000; stroke-width:-0.000393701; stroke-opacity:1; 
stroke-linecap:round; stroke-linejoin:round;">
</g>
<g style="fill:#000000; fill-opacity:0.0; 
stroke:#000000; stroke-width:59.0551; stroke-opacity:1; 
stroke-linecap:round; stroke-linejoin:round;">
<text x="130610" y="9015.75"
textLength="3101.1" font-size="524.934" lengthAdjust="spacingAndGlyphs"
text-anchor="middle" opacity="0">0.700 mm</text>
<path d="M129260 8603
L129297 8603
L129335 8622
L129354 8640
L129372 8678
L129391 8753
L129391 8847
L129372 8922
L129354 8959
L129335 8978
L129297 8997
L129260 8997
L129222 8978
L129204 8959
L129185 8922
L129166 8847
L129166 8753
L129185 8678
L129204 8640
L129222 8622
L129260 8603
" />
<path d="M129560 8959
L129579 8978
L129560 8997
L129541 8978
L129560 8959
L129560 8997
" />
<path d="M129710 8603
L129972 8603
L129804 8997
" />
<path d="M130197 8603
L130235 8603
L130272 8622
L130291 8640
L130310 8678
L130329 8753
L130329 8847
L130310 8922
L130291 8959
L130272 8978
L130235 8997
L130197 8997
L130160 8978
L130141 8959
L130122 8922
L130104 8847
L130104 8753
L130122 8678
L130141 8640
L130160 8622
L130197 8603
" />
<path d="M130572 8603
L130610 8603
L130647 8622
L130666 8640
L130685 8678
L130703 8753
L130703 8847
L130685 8922
L130666 8959
L130647 8978
L130610 8997
L130572 8997
L130535 8978
L130516 8959
L130497 8922
L130479 8847
L130479 8753
L130497 8678
L130516 8640
L130535 8622
L130572 8603
" />
<path d="M131172 8997
L131172 8734
" />
<path d="M131172 8772
L131191 8753
L131228 8734
L131285 8734
L131322 8753
L131341 8790
L131341 8997
" />
<path d="M131341 8790
L131360 8753
L131397 8734
L131453 8734
L131491 8753
L131510 8790
L131510 8997
" />
<path d="M131697 8997
L131697 8734
" />
<path d="M131697 8772
L131716 8753
L131753 8734
L131810 8734
L131847 8753
L131866 8790
L131866 8997
" />
<path d="M131866 8790
L131885 8753
L131922 8734
L131978 8734
L132016 8753
L132035 8790
L132035 8997
" />
<path d="M130748 9330
L130472 9330
" />
<path d="M130748 10078
L130748 9099
" />
<path d="M130472 10078
L130472 9099
" />
<path d="M130472 9330
L130915 9099
" />
<path d="M130472 9330
L130915 9561
" />
<path d="M130748 9330
L130304 9099
" />
<path d="M130748 9330
L130304 9561
" />
</g>
<g style="fill:#000000; fill-opacity:0.0; 
stroke:#000000; stroke-width:78.7402; stroke-opacity:1; 
stroke-linecap:round; stroke-linejoin:round;">
<path d="M67557 16311
L86202 16311
" />
<path d="M86202 16311
L86291 16295
" />
<path d="M86291 16295
L86368 16270
" />
<path d="M86368 16270
L86447 16227
" />
<path d="M86447 16227
L86518 16173
" />
<path d="M86518 16173
L86584 16108
" />
<path d="M86584 16108
L86627 16059
" />
<path d="M86627 16059
L90902 8642
" />
<path d="M90902 8642
L90923 8566
" />
<path d="M90923 8566
L90923 8475
" />
<path d="M90923 8475
L90897 8389
" />
<path d="M90897 8389
L90847 8313
" />
<path d="M90847 8313
L90777 8254
" />
<path d="M90777 8254
L90734 8232
" />
<path d="M90734 8232
L90661 8212
" />
<path d="M90661 8212
L67561 8212
" />
<path d="M67561 8212
L67476 8232
" />
<path d="M67476 8232
L67409 8284
" />
<path d="M67409 8284
L67371 8360
" />
<path d="M67371 8360
L67364 8409
" />
<path d="M67364 8409
L67360 16114
" />
<path d="M67360 16114
L67380 16199
" />
<path d="M67380 16199
L67432 16266
" />
<path d="M67432 16266
L67508 16305
" />
<path d="M67508 16305
L67557 16311
" />
<path d="M86051 15336
L85963 15327
" />
<path d="M85963 15327
L85882 15302
" />
<path d="M85882 15302
L85809 15262
" />
<path d="M85809 15262
L85744 15209
" />
<path d="M85744 15209
L85692 15145
" />
<path d="M85692 15145
L85652 15071
" />
<path d="M85652 15071
L85626 14990
" />
<path d="M85626 14990
L85618 14903
" />
<path d="M85618 14903
L85626 14815
" />
<path d="M85626 14815
L85652 14734
" />
<path d="M85652 14734
L85692 14660
" />
<path d="M85692 14660
L85744 14596
" />
<path d="M85744 14596
L85809 14543
" />
<path d="M85809 14543
L85882 14504
" />
<path d="M85882 14504
L85963 14478
" />
<path d="M85963 14478
L86051 14470
" />
<path d="M86051 14470
L86138 14478
" />
<path d="M86138 14478
L86219 14504
" />
<path d="M86219 14504
L86293 14543
" />
<path d="M86293 14543
L86357 14596
" />
<path d="M86357 14596
L86410 14660
" />
<path d="M86410 14660
L86450 14734
" />
<path d="M86450 14734
L86475 14815
" />
<path d="M86475 14815
L86484 14903
" />
<path d="M86484 14903
L86475 14990
" />
<path d="M86475 14990
L86450 15071
" />
<path d="M86450 15071
L86410 15145
" />
<path d="M86410 15145
L86357 15209
" />
<path d="M86357 15209
L86293 15262
" />
<path d="M86293 15262
L86219 15302
" />
<path d="M86219 15302
L86138 15327
" />
<path d="M86138 15327
L86051 15336
" />
<path d="M89397 9627
L89310 9618
" />
<path d="M89310 9618
L89229 9593
" />
<path d="M89229 9593
L89155 9553
" />
<path d="M89155 9553
L89091 9500
" />
<path d="M89091 9500
L89038 9436
" />
<path d="M89038 9436
L88998 9362
" />
<path d="M88998 9362
L88973 9281
" />
<path d="M88973 9281
L88964 9194
" />
<path d="M88964 9194
L88973 9106
" />
<path d="M88973 9106
L88998 9025
" />
<path d="M88998 9025
L89038 8951
" />
<path d="M89038 8951
L89091 8887
" />
<path d="M89091 8887
L89155 8834
" />
<path d="M89155 8834
L89229 8794
" />
<path d="M89229 8794
L89310 8769
" />
<path d="M89310 8769
L89397 8760
" />
<path d="M89397 8760
L89485 8769
" />
<path d="M89485 8769
L89566 8794
" />
<path d="M89566 8794
L89640 8834
" />
<path d="M89640 8834
L89704 8887
" />
<path d="M89704 8887
L89756 8951
" />
<path d="M89756 8951
L89796 9025
" />
<path d="M89796 9025
L89822 9106
" />
<path d="M89822 9106
L89830 9194
" />
<path d="M89830 9194
L89822 9281
" />
<path d="M89822 9281
L89796 9362
" />
<path d="M89796 9362
L89756 9436
" />
<path d="M89756 9436
L89704 9500
" />
<path d="M89704 9500
L89640 9553
" />
<path d="M89640 9553
L89566 9593
" />
<path d="M89566 9593
L89485 9618
" />
<path d="M89485 9618
L89397 9627
" />
</g>
<g style="fill:#000000; fill-opacity:0.0; 
stroke:#000000; stroke-width:59.0551; stroke-opacity:1; 
stroke-linecap:round; stroke-linejoin:round;">
<path d="M92047 9803
L87500 17972
" />
<path d="M92421 10019
L92047 9803
" />
<path d="M67381 17972
L87500 17972
" />
<path d="M69901 56200
L69901 61712
" />
<path d="M66318 39251
L71830 39251
" />
<path d="M72775 26279
L67263 26279
" />
<path d="M80275 41240
L74763 41240
" />
<path d="M89940 35531
L95452 35531
" />
<path d="M72775 31791
L72775 26279
" />
<path d="M90413 61712
L90413 56200
" />
<path d="M95452 35531
L95452 30019
" />
<circle cx="91555.1" cy="55019.7" r="433.071" /> 
<path d="M71830 39251
L71830 33740
" />
<path d="M75413 54212
L75413 48700
" />
<path d="M67263 41240
L67263 46751
" />
<path d="M90413 48700
L84901 48700
" />
<path d="M94247 12003
L91491 16776
" />
<path d="M96264 19532
L99020 14758
" />
<path d="M67381 25492
L66476 25492
" />
<path d="M69901 54212
L75413 54212
" />
<path d="M82913 61712
L82913 56200
" />
<path d="M79330 39251
L79330 33740
" />
<path d="M67263 31791
L72775 31791
" />
<path d="M81181 18779
L75669 18779
" />
<circle cx="89586.6" cy="38090.6" r="433.071" /> 
<path d="M68169 18779
L68169 24291
" />
<path d="M91830 21132
L90404 26456
" />
<path d="M92401 61712
L97913 61712
" />
<path d="M83169 24291
L88681 24291
" />
<path d="M73681 24291
L73681 18779
" />
<path d="M75669 24291
L81181 24291
" />
<path d="M66476 25492
L66476 32933
" />
<path d="M83169 18779
L83169 24291
" />
<path d="M88681 24291
L88681 18779
" />
<path d="M66476 32933
L65531 32933
" />
<path d="M68169 24291
L73681 24291
" />
<path d="M82913 48700
L77401 48700
" />
<path d="M98681 62500
L98681 47539
" />
<path d="M82263 26279
L82263 31791
" />
<path d="M97913 48700
L92401 48700
" />
<path d="M98090 21988
L101948 15531
" />
<path d="M65531 32933
L65531 40059
" />
<path d="M97913 54212
L97913 48700
" />
<path d="M92401 54212
L97913 54212
" />
<path d="M97913 56200
L92401 56200
" />
<path d="M90404 26456
L95728 27883
" />
<path d="M73818 33740
L73818 39251
" />
<circle cx="73444.9" cy="40452.8" r="433.071" /> 
<path d="M80275 31791
L80275 26279
" />
<path d="M74763 31791
L80275 31791
" />
<path d="M95728 27883
L97154 22559
" />
<path d="M90413 54212
L90413 48700
" />
<path d="M82263 46751
L87775 46751
" />
<path d="M87775 41240
L82263 41240
" />
<path d="M73681 18779
L68169 18779
" />
<circle cx="91161.4" cy="18799.2" r="433.071" /> 
<path d="M66476 40059
L66476 47539
" />
<path d="M97154 22559
L91830 21132
" />
<path d="M77401 54212
L82913 54212
" />
<path d="M81181 24291
L81181 18779
" />
<path d="M84901 61712
L90413 61712
" />
<path d="M84901 54212
L90413 54212
" />
<path d="M90413 56200
L84901 56200
" />
<path d="M75413 48700
L69901 48700
" />
<path d="M95452 30019
L89940 30019
" />
<path d="M69901 48700
L69901 54212
" />
<path d="M69901 61712
L75413 61712
" />
<path d="M72775 41240
L67263 41240
" />
<path d="M98681 47539
L92303 45610
" />
<path d="M77401 48700
L77401 54212
" />
<path d="M91491 16776
L96264 19532
" />
<path d="M92303 45610
L92303 39744
" />
<path d="M96240 29074
L98090 21988
" />
<path d="M82263 41240
L82263 46751
" />
<circle cx="74429.1" cy="25098.4" r="433.071" /> 
<path d="M69074 48641
L69074 62500
" />
<path d="M99020 14758
L94247 12003
" />
<path d="M66476 47539
L69074 48641
" />
<path d="M75669 18779
L75669 24291
" />
<path d="M66318 33740
L66318 39251
" />
<path d="M81318 39251
L86830 39251
" />
<path d="M82913 56200
L77401 56200
" />
<path d="M92303 39744
L96240 36318
" />
<path d="M67263 26279
L67263 31791
" />
<path d="M67381 17972
L67381 25492
" />
<path d="M75413 61712
L75413 56200
" />
<path d="M71830 33740
L66318 33740
" />
<path d="M74763 46751
L80275 46751
" />
<path d="M75413 56200
L69901 56200
" />
<path d="M69074 62500
L98681 62500
" />
<path d="M84901 56200
L84901 61712
" />
<path d="M82263 31791
L87775 31791
" />
<path d="M67263 46751
L72775 46751
" />
<path d="M84901 48700
L84901 54212
" />
<path d="M92401 48700
L92401 54212
" />
<path d="M87775 31791
L87775 26279
" />
<path d="M87775 26279
L82263 26279
" />
<path d="M89940 30019
L89940 35531
" />
<path d="M86830 33740
L81318 33740
" />
<path d="M86830 39251
L86830 33740
" />
<path d="M101948 15531
L92421 10019
" />
<path d="M82913 54212
L82913 48700
" />
<path d="M87775 46751
L87775 41240
" />
<path d="M77401 61712
L82913 61712
" />
<path d="M88681 18779
L83169 18779
" />
<path d="M65531 40059
L66476 40059
" />
<path d="M77401 56200
L77401 61712
" />
<path d="M92401 56200
L92401 61712
" />
<path d="M97913 61712
L97913 56200
" />
<path d="M74763 26279
L74763 31791
" />
<path d="M80275 26279
L74763 26279
" />
<circle cx="76200.8" cy="55019.7" r="433.071" /> 
<path d="M80275 46751
L80275 41240
" />
<path d="M79330 33740
L73818 33740
" />
<path d="M73818 39251
L79330 39251
" />
<path d="M72775 46751
L72775 41240
" />
<path d="M96240 36318
L96240 29074
" />
<path d="M74763 41240
L74763 46751
" />
<path d="M81318 33740
L81318 39251
" />
<path d="M40216 39448
L44153 36023
" />
<path d="M15295 17677
L15295 25196
" />
<path d="M16988 62204
L46594 62204
" />
<path d="M39665 9527
L16200 9527
" />
<path d="M49862 15236
L40334 9724
" />
<path d="M13444 39763
L14389 39763
" />
<circle cx="39074.8" cy="18503.9" r="433.071" /> 
<path d="M14389 39763
L14389 47244
" />
<circle cx="37500" cy="37795.3" r="433.071" /> 
<path d="M14389 25196
L14389 32637
" />
<path d="M14389 32637
L13444 32637
" />
<circle cx="39468.5" cy="54724.4" r="433.071" /> 
<path d="M16200 17677
L15295 17677
" />
<circle cx="24114.2" cy="54724.4" r="433.071" /> 
<path d="M40334 9724
L39665 9527
" />
<path d="M44153 36023
L44153 28779
" />
<path d="M16200 9527
L16200 17677
" />
<circle cx="22342.5" cy="24803.1" r="433.071" /> 
<path d="M40216 45314
L40216 39448
" />
<path d="M46594 62204
L46594 47244
" />
<path d="M46594 47244
L40216 45314
" />
<path d="M13444 32637
L13444 39763
" />
<path d="M44153 28779
L46003 21692
" />
<path d="M15295 25196
L14389 25196
" />
<path d="M46003 21692
L49862 15236
" />
<path d="M14389 47244
L16988 48346
" />
<circle cx="21358.3" cy="40157.5" r="433.071" /> 
<path d="M16988 48346
L16988 62204
" />
</g>
<g style="fill:#000000; fill-opacity:0.0; 
stroke:#000000; stroke-width:78.7402; stroke-opacity:1; 
stroke-linecap:round; stroke-linejoin:round;">
<g >
</g>
<g >
</g>
<g >
</g>
<g >
</g>
<g >
</g>
<g >
</g>
<g >
</g>
<g >
</g>
<g >
</g>
<g >
</g>
<g >
</g>
<g >
</g>
<g >
</g>
<g >
</g>
<g >
</g>
<g >
</g>
<g >
</g>
<g >
</g>
<g >
</g>
<g >
</g>
<g >
</g>
<g >
</g>
<g >
</g>
<g >
</g>
<g >
</g>
<g >
</g>
<g >
</g>
<g >
</g>
<g >
</g>
<g >
</g>
<g >
</g>
<g >
</g>
<g >
</g>
<g >
</g>
<g >
</g>
<g >
</g>
<g >
</g>
<g >
</g>
<g >
</g>
<g >
</g>
<g >
</g>
<g >
</g>
<g >
</g>
<g >
</g>
<g >
</g>
<g >
</g>
<g >
</g>
<g >
</g>
<g >
</g>
<g >
</g>
<g >
</g>
<g >
</g>
<g >
</g>
<g >
</g>
<g >
</g>
<g >
</g>
<g >
</g>
<g >
</g>
<g >
</g>
<g >
</g>
<g >
</g>
<g >
</g>
<g >
</g>
<g >
</g>
<g >
</g>
<g >
</g>
<g >
</g>
<g >
</g>
<g >
</g>
<g >
</g>
<g >
</g>
<g >
</g>
<g >
</g>
<g >
</g>
<g >
</g>
<g >
</g>
<g >
</g>
<g >
</g>
<g >
</g>
</g> 
</svg>
