M48
; DRILL file {KiCad (5.1.6-0-10_14)} date Tuesday, July 07, 2020 at 11:01:10 PM
; FORMAT={-:-/ absolute / metric / decimal}
; #@! TF.CreationDate,2020-07-07T23:01:10+09:00
; #@! TF.GenerationSoftware,Kicad,Pcbnew,(5.1.6-0-10_14)
; #@! TF.FileFunction,Plated,1,2,PTH
FMAT,2
METRIC
T1C0.400
T2C0.813
T3C1.000
T4C1.300
T5C2.200
%
G90
G05
T1
X38.5Y-57.3
X38.5Y-76.5
X38.9Y-43.3
X39.0Y-81.2
X39.1Y-62.3
X39.1Y-100.1
X39.25Y-92.45
X39.5Y-49.2
X40.6Y-98.0
X44.55Y-93.95
X45.685Y-41.685
X45.685Y-60.815
X47.9Y-90.225
X49.0Y-108.6
X49.2Y-50.0
X49.2Y-51.4
X49.2Y-70.6
X49.3Y-89.5
X50.2Y-39.325
X50.2Y-59.2
X50.938Y-110.962
X52.8Y-68.8
X52.9Y-106.8
X53.6Y-62.6
X53.7Y-43.4
X53.7Y-100.5
X53.9Y-81.7
X56.2Y-40.1
X56.2Y-46.9
X56.7Y-68.8
X56.925Y-113.375
X57.0Y-64.3
X57.3Y-53.4
X57.61Y-91.79
X57.9Y-81.5
X58.0Y-62.4
X58.1Y-43.5
X58.1Y-100.5
X58.836Y-93.9
X58.9Y-72.1
X59.2Y-87.5
X60.7Y-94.8
X61.425Y-58.725
X65.0Y-57.1
X65.1Y-95.0
X65.2Y-96.5
X65.8Y-57.7
X65.8Y-57.7
X68.1Y-51.6
X68.2Y-89.5
X68.2Y-108.7
X68.3Y-70.3
X68.858Y-87.658
X69.737Y-111.162
X69.879Y-68.083
X70.0Y-91.9
X70.025Y-56.975
X70.237Y-96.487
X71.216Y-95.084
X71.735Y-87.935
X71.8Y-49.8
X71.81Y-106.91
X72.172Y-95.862
X72.6Y-43.4
X72.6Y-62.7
X72.9Y-100.5
X73.0Y-81.4
X73.5Y-59.4
X73.767Y-94.267
X73.967Y-113.375
X74.7Y-63.5
X75.1Y-35.7
X75.1Y-43.251
X75.725Y-51.125
X76.0Y-68.8
X76.7Y-74.9
X77.0Y-56.0
X77.1Y-60.3
X77.2Y-36.9
X78.1Y-66.725
X78.2Y-53.1
X78.625Y-85.15
X78.712Y-88.612
X80.4Y-69.425
X85.3Y-64.3
X86.3Y-45.55
X87.0Y-82.6
X87.1Y-63.6
X87.2Y-44.8
X89.2Y-90.7
X90.8Y-81.2
X91.5Y-36.9
X91.6Y-56.0
X91.7Y-74.9
X92.3Y-87.3
X92.325Y-32.725
X93.2Y-57.0
X93.25Y-87.95
X94.9Y-39.1
X95.093Y-90.193
X95.2Y-59.6
X95.4Y-64.0
X95.9Y-34.4
X96.1Y-72.4
X96.2Y-53.4
X97.0Y-82.4
X97.5Y-50.8
X98.3Y-66.975
X98.6Y-87.8
X99.166Y-58.89
X99.3Y-47.3
X102.7Y-97.8
X102.716Y-102.584
X103.3Y-47.715
X103.7Y-50.2
X104.4Y-90.4
X104.7Y-62.0
X105.4Y-94.4
X105.9Y-42.4
X106.0Y-80.1
X106.0Y-86.7
X106.2Y-104.2
X106.3Y-61.2
X106.337Y-84.263
X108.0Y-48.4
X109.736Y-40.625
X109.85Y-86.35
X110.1Y-48.4
X110.7Y-53.2
X110.7Y-72.4
X110.8Y-34.4
X111.8Y-56.8
X112.1Y-33.8
X113.4Y-40.2
X113.4Y-60.6
X114.3Y-49.75
X114.9Y-36.7
X114.9Y-55.9
X115.2Y-74.8
X115.4Y-66.1
X115.4Y-102.3
X116.2Y-52.9
X116.2Y-88.0
X118.405Y-61.004
X119.4Y-70.2
X120.2Y-94.4
X123.1Y-64.2
X124.443Y-107.143
X124.9Y-49.75
X125.003Y-105.803
X125.1Y-82.6
X125.2Y-44.5
X125.2Y-63.5
X126.665Y-50.975
X127.059Y-88.684
X127.4Y-86.1
X127.8Y-47.9
X127.9Y-95.4
X128.4Y-81.2
X128.8Y-43.1
X129.6Y-55.9
X129.7Y-36.6
X129.8Y-74.9
X131.4Y-93.6
X131.444Y-58.544
X131.542Y-35.158
X132.0Y-61.4
X132.3Y-41.8
X132.7Y-91.4
X133.4Y-68.2
X134.0Y-39.1
X134.0Y-77.2
X134.1Y-57.9
X135.125Y-64.425
X135.2Y-54.1
X135.4Y-87.8
X135.6Y-105.7
X136.2Y-94.8
X136.338Y-50.862
X136.4Y-92.2
X136.518Y-94.018
X137.258Y-52.842
X137.3Y-74.5
X138.9Y-89.9
X139.4Y-104.823
X140.0Y-69.9
X141.3Y-56.3
X141.6Y-53.3
X142.5Y-98.5
X143.7Y-89.0
X143.7Y-89.0
X143.9Y-73.875
X143.9Y-85.1
X144.2Y-66.2
X144.3Y-47.1
X144.49Y-64.21
X145.862Y-53.162
X146.95Y-110.05
X147.0Y-89.8
X147.71Y-64.51
X147.8Y-108.6
X147.9Y-45.4
X148.675Y-58.3
X148.8Y-39.0
X148.8Y-77.4
X148.935Y-50.575
X149.366Y-76.834
X149.387Y-114.687
X149.71Y-75.39
X150.65Y-87.0
X151.5Y-80.1
X152.065Y-69.678
X153.0Y-73.3
X154.1Y-72.5
X154.636Y-43.212
X155.475Y-72.5
X155.5Y-96.9
X156.1Y-77.3
X156.518Y-57.182
X157.143Y-44.482
X157.6Y-39.8
X157.768Y-50.832
X158.8Y-72.6
X158.9Y-67.772
X160.1Y-68.4
X160.192Y-48.292
X161.1Y-104.7
X161.189Y-70.64
X161.628Y-100.172
X162.6Y-69.3
X163.758Y-54.642
X163.898Y-52.102
X164.2Y-69.3
X166.6Y-41.8
X166.8Y-44.3
X166.8Y-59.8
X166.8Y-62.3
X166.8Y-64.8
X166.9Y-52.1
X166.9Y-54.6
X166.9Y-57.0
X167.012Y-66.697
T2
X157.2Y-76.15
X153.31Y-41.942
X153.31Y-44.482
X153.31Y-47.022
X153.31Y-49.562
X153.31Y-52.102
X153.31Y-54.642
X153.31Y-57.182
X153.31Y-59.722
X153.31Y-62.262
X153.31Y-64.802
X153.31Y-67.342
X153.31Y-69.882
X154.636Y-40.672
X154.636Y-43.212
X154.636Y-45.752
X154.636Y-48.292
X154.636Y-50.832
X154.636Y-53.372
X154.636Y-55.912
X154.636Y-58.452
X154.636Y-60.992
X154.636Y-63.532
X154.636Y-66.072
X154.636Y-68.612
X168.55Y-41.942
X168.55Y-44.482
X168.55Y-47.022
X168.55Y-49.562
X168.55Y-52.102
X168.55Y-54.642
X168.55Y-57.182
X168.55Y-59.722
X168.55Y-62.262
X168.55Y-64.802
X168.55Y-67.342
X168.55Y-69.882
X169.856Y-40.672
X169.856Y-43.212
X169.856Y-45.752
X169.856Y-48.292
X169.856Y-50.832
X169.856Y-53.372
X169.856Y-55.912
X169.856Y-58.452
X169.856Y-60.992
X169.856Y-63.532
X169.856Y-66.072
X169.856Y-68.612
X157.5Y-73.55
X160.04Y-73.55
X162.58Y-73.55
X165.12Y-73.55
X157.2Y-78.55
X160.86Y-78.65
X165.94Y-78.65
X160.86Y-76.15
X165.94Y-76.15
T4
X169.0Y-72.9
X169.0Y-79.4
T5
X154.12Y-84.24
X168.65Y-92.72
T3
G00X159.65Y-83.65
M15
G01X159.15Y-83.65
M16
G05
G00X159.65Y-86.1
M15
G01X159.15Y-86.1
M16
G05
G00X161.15Y-81.9
M15
G01X160.65Y-81.9
M16
G05
G00X161.15Y-87.85
M15
G01X160.65Y-87.85
M16
G05
G00X165.15Y-81.9
M15
G01X164.65Y-81.9
M16
G05
G00X165.15Y-87.85
M15
G01X164.65Y-87.85
M16
G05
G00X168.15Y-81.9
M15
G01X167.65Y-81.9
M16
G05
G00X168.15Y-87.85
M15
G01X167.65Y-87.85
M16
G05
T0
M30
