%TF.GenerationSoftware,KiCad,Pcbnew,(5.1.6-0-10_14)*%
%TF.CreationDate,2020-07-07T23:00:58+09:00*%
%TF.ProjectId,corne-cherry,636f726e-652d-4636-9865-7272792e6b69,rev?*%
%TF.SameCoordinates,Original*%
%TF.FileFunction,Profile,NP*%
%FSLAX46Y46*%
G04 Gerber Fmt 4.6, Leading zero omitted, Abs format (unit mm)*
G04 Created by KiCad (PCBNEW (5.1.6-0-10_14)) date 2020-07-07 23:00:58*
%MOMM*%
%LPD*%
G01*
G04 APERTURE LIST*
%TA.AperFunction,Profile*%
%ADD10C,0.150000*%
%TD*%
G04 APERTURE END LIST*
D10*
X72200000Y-38750000D02*
X37400000Y-38750000D01*
X37400000Y-113950000D02*
X74400000Y-113950000D01*
X72600000Y-38750000D02*
X75400000Y-32150000D01*
X72200000Y-38750000D02*
X72600000Y-38750000D01*
X80300000Y-97750000D02*
X75400000Y-113950000D01*
X95200000Y-97750000D02*
X80300000Y-97750000D01*
X75400000Y-113950000D02*
X74400000Y-113950000D01*
X103900000Y-107750000D02*
X95200000Y-97750000D01*
X122300000Y-107750000D02*
X103900000Y-107750000D01*
X140300000Y-112450000D02*
X122300000Y-107750000D01*
X156700000Y-122250000D02*
X140300000Y-112450000D01*
X37400000Y-38750000D02*
X37400000Y-113950000D01*
X94400000Y-32150000D02*
X75400000Y-32150000D01*
X94400000Y-29750000D02*
X94400000Y-32150000D01*
X112500000Y-29750000D02*
X94400000Y-29750000D01*
X112500000Y-32150000D02*
X112500000Y-29750000D01*
X131400000Y-32150000D02*
X112500000Y-32150000D01*
X131400000Y-34450000D02*
X131400000Y-32150000D01*
X150500000Y-34450000D02*
X131400000Y-34450000D01*
X150500000Y-36750000D02*
X150500000Y-34450000D01*
X171200000Y-36750000D02*
X150500000Y-36750000D01*
X171200000Y-96350000D02*
X171200000Y-36750000D01*
X170700000Y-98050000D02*
X171200000Y-96350000D01*
X156700000Y-122250000D02*
X170700000Y-98050000D01*
M02*
