M48
; DRILL file {KiCad (5.1.6-0-10_14)} date Tuesday, July 07, 2020 at 11:01:10 PM
; FORMAT={-:-/ absolute / metric / decimal}
; #@! TF.CreationDate,2020-07-07T23:01:10+09:00
; #@! TF.GenerationSoftware,Kicad,Pcbnew,(5.1.6-0-10_14)
; #@! TF.FileFunction,NonPlated,1,2,NPTH
FMAT,2
METRIC
T1C0.100
T2C1.200
T3C1.700
T4C1.900
T5C3.000
T6C4.000
T7C4.800
%
G90
G05
T1
X151.953Y-107.273
X155.778Y-100.647
T2
X162.7Y-84.0
X162.7Y-85.75
X169.7Y-84.0
X169.7Y-85.75
T3
X60.37Y-85.95
X70.53Y-85.95
X107.82Y-98.75
X117.98Y-98.75
X79.32Y-60.2
X89.48Y-60.2
X41.32Y-85.95
X51.48Y-85.95
X136.37Y-81.55
X146.53Y-81.55
X117.32Y-41.15
X127.48Y-41.15
X153.56Y-109.649
X158.64Y-100.851
X60.37Y-47.85
X70.53Y-47.85
X136.37Y-62.5
X146.53Y-62.5
X98.37Y-76.85
X108.53Y-76.85
X41.32Y-47.85
X51.48Y-47.85
X117.32Y-60.2
X127.48Y-60.2
X79.32Y-79.25
X89.48Y-79.25
X98.37Y-38.75
X108.53Y-38.75
X129.025Y-100.185
X138.839Y-102.814
X60.37Y-105.0
X70.53Y-105.0
X60.37Y-66.9
X70.53Y-66.9
X41.32Y-66.9
X51.48Y-66.9
X136.37Y-43.45
X146.53Y-43.45
X98.37Y-57.8
X108.53Y-57.8
X79.32Y-41.15
X89.48Y-41.15
X41.32Y-105.0
X51.48Y-105.0
X117.32Y-79.25
X127.48Y-79.25
T4
X116.9Y-79.25
X127.9Y-79.25
X59.95Y-85.95
X70.95Y-85.95
X107.4Y-98.75
X118.4Y-98.75
X78.9Y-60.2
X89.9Y-60.2
X40.9Y-85.95
X51.9Y-85.95
X135.95Y-81.55
X146.95Y-81.55
X116.9Y-41.15
X127.9Y-41.15
X153.35Y-110.013
X158.85Y-100.487
X59.95Y-47.85
X70.95Y-47.85
X135.95Y-62.5
X146.95Y-62.5
X97.95Y-76.85
X108.95Y-76.85
X40.9Y-47.85
X51.9Y-47.85
X116.9Y-60.2
X127.9Y-60.2
X78.9Y-79.25
X89.9Y-79.25
X97.95Y-38.75
X108.95Y-38.75
X128.619Y-100.076
X139.244Y-102.923
X59.95Y-105.0
X70.95Y-105.0
X59.95Y-66.9
X70.95Y-66.9
X40.9Y-66.9
X51.9Y-66.9
X135.95Y-43.45
X146.95Y-43.45
X97.95Y-57.8
X108.95Y-57.8
X78.9Y-41.15
X89.9Y-41.15
X40.9Y-105.0
X51.9Y-105.0
T5
X136.45Y-47.15
X137.64Y-40.91
X138.91Y-38.37
X141.45Y-49.35
X143.99Y-38.37
X145.26Y-40.91
X146.45Y-47.15
X98.45Y-61.5
X99.64Y-55.26
X100.91Y-52.72
X103.45Y-63.7
X105.99Y-52.72
X107.26Y-55.26
X108.45Y-61.5
X79.4Y-44.85
X80.59Y-38.61
X81.86Y-36.07
X84.4Y-47.05
X86.94Y-36.07
X88.21Y-38.61
X89.4Y-44.85
X41.4Y-108.7
X42.59Y-102.46
X43.86Y-99.92
X46.4Y-110.9
X48.94Y-99.92
X50.21Y-102.46
X51.4Y-108.7
X117.4Y-82.95
X118.59Y-76.71
X119.86Y-74.17
X122.4Y-85.15
X124.94Y-74.17
X126.21Y-76.71
X127.4Y-82.95
X60.45Y-89.65
X61.64Y-83.41
X62.91Y-80.87
X65.45Y-91.85
X67.99Y-80.87
X69.26Y-83.41
X70.45Y-89.65
X107.9Y-102.45
X109.09Y-96.21
X110.36Y-93.67
X112.9Y-104.65
X115.44Y-93.67
X116.71Y-96.21
X117.9Y-102.45
X79.4Y-63.9
X80.59Y-57.66
X81.86Y-55.12
X84.4Y-66.1
X86.94Y-55.12
X88.21Y-57.66
X89.4Y-63.9
X41.4Y-89.65
X42.59Y-83.41
X43.86Y-80.87
X46.4Y-91.85
X48.94Y-80.87
X50.21Y-83.41
X51.4Y-89.65
X136.45Y-85.25
X137.64Y-79.01
X138.91Y-76.47
X141.45Y-87.45
X143.99Y-76.47
X145.26Y-79.01
X146.45Y-85.25
X117.4Y-44.85
X118.59Y-38.61
X119.86Y-36.07
X122.4Y-47.05
X124.94Y-36.07
X126.21Y-38.61
X127.4Y-44.85
X150.431Y-104.91
X151.995Y-107.28
X152.971Y-100.51
X155.805Y-100.68
X155.805Y-100.68
X156.804Y-111.43
X161.21Y-108.2
X161.804Y-102.77
X60.45Y-51.55
X61.64Y-45.31
X62.91Y-42.77
X65.45Y-53.75
X67.99Y-42.77
X69.26Y-45.31
X70.45Y-51.55
X136.45Y-66.2
X137.64Y-59.96
X138.91Y-57.42
X141.45Y-68.4
X143.99Y-57.42
X145.26Y-59.96
X146.45Y-66.2
X98.45Y-80.55
X99.64Y-74.31
X100.91Y-71.77
X103.45Y-82.75
X105.99Y-71.77
X107.26Y-74.31
X108.45Y-80.55
X41.4Y-51.55
X42.59Y-45.31
X43.86Y-42.77
X46.4Y-53.75
X48.94Y-42.77
X50.21Y-45.31
X51.4Y-51.55
X117.4Y-63.9
X118.59Y-57.66
X119.86Y-55.12
X122.4Y-66.1
X124.94Y-55.12
X126.21Y-57.66
X127.4Y-63.9
X79.4Y-82.95
X80.59Y-76.71
X81.86Y-74.17
X84.4Y-85.15
X86.94Y-74.17
X88.21Y-76.71
X89.4Y-82.95
X98.45Y-42.45
X99.64Y-36.21
X100.91Y-33.67
X103.45Y-44.65
X105.99Y-33.67
X107.26Y-36.21
X108.45Y-42.45
X128.144Y-103.779
X130.909Y-98.06
X132.405Y-107.198
X132.793Y-95.935
X137.7Y-97.25
X137.804Y-106.368
X138.269Y-100.032
X60.45Y-108.7
X61.64Y-102.46
X62.91Y-99.92
X65.45Y-110.9
X67.99Y-99.92
X69.26Y-102.46
X70.45Y-108.7
X60.45Y-70.6
X61.64Y-64.36
X62.91Y-61.82
X65.45Y-72.8
X67.99Y-61.82
X69.26Y-64.36
X70.45Y-70.6
X41.4Y-70.6
X42.59Y-64.36
X43.86Y-61.82
X46.4Y-72.8
X48.94Y-61.82
X50.21Y-64.36
X51.4Y-70.6
T6
X65.45Y-66.9
X46.4Y-66.9
X141.45Y-43.45
X103.45Y-57.8
X84.4Y-41.15
X46.4Y-105.0
X122.4Y-79.25
X65.45Y-85.95
X112.9Y-98.75
X84.4Y-60.2
X46.4Y-85.95
X141.45Y-81.55
X122.4Y-41.15
X156.1Y-105.25
X65.45Y-47.85
X141.45Y-62.5
X103.45Y-76.85
X46.4Y-47.85
X122.4Y-60.2
X84.4Y-79.25
X103.45Y-38.75
X133.932Y-101.5
X65.45Y-105.0
T7
X148.4Y-94.85
X93.4Y-49.85
X56.4Y-95.85
X56.4Y-56.85
X132.4Y-52.35
X99.4Y-90.85
T0
M30
