%TF.GenerationSoftware,KiCad,Pcbnew,(5.1.6-0-10_14)*%
%TF.CreationDate,2020-07-07T23:00:58+09:00*%
%TF.ProjectId,corne-cherry,636f726e-652d-4636-9865-7272792e6b69,rev?*%
%TF.SameCoordinates,Original*%
%TF.FileFunction,Legend,Top*%
%TF.FilePolarity,Positive*%
%FSLAX46Y46*%
G04 Gerber Fmt 4.6, Leading zero omitted, Abs format (unit mm)*
G04 Created by KiCad (PCBNEW (5.1.6-0-10_14)) date 2020-07-07 23:00:58*
%MOMM*%
%LPD*%
G01*
G04 APERTURE LIST*
%ADD10C,0.300000*%
%ADD11C,0.150000*%
%ADD12C,0.125000*%
G04 APERTURE END LIST*
D10*
X82385714Y-93732142D02*
X82242857Y-93803571D01*
X81957142Y-93803571D01*
X81814285Y-93732142D01*
X81742857Y-93660714D01*
X81671428Y-93517857D01*
X81671428Y-93089285D01*
X81742857Y-92946428D01*
X81814285Y-92875000D01*
X81957142Y-92803571D01*
X82242857Y-92803571D01*
X82385714Y-92875000D01*
X83242857Y-93803571D02*
X83100000Y-93732142D01*
X83028571Y-93660714D01*
X82957142Y-93517857D01*
X82957142Y-93089285D01*
X83028571Y-92946428D01*
X83100000Y-92875000D01*
X83242857Y-92803571D01*
X83457142Y-92803571D01*
X83600000Y-92875000D01*
X83671428Y-92946428D01*
X83742857Y-93089285D01*
X83742857Y-93517857D01*
X83671428Y-93660714D01*
X83600000Y-93732142D01*
X83457142Y-93803571D01*
X83242857Y-93803571D01*
X84385714Y-93803571D02*
X84385714Y-92803571D01*
X84385714Y-93089285D02*
X84457142Y-92946428D01*
X84528571Y-92875000D01*
X84671428Y-92803571D01*
X84814285Y-92803571D01*
X85314285Y-92803571D02*
X85314285Y-93803571D01*
X85314285Y-92946428D02*
X85385714Y-92875000D01*
X85528571Y-92803571D01*
X85742857Y-92803571D01*
X85885714Y-92875000D01*
X85957142Y-93017857D01*
X85957142Y-93803571D01*
X87242857Y-93732142D02*
X87100000Y-93803571D01*
X86814285Y-93803571D01*
X86671428Y-93732142D01*
X86600000Y-93589285D01*
X86600000Y-93017857D01*
X86671428Y-92875000D01*
X86814285Y-92803571D01*
X87100000Y-92803571D01*
X87242857Y-92875000D01*
X87314285Y-93017857D01*
X87314285Y-93160714D01*
X86600000Y-93303571D01*
X87957142Y-93232142D02*
X89100000Y-93232142D01*
X90457142Y-93732142D02*
X90314285Y-93803571D01*
X90028571Y-93803571D01*
X89885714Y-93732142D01*
X89814285Y-93660714D01*
X89742857Y-93517857D01*
X89742857Y-93089285D01*
X89814285Y-92946428D01*
X89885714Y-92875000D01*
X90028571Y-92803571D01*
X90314285Y-92803571D01*
X90457142Y-92875000D01*
X91100000Y-93803571D02*
X91100000Y-92303571D01*
X91742857Y-93803571D02*
X91742857Y-93017857D01*
X91671428Y-92875000D01*
X91528571Y-92803571D01*
X91314285Y-92803571D01*
X91171428Y-92875000D01*
X91100000Y-92946428D01*
X92671428Y-93803571D02*
X92528571Y-93732142D01*
X92457142Y-93660714D01*
X92385714Y-93517857D01*
X92385714Y-93089285D01*
X92457142Y-92946428D01*
X92528571Y-92875000D01*
X92671428Y-92803571D01*
X92885714Y-92803571D01*
X93028571Y-92875000D01*
X93100000Y-92946428D01*
X93171428Y-93089285D01*
X93171428Y-93517857D01*
X93100000Y-93660714D01*
X93028571Y-93732142D01*
X92885714Y-93803571D01*
X92671428Y-93803571D01*
X93814285Y-92803571D02*
X93814285Y-94303571D01*
X93814285Y-92875000D02*
X93957142Y-92803571D01*
X94242857Y-92803571D01*
X94385714Y-92875000D01*
X94457142Y-92946428D01*
X94528571Y-93089285D01*
X94528571Y-93517857D01*
X94457142Y-93660714D01*
X94385714Y-93732142D01*
X94242857Y-93803571D01*
X93957142Y-93803571D01*
X93814285Y-93732142D01*
X76207142Y-96353571D02*
X76207142Y-94853571D01*
X76207142Y-96282142D02*
X76064285Y-96353571D01*
X75778571Y-96353571D01*
X75635714Y-96282142D01*
X75564285Y-96210714D01*
X75492857Y-96067857D01*
X75492857Y-95639285D01*
X75564285Y-95496428D01*
X75635714Y-95425000D01*
X75778571Y-95353571D01*
X76064285Y-95353571D01*
X76207142Y-95425000D01*
X77492857Y-96282142D02*
X77350000Y-96353571D01*
X77064285Y-96353571D01*
X76921428Y-96282142D01*
X76850000Y-96139285D01*
X76850000Y-95567857D01*
X76921428Y-95425000D01*
X77064285Y-95353571D01*
X77350000Y-95353571D01*
X77492857Y-95425000D01*
X77564285Y-95567857D01*
X77564285Y-95710714D01*
X76850000Y-95853571D01*
X78135714Y-96282142D02*
X78278571Y-96353571D01*
X78564285Y-96353571D01*
X78707142Y-96282142D01*
X78778571Y-96139285D01*
X78778571Y-96067857D01*
X78707142Y-95925000D01*
X78564285Y-95853571D01*
X78350000Y-95853571D01*
X78207142Y-95782142D01*
X78135714Y-95639285D01*
X78135714Y-95567857D01*
X78207142Y-95425000D01*
X78350000Y-95353571D01*
X78564285Y-95353571D01*
X78707142Y-95425000D01*
X79421428Y-96353571D02*
X79421428Y-95353571D01*
X79421428Y-94853571D02*
X79350000Y-94925000D01*
X79421428Y-94996428D01*
X79492857Y-94925000D01*
X79421428Y-94853571D01*
X79421428Y-94996428D01*
X80778571Y-95353571D02*
X80778571Y-96567857D01*
X80707142Y-96710714D01*
X80635714Y-96782142D01*
X80492857Y-96853571D01*
X80278571Y-96853571D01*
X80135714Y-96782142D01*
X80778571Y-96282142D02*
X80635714Y-96353571D01*
X80350000Y-96353571D01*
X80207142Y-96282142D01*
X80135714Y-96210714D01*
X80064285Y-96067857D01*
X80064285Y-95639285D01*
X80135714Y-95496428D01*
X80207142Y-95425000D01*
X80350000Y-95353571D01*
X80635714Y-95353571D01*
X80778571Y-95425000D01*
X81492857Y-95353571D02*
X81492857Y-96353571D01*
X81492857Y-95496428D02*
X81564285Y-95425000D01*
X81707142Y-95353571D01*
X81921428Y-95353571D01*
X82064285Y-95425000D01*
X82135714Y-95567857D01*
X82135714Y-96353571D01*
X83421428Y-96282142D02*
X83278571Y-96353571D01*
X82992857Y-96353571D01*
X82850000Y-96282142D01*
X82778571Y-96139285D01*
X82778571Y-95567857D01*
X82850000Y-95425000D01*
X82992857Y-95353571D01*
X83278571Y-95353571D01*
X83421428Y-95425000D01*
X83492857Y-95567857D01*
X83492857Y-95710714D01*
X82778571Y-95853571D01*
X84778571Y-96353571D02*
X84778571Y-94853571D01*
X84778571Y-96282142D02*
X84635714Y-96353571D01*
X84350000Y-96353571D01*
X84207142Y-96282142D01*
X84135714Y-96210714D01*
X84064285Y-96067857D01*
X84064285Y-95639285D01*
X84135714Y-95496428D01*
X84207142Y-95425000D01*
X84350000Y-95353571D01*
X84635714Y-95353571D01*
X84778571Y-95425000D01*
X86635714Y-96353571D02*
X86635714Y-94853571D01*
X86635714Y-95425000D02*
X86778571Y-95353571D01*
X87064285Y-95353571D01*
X87207142Y-95425000D01*
X87278571Y-95496428D01*
X87350000Y-95639285D01*
X87350000Y-96067857D01*
X87278571Y-96210714D01*
X87207142Y-96282142D01*
X87064285Y-96353571D01*
X86778571Y-96353571D01*
X86635714Y-96282142D01*
X87850000Y-95353571D02*
X88207142Y-96353571D01*
X88564285Y-95353571D02*
X88207142Y-96353571D01*
X88064285Y-96710714D01*
X87992857Y-96782142D01*
X87850000Y-96853571D01*
X90207142Y-96282142D02*
X90350000Y-96353571D01*
X90635714Y-96353571D01*
X90778571Y-96282142D01*
X90850000Y-96139285D01*
X90850000Y-96067857D01*
X90778571Y-95925000D01*
X90635714Y-95853571D01*
X90421428Y-95853571D01*
X90278571Y-95782142D01*
X90207142Y-95639285D01*
X90207142Y-95567857D01*
X90278571Y-95425000D01*
X90421428Y-95353571D01*
X90635714Y-95353571D01*
X90778571Y-95425000D01*
X91492857Y-96353571D02*
X91492857Y-94853571D01*
X92135714Y-96353571D02*
X92135714Y-95567857D01*
X92064285Y-95425000D01*
X91921428Y-95353571D01*
X91707142Y-95353571D01*
X91564285Y-95425000D01*
X91492857Y-95496428D01*
X92850000Y-96353571D02*
X92850000Y-95353571D01*
X92850000Y-94853571D02*
X92778571Y-94925000D01*
X92850000Y-94996428D01*
X92921428Y-94925000D01*
X92850000Y-94853571D01*
X92850000Y-94996428D01*
X93564285Y-96353571D02*
X93564285Y-95353571D01*
X93564285Y-95496428D02*
X93635714Y-95425000D01*
X93778571Y-95353571D01*
X93992857Y-95353571D01*
X94135714Y-95425000D01*
X94207142Y-95567857D01*
X94207142Y-96353571D01*
X94207142Y-95567857D02*
X94278571Y-95425000D01*
X94421428Y-95353571D01*
X94635714Y-95353571D01*
X94778571Y-95425000D01*
X94849999Y-95567857D01*
X94849999Y-96353571D01*
X96207142Y-96353571D02*
X96207142Y-95567857D01*
X96135714Y-95425000D01*
X95992857Y-95353571D01*
X95707142Y-95353571D01*
X95564285Y-95425000D01*
X96207142Y-96282142D02*
X96064285Y-96353571D01*
X95707142Y-96353571D01*
X95564285Y-96282142D01*
X95492857Y-96139285D01*
X95492857Y-95996428D01*
X95564285Y-95853571D01*
X95707142Y-95782142D01*
X96064285Y-95782142D01*
X96207142Y-95710714D01*
X96778571Y-95353571D02*
X97064285Y-96353571D01*
X97350000Y-95639285D01*
X97635714Y-96353571D01*
X97921428Y-95353571D01*
X98421428Y-94996428D02*
X98492857Y-94925000D01*
X98635714Y-94853571D01*
X98992857Y-94853571D01*
X99135714Y-94925000D01*
X99207142Y-94996428D01*
X99278571Y-95139285D01*
X99278571Y-95282142D01*
X99207142Y-95496428D01*
X98349999Y-96353571D01*
X99278571Y-96353571D01*
X100135714Y-95496428D02*
X99992857Y-95425000D01*
X99921428Y-95353571D01*
X99850000Y-95210714D01*
X99850000Y-95139285D01*
X99921428Y-94996428D01*
X99992857Y-94925000D01*
X100135714Y-94853571D01*
X100421428Y-94853571D01*
X100564285Y-94925000D01*
X100635714Y-94996428D01*
X100707142Y-95139285D01*
X100707142Y-95210714D01*
X100635714Y-95353571D01*
X100564285Y-95425000D01*
X100421428Y-95496428D01*
X100135714Y-95496428D01*
X99992857Y-95567857D01*
X99921428Y-95639285D01*
X99850000Y-95782142D01*
X99850000Y-96067857D01*
X99921428Y-96210714D01*
X99992857Y-96282142D01*
X100135714Y-96353571D01*
X100421428Y-96353571D01*
X100564285Y-96282142D01*
X100635714Y-96210714D01*
X100707142Y-96067857D01*
X100707142Y-95782142D01*
X100635714Y-95639285D01*
X100564285Y-95567857D01*
X100421428Y-95496428D01*
D11*
%TO.C,SW9*%
X86680000Y-67700000D02*
X86680000Y-68400000D01*
X91675000Y-61600000D02*
X91700000Y-66200000D01*
X82100000Y-63800000D02*
X82100000Y-68400000D01*
X87900000Y-66225000D02*
X91675000Y-66225000D01*
X86975000Y-61575000D02*
X91675000Y-61575000D01*
X82125000Y-63775000D02*
X84675000Y-63775000D01*
X82125000Y-68425000D02*
X86675000Y-68425000D01*
X79600000Y-57350000D02*
X84650000Y-57396000D01*
X79600000Y-57304000D02*
X79600000Y-53396000D01*
X79600000Y-53396000D02*
X88225000Y-53396000D01*
X90500000Y-55350000D02*
X90500000Y-59295000D01*
X90500000Y-59304000D02*
X86890000Y-59304000D01*
X86680000Y-67650000D02*
G75*
G02*
X87900000Y-66230000I1320000J100000D01*
G01*
X86970000Y-61600000D02*
G75*
G02*
X84600000Y-63770000I-2270000J100000D01*
G01*
X86885000Y-59280000D02*
G75*
G03*
X84625000Y-57400000I-2070000J-190000D01*
G01*
X90489000Y-55280000D02*
G75*
G03*
X88225000Y-53396000I-2074000J-190000D01*
G01*
%TO.C,J1*%
X171200000Y-82750000D02*
X171200000Y-88750000D01*
X171200000Y-88750000D02*
X159200000Y-88750000D01*
X159200000Y-88750000D02*
X159200000Y-82750000D01*
X159200000Y-82750000D02*
X171200000Y-82750000D01*
%TO.C,J2*%
X156230000Y-74820000D02*
X166390000Y-74820000D01*
X156230000Y-72280000D02*
X166390000Y-72280000D01*
X166390000Y-72280000D02*
X166390000Y-74820000D01*
X156230000Y-74820000D02*
X156230000Y-72280000D01*
%TO.C,JP1*%
X156257000Y-81839000D02*
X156257000Y-80061000D01*
X158543000Y-81839000D02*
X156257000Y-81839000D01*
X158543000Y-80061000D02*
X158543000Y-81839000D01*
X156257000Y-80061000D02*
X158543000Y-80061000D01*
%TO.C,JP6*%
X164211000Y-69607000D02*
X165989000Y-69607000D01*
X164211000Y-71893000D02*
X164211000Y-69607000D01*
X165989000Y-71893000D02*
X164211000Y-71893000D01*
X165989000Y-69607000D02*
X165989000Y-71893000D01*
%TO.C,JP7*%
X163489000Y-69607000D02*
X163489000Y-71893000D01*
X163489000Y-71893000D02*
X161711000Y-71893000D01*
X161711000Y-71893000D02*
X161711000Y-69607000D01*
X161711000Y-69607000D02*
X163489000Y-69607000D01*
%TO.C,JP8*%
X159211000Y-69607000D02*
X160989000Y-69607000D01*
X159211000Y-71893000D02*
X159211000Y-69607000D01*
X160989000Y-71893000D02*
X159211000Y-71893000D01*
X160989000Y-69607000D02*
X160989000Y-71893000D01*
%TO.C,JP9*%
X158389000Y-69607000D02*
X158389000Y-71893000D01*
X158389000Y-71893000D02*
X156611000Y-71893000D01*
X156611000Y-71893000D02*
X156611000Y-69607000D01*
X156611000Y-69607000D02*
X158389000Y-69607000D01*
D10*
%TO.C,L22*%
X68730000Y-57700000D02*
X66280000Y-57700000D01*
X66280000Y-57700000D02*
X66280000Y-56250000D01*
X66280000Y-56250000D02*
X68700000Y-56250000D01*
X68730000Y-56250000D02*
X68730000Y-57700000D01*
%TO.C,L23*%
X106930000Y-46900000D02*
X106930000Y-48350000D01*
X104480000Y-46900000D02*
X106900000Y-46900000D01*
X104480000Y-48350000D02*
X104480000Y-46900000D01*
X106930000Y-48350000D02*
X104480000Y-48350000D01*
%TO.C,L24*%
X144730000Y-53000000D02*
X142280000Y-53000000D01*
X142280000Y-53000000D02*
X142280000Y-51550000D01*
X142280000Y-51550000D02*
X144700000Y-51550000D01*
X144730000Y-51550000D02*
X144730000Y-53000000D01*
%TO.C,L25*%
X61670000Y-97275000D02*
X61670000Y-95825000D01*
X64120000Y-97275000D02*
X61700000Y-97275000D01*
X64120000Y-95825000D02*
X64120000Y-97275000D01*
X61670000Y-95825000D02*
X64120000Y-95825000D01*
%TO.C,L26*%
X96230000Y-87175000D02*
X93780000Y-87175000D01*
X93780000Y-87175000D02*
X93780000Y-85725000D01*
X93780000Y-85725000D02*
X96200000Y-85725000D01*
X96230000Y-85725000D02*
X96230000Y-87175000D01*
%TO.C,L27*%
X140227236Y-91892268D02*
X139851948Y-93292860D01*
X137860718Y-91258161D02*
X140198258Y-91884503D01*
X137485430Y-92658754D02*
X137860718Y-91258161D01*
X139851948Y-93292860D02*
X137485430Y-92658754D01*
D11*
%TO.C,P1*%
X156200000Y-77150000D02*
X158200000Y-77150000D01*
X158200000Y-77150000D02*
X158200000Y-75150000D01*
X158200000Y-75150000D02*
X156200000Y-75150000D01*
X156200000Y-75150000D02*
X156200000Y-77150000D01*
%TO.C,P2*%
X156200000Y-77550000D02*
X156200000Y-79550000D01*
X158200000Y-77550000D02*
X156200000Y-77550000D01*
X158200000Y-79550000D02*
X158200000Y-77550000D01*
X156200000Y-79550000D02*
X158200000Y-79550000D01*
%TO.C,R1*%
X164901140Y-75149240D02*
X161898860Y-75149240D01*
X164901140Y-77150760D02*
X164901140Y-75149240D01*
X161898860Y-77150760D02*
X164901140Y-77150760D01*
X161898860Y-75149240D02*
X161898860Y-77150760D01*
%TO.C,R2*%
X161898860Y-77649240D02*
X161898860Y-79650760D01*
X161898860Y-79650760D02*
X164901140Y-79650760D01*
X164901140Y-79650760D02*
X164901140Y-77649240D01*
X164901140Y-77649240D02*
X161898860Y-77649240D01*
%TO.C,RSW1*%
X170750000Y-79150000D02*
X170750000Y-73150000D01*
X170750000Y-73150000D02*
X170500000Y-73150000D01*
X170750000Y-79150000D02*
X170500000Y-79150000D01*
X167250000Y-79150000D02*
X167500000Y-79150000D01*
X167250000Y-79150000D02*
X167250000Y-73150000D01*
X167250000Y-73150000D02*
X167500000Y-73150000D01*
%TO.C,SW1*%
X48680000Y-55350000D02*
X48680000Y-56050000D01*
X53675000Y-49250000D02*
X53700000Y-53850000D01*
X44100000Y-51450000D02*
X44100000Y-56050000D01*
X49900000Y-53875000D02*
X53675000Y-53875000D01*
X48975000Y-49225000D02*
X53675000Y-49225000D01*
X44125000Y-51425000D02*
X46675000Y-51425000D01*
X44125000Y-56075000D02*
X48675000Y-56075000D01*
X41600000Y-45000000D02*
X46650000Y-45046000D01*
X41600000Y-44954000D02*
X41600000Y-41046000D01*
X41600000Y-41046000D02*
X50225000Y-41046000D01*
X52500000Y-43000000D02*
X52500000Y-46945000D01*
X52500000Y-46954000D02*
X48890000Y-46954000D01*
X48680000Y-55300000D02*
G75*
G02*
X49900000Y-53880000I1320000J100000D01*
G01*
X48970000Y-49250000D02*
G75*
G02*
X46600000Y-51420000I-2270000J100000D01*
G01*
X48885000Y-46930000D02*
G75*
G03*
X46625000Y-45050000I-2070000J-190000D01*
G01*
X52489000Y-42930000D02*
G75*
G03*
X50225000Y-41046000I-2074000J-190000D01*
G01*
%TO.C,SW2*%
X71550000Y-46954000D02*
X67940000Y-46954000D01*
X71550000Y-43000000D02*
X71550000Y-46945000D01*
X60650000Y-41046000D02*
X69275000Y-41046000D01*
X60650000Y-44954000D02*
X60650000Y-41046000D01*
X60650000Y-45000000D02*
X65700000Y-45046000D01*
X63175000Y-56075000D02*
X67725000Y-56075000D01*
X63175000Y-51425000D02*
X65725000Y-51425000D01*
X68025000Y-49225000D02*
X72725000Y-49225000D01*
X68950000Y-53875000D02*
X72725000Y-53875000D01*
X63150000Y-51450000D02*
X63150000Y-56050000D01*
X72725000Y-49250000D02*
X72750000Y-53850000D01*
X67730000Y-55350000D02*
X67730000Y-56050000D01*
X71539000Y-42930000D02*
G75*
G03*
X69275000Y-41046000I-2074000J-190000D01*
G01*
X67935000Y-46930000D02*
G75*
G03*
X65675000Y-45050000I-2070000J-190000D01*
G01*
X68020000Y-49250000D02*
G75*
G02*
X65650000Y-51420000I-2270000J100000D01*
G01*
X67730000Y-55300000D02*
G75*
G02*
X68950000Y-53880000I1320000J100000D01*
G01*
%TO.C,SW3*%
X86680000Y-48650000D02*
X86680000Y-49350000D01*
X91675000Y-42550000D02*
X91700000Y-47150000D01*
X82100000Y-44750000D02*
X82100000Y-49350000D01*
X87900000Y-47175000D02*
X91675000Y-47175000D01*
X86975000Y-42525000D02*
X91675000Y-42525000D01*
X82125000Y-44725000D02*
X84675000Y-44725000D01*
X82125000Y-49375000D02*
X86675000Y-49375000D01*
X79600000Y-38300000D02*
X84650000Y-38346000D01*
X79600000Y-38254000D02*
X79600000Y-34346000D01*
X79600000Y-34346000D02*
X88225000Y-34346000D01*
X90500000Y-36300000D02*
X90500000Y-40245000D01*
X90500000Y-40254000D02*
X86890000Y-40254000D01*
X86680000Y-48600000D02*
G75*
G02*
X87900000Y-47180000I1320000J100000D01*
G01*
X86970000Y-42550000D02*
G75*
G02*
X84600000Y-44720000I-2270000J100000D01*
G01*
X86885000Y-40230000D02*
G75*
G03*
X84625000Y-38350000I-2070000J-190000D01*
G01*
X90489000Y-36230000D02*
G75*
G03*
X88225000Y-34346000I-2074000J-190000D01*
G01*
%TO.C,SW4*%
X109550000Y-37854000D02*
X105940000Y-37854000D01*
X109550000Y-33900000D02*
X109550000Y-37845000D01*
X98650000Y-31946000D02*
X107275000Y-31946000D01*
X98650000Y-35854000D02*
X98650000Y-31946000D01*
X98650000Y-35900000D02*
X103700000Y-35946000D01*
X101175000Y-46975000D02*
X105725000Y-46975000D01*
X101175000Y-42325000D02*
X103725000Y-42325000D01*
X106025000Y-40125000D02*
X110725000Y-40125000D01*
X106950000Y-44775000D02*
X110725000Y-44775000D01*
X101150000Y-42350000D02*
X101150000Y-46950000D01*
X110725000Y-40150000D02*
X110750000Y-44750000D01*
X105730000Y-46250000D02*
X105730000Y-46950000D01*
X109539000Y-33830000D02*
G75*
G03*
X107275000Y-31946000I-2074000J-190000D01*
G01*
X105935000Y-37830000D02*
G75*
G03*
X103675000Y-35950000I-2070000J-190000D01*
G01*
X106020000Y-40150000D02*
G75*
G02*
X103650000Y-42320000I-2270000J100000D01*
G01*
X105730000Y-46200000D02*
G75*
G02*
X106950000Y-44780000I1320000J100000D01*
G01*
%TO.C,SW5*%
X124680000Y-48650000D02*
X124680000Y-49350000D01*
X129675000Y-42550000D02*
X129700000Y-47150000D01*
X120100000Y-44750000D02*
X120100000Y-49350000D01*
X125900000Y-47175000D02*
X129675000Y-47175000D01*
X124975000Y-42525000D02*
X129675000Y-42525000D01*
X120125000Y-44725000D02*
X122675000Y-44725000D01*
X120125000Y-49375000D02*
X124675000Y-49375000D01*
X117600000Y-38300000D02*
X122650000Y-38346000D01*
X117600000Y-38254000D02*
X117600000Y-34346000D01*
X117600000Y-34346000D02*
X126225000Y-34346000D01*
X128500000Y-36300000D02*
X128500000Y-40245000D01*
X128500000Y-40254000D02*
X124890000Y-40254000D01*
X124680000Y-48600000D02*
G75*
G02*
X125900000Y-47180000I1320000J100000D01*
G01*
X124970000Y-42550000D02*
G75*
G02*
X122600000Y-44720000I-2270000J100000D01*
G01*
X124885000Y-40230000D02*
G75*
G03*
X122625000Y-38350000I-2070000J-190000D01*
G01*
X128489000Y-36230000D02*
G75*
G03*
X126225000Y-34346000I-2074000J-190000D01*
G01*
%TO.C,SW6*%
X147550000Y-42554000D02*
X143940000Y-42554000D01*
X147550000Y-38600000D02*
X147550000Y-42545000D01*
X136650000Y-36646000D02*
X145275000Y-36646000D01*
X136650000Y-40554000D02*
X136650000Y-36646000D01*
X136650000Y-40600000D02*
X141700000Y-40646000D01*
X139175000Y-51675000D02*
X143725000Y-51675000D01*
X139175000Y-47025000D02*
X141725000Y-47025000D01*
X144025000Y-44825000D02*
X148725000Y-44825000D01*
X144950000Y-49475000D02*
X148725000Y-49475000D01*
X139150000Y-47050000D02*
X139150000Y-51650000D01*
X148725000Y-44850000D02*
X148750000Y-49450000D01*
X143730000Y-50950000D02*
X143730000Y-51650000D01*
X147539000Y-38530000D02*
G75*
G03*
X145275000Y-36646000I-2074000J-190000D01*
G01*
X143935000Y-42530000D02*
G75*
G03*
X141675000Y-40650000I-2070000J-190000D01*
G01*
X144020000Y-44850000D02*
G75*
G02*
X141650000Y-47020000I-2270000J100000D01*
G01*
X143730000Y-50900000D02*
G75*
G02*
X144950000Y-49480000I1320000J100000D01*
G01*
%TO.C,SW7*%
X48680000Y-74400000D02*
X48680000Y-75100000D01*
X53675000Y-68300000D02*
X53700000Y-72900000D01*
X44100000Y-70500000D02*
X44100000Y-75100000D01*
X49900000Y-72925000D02*
X53675000Y-72925000D01*
X48975000Y-68275000D02*
X53675000Y-68275000D01*
X44125000Y-70475000D02*
X46675000Y-70475000D01*
X44125000Y-75125000D02*
X48675000Y-75125000D01*
X41600000Y-64050000D02*
X46650000Y-64096000D01*
X41600000Y-64004000D02*
X41600000Y-60096000D01*
X41600000Y-60096000D02*
X50225000Y-60096000D01*
X52500000Y-62050000D02*
X52500000Y-65995000D01*
X52500000Y-66004000D02*
X48890000Y-66004000D01*
X48680000Y-74350000D02*
G75*
G02*
X49900000Y-72930000I1320000J100000D01*
G01*
X48970000Y-68300000D02*
G75*
G02*
X46600000Y-70470000I-2270000J100000D01*
G01*
X48885000Y-65980000D02*
G75*
G03*
X46625000Y-64100000I-2070000J-190000D01*
G01*
X52489000Y-61980000D02*
G75*
G03*
X50225000Y-60096000I-2074000J-190000D01*
G01*
%TO.C,SW8*%
X71550000Y-66004000D02*
X67940000Y-66004000D01*
X71550000Y-62050000D02*
X71550000Y-65995000D01*
X60650000Y-60096000D02*
X69275000Y-60096000D01*
X60650000Y-64004000D02*
X60650000Y-60096000D01*
X60650000Y-64050000D02*
X65700000Y-64096000D01*
X63175000Y-75125000D02*
X67725000Y-75125000D01*
X63175000Y-70475000D02*
X65725000Y-70475000D01*
X68025000Y-68275000D02*
X72725000Y-68275000D01*
X68950000Y-72925000D02*
X72725000Y-72925000D01*
X63150000Y-70500000D02*
X63150000Y-75100000D01*
X72725000Y-68300000D02*
X72750000Y-72900000D01*
X67730000Y-74400000D02*
X67730000Y-75100000D01*
X71539000Y-61980000D02*
G75*
G03*
X69275000Y-60096000I-2074000J-190000D01*
G01*
X67935000Y-65980000D02*
G75*
G03*
X65675000Y-64100000I-2070000J-190000D01*
G01*
X68020000Y-68300000D02*
G75*
G02*
X65650000Y-70470000I-2270000J100000D01*
G01*
X67730000Y-74350000D02*
G75*
G02*
X68950000Y-72930000I1320000J100000D01*
G01*
%TO.C,SW10*%
X109550000Y-56904000D02*
X105940000Y-56904000D01*
X109550000Y-52950000D02*
X109550000Y-56895000D01*
X98650000Y-50996000D02*
X107275000Y-50996000D01*
X98650000Y-54904000D02*
X98650000Y-50996000D01*
X98650000Y-54950000D02*
X103700000Y-54996000D01*
X101175000Y-66025000D02*
X105725000Y-66025000D01*
X101175000Y-61375000D02*
X103725000Y-61375000D01*
X106025000Y-59175000D02*
X110725000Y-59175000D01*
X106950000Y-63825000D02*
X110725000Y-63825000D01*
X101150000Y-61400000D02*
X101150000Y-66000000D01*
X110725000Y-59200000D02*
X110750000Y-63800000D01*
X105730000Y-65300000D02*
X105730000Y-66000000D01*
X109539000Y-52880000D02*
G75*
G03*
X107275000Y-50996000I-2074000J-190000D01*
G01*
X105935000Y-56880000D02*
G75*
G03*
X103675000Y-55000000I-2070000J-190000D01*
G01*
X106020000Y-59200000D02*
G75*
G02*
X103650000Y-61370000I-2270000J100000D01*
G01*
X105730000Y-65250000D02*
G75*
G02*
X106950000Y-63830000I1320000J100000D01*
G01*
%TO.C,SW11*%
X124680000Y-67700000D02*
X124680000Y-68400000D01*
X129675000Y-61600000D02*
X129700000Y-66200000D01*
X120100000Y-63800000D02*
X120100000Y-68400000D01*
X125900000Y-66225000D02*
X129675000Y-66225000D01*
X124975000Y-61575000D02*
X129675000Y-61575000D01*
X120125000Y-63775000D02*
X122675000Y-63775000D01*
X120125000Y-68425000D02*
X124675000Y-68425000D01*
X117600000Y-57350000D02*
X122650000Y-57396000D01*
X117600000Y-57304000D02*
X117600000Y-53396000D01*
X117600000Y-53396000D02*
X126225000Y-53396000D01*
X128500000Y-55350000D02*
X128500000Y-59295000D01*
X128500000Y-59304000D02*
X124890000Y-59304000D01*
X124680000Y-67650000D02*
G75*
G02*
X125900000Y-66230000I1320000J100000D01*
G01*
X124970000Y-61600000D02*
G75*
G02*
X122600000Y-63770000I-2270000J100000D01*
G01*
X124885000Y-59280000D02*
G75*
G03*
X122625000Y-57400000I-2070000J-190000D01*
G01*
X128489000Y-55280000D02*
G75*
G03*
X126225000Y-53396000I-2074000J-190000D01*
G01*
%TO.C,SW12*%
X147550000Y-61604000D02*
X143940000Y-61604000D01*
X147550000Y-57650000D02*
X147550000Y-61595000D01*
X136650000Y-55696000D02*
X145275000Y-55696000D01*
X136650000Y-59604000D02*
X136650000Y-55696000D01*
X136650000Y-59650000D02*
X141700000Y-59696000D01*
X139175000Y-70725000D02*
X143725000Y-70725000D01*
X139175000Y-66075000D02*
X141725000Y-66075000D01*
X144025000Y-63875000D02*
X148725000Y-63875000D01*
X144950000Y-68525000D02*
X148725000Y-68525000D01*
X139150000Y-66100000D02*
X139150000Y-70700000D01*
X148725000Y-63900000D02*
X148750000Y-68500000D01*
X143730000Y-70000000D02*
X143730000Y-70700000D01*
X147539000Y-57580000D02*
G75*
G03*
X145275000Y-55696000I-2074000J-190000D01*
G01*
X143935000Y-61580000D02*
G75*
G03*
X141675000Y-59700000I-2070000J-190000D01*
G01*
X144020000Y-63900000D02*
G75*
G02*
X141650000Y-66070000I-2270000J100000D01*
G01*
X143730000Y-69950000D02*
G75*
G02*
X144950000Y-68530000I1320000J100000D01*
G01*
%TO.C,SW13*%
X48680000Y-93450000D02*
X48680000Y-94150000D01*
X53675000Y-87350000D02*
X53700000Y-91950000D01*
X44100000Y-89550000D02*
X44100000Y-94150000D01*
X49900000Y-91975000D02*
X53675000Y-91975000D01*
X48975000Y-87325000D02*
X53675000Y-87325000D01*
X44125000Y-89525000D02*
X46675000Y-89525000D01*
X44125000Y-94175000D02*
X48675000Y-94175000D01*
X41600000Y-83100000D02*
X46650000Y-83146000D01*
X41600000Y-83054000D02*
X41600000Y-79146000D01*
X41600000Y-79146000D02*
X50225000Y-79146000D01*
X52500000Y-81100000D02*
X52500000Y-85045000D01*
X52500000Y-85054000D02*
X48890000Y-85054000D01*
X48680000Y-93400000D02*
G75*
G02*
X49900000Y-91980000I1320000J100000D01*
G01*
X48970000Y-87350000D02*
G75*
G02*
X46600000Y-89520000I-2270000J100000D01*
G01*
X48885000Y-85030000D02*
G75*
G03*
X46625000Y-83150000I-2070000J-190000D01*
G01*
X52489000Y-81030000D02*
G75*
G03*
X50225000Y-79146000I-2074000J-190000D01*
G01*
%TO.C,SW14*%
X71550000Y-85054000D02*
X67940000Y-85054000D01*
X71550000Y-81100000D02*
X71550000Y-85045000D01*
X60650000Y-79146000D02*
X69275000Y-79146000D01*
X60650000Y-83054000D02*
X60650000Y-79146000D01*
X60650000Y-83100000D02*
X65700000Y-83146000D01*
X63175000Y-94175000D02*
X67725000Y-94175000D01*
X63175000Y-89525000D02*
X65725000Y-89525000D01*
X68025000Y-87325000D02*
X72725000Y-87325000D01*
X68950000Y-91975000D02*
X72725000Y-91975000D01*
X63150000Y-89550000D02*
X63150000Y-94150000D01*
X72725000Y-87350000D02*
X72750000Y-91950000D01*
X67730000Y-93450000D02*
X67730000Y-94150000D01*
X71539000Y-81030000D02*
G75*
G03*
X69275000Y-79146000I-2074000J-190000D01*
G01*
X67935000Y-85030000D02*
G75*
G03*
X65675000Y-83150000I-2070000J-190000D01*
G01*
X68020000Y-87350000D02*
G75*
G02*
X65650000Y-89520000I-2270000J100000D01*
G01*
X67730000Y-93400000D02*
G75*
G02*
X68950000Y-91980000I1320000J100000D01*
G01*
%TO.C,SW15*%
X86680000Y-86750000D02*
X86680000Y-87450000D01*
X91675000Y-80650000D02*
X91700000Y-85250000D01*
X82100000Y-82850000D02*
X82100000Y-87450000D01*
X87900000Y-85275000D02*
X91675000Y-85275000D01*
X86975000Y-80625000D02*
X91675000Y-80625000D01*
X82125000Y-82825000D02*
X84675000Y-82825000D01*
X82125000Y-87475000D02*
X86675000Y-87475000D01*
X79600000Y-76400000D02*
X84650000Y-76446000D01*
X79600000Y-76354000D02*
X79600000Y-72446000D01*
X79600000Y-72446000D02*
X88225000Y-72446000D01*
X90500000Y-74400000D02*
X90500000Y-78345000D01*
X90500000Y-78354000D02*
X86890000Y-78354000D01*
X86680000Y-86700000D02*
G75*
G02*
X87900000Y-85280000I1320000J100000D01*
G01*
X86970000Y-80650000D02*
G75*
G02*
X84600000Y-82820000I-2270000J100000D01*
G01*
X86885000Y-78330000D02*
G75*
G03*
X84625000Y-76450000I-2070000J-190000D01*
G01*
X90489000Y-74330000D02*
G75*
G03*
X88225000Y-72446000I-2074000J-190000D01*
G01*
%TO.C,SW16*%
X109550000Y-75954000D02*
X105940000Y-75954000D01*
X109550000Y-72000000D02*
X109550000Y-75945000D01*
X98650000Y-70046000D02*
X107275000Y-70046000D01*
X98650000Y-73954000D02*
X98650000Y-70046000D01*
X98650000Y-74000000D02*
X103700000Y-74046000D01*
X101175000Y-85075000D02*
X105725000Y-85075000D01*
X101175000Y-80425000D02*
X103725000Y-80425000D01*
X106025000Y-78225000D02*
X110725000Y-78225000D01*
X106950000Y-82875000D02*
X110725000Y-82875000D01*
X101150000Y-80450000D02*
X101150000Y-85050000D01*
X110725000Y-78250000D02*
X110750000Y-82850000D01*
X105730000Y-84350000D02*
X105730000Y-85050000D01*
X109539000Y-71930000D02*
G75*
G03*
X107275000Y-70046000I-2074000J-190000D01*
G01*
X105935000Y-75930000D02*
G75*
G03*
X103675000Y-74050000I-2070000J-190000D01*
G01*
X106020000Y-78250000D02*
G75*
G02*
X103650000Y-80420000I-2270000J100000D01*
G01*
X105730000Y-84300000D02*
G75*
G02*
X106950000Y-82880000I1320000J100000D01*
G01*
%TO.C,SW17*%
X124680000Y-86750000D02*
X124680000Y-87450000D01*
X129675000Y-80650000D02*
X129700000Y-85250000D01*
X120100000Y-82850000D02*
X120100000Y-87450000D01*
X125900000Y-85275000D02*
X129675000Y-85275000D01*
X124975000Y-80625000D02*
X129675000Y-80625000D01*
X120125000Y-82825000D02*
X122675000Y-82825000D01*
X120125000Y-87475000D02*
X124675000Y-87475000D01*
X117600000Y-76400000D02*
X122650000Y-76446000D01*
X117600000Y-76354000D02*
X117600000Y-72446000D01*
X117600000Y-72446000D02*
X126225000Y-72446000D01*
X128500000Y-74400000D02*
X128500000Y-78345000D01*
X128500000Y-78354000D02*
X124890000Y-78354000D01*
X124680000Y-86700000D02*
G75*
G02*
X125900000Y-85280000I1320000J100000D01*
G01*
X124970000Y-80650000D02*
G75*
G02*
X122600000Y-82820000I-2270000J100000D01*
G01*
X124885000Y-78330000D02*
G75*
G03*
X122625000Y-76450000I-2070000J-190000D01*
G01*
X128489000Y-74330000D02*
G75*
G03*
X126225000Y-72446000I-2074000J-190000D01*
G01*
%TO.C,SW18*%
X147550000Y-80654000D02*
X143940000Y-80654000D01*
X147550000Y-76700000D02*
X147550000Y-80645000D01*
X136650000Y-74746000D02*
X145275000Y-74746000D01*
X136650000Y-78654000D02*
X136650000Y-74746000D01*
X136650000Y-78700000D02*
X141700000Y-78746000D01*
X139175000Y-89775000D02*
X143725000Y-89775000D01*
X139175000Y-85125000D02*
X141725000Y-85125000D01*
X144025000Y-82925000D02*
X148725000Y-82925000D01*
X144950000Y-87575000D02*
X148725000Y-87575000D01*
X139150000Y-85150000D02*
X139150000Y-89750000D01*
X148725000Y-82950000D02*
X148750000Y-87550000D01*
X143730000Y-89050000D02*
X143730000Y-89750000D01*
X147539000Y-76630000D02*
G75*
G03*
X145275000Y-74746000I-2074000J-190000D01*
G01*
X143935000Y-80630000D02*
G75*
G03*
X141675000Y-78750000I-2070000J-190000D01*
G01*
X144020000Y-82950000D02*
G75*
G02*
X141650000Y-85120000I-2270000J100000D01*
G01*
X143730000Y-89000000D02*
G75*
G02*
X144950000Y-87580000I1320000J100000D01*
G01*
%TO.C,SW19*%
X48680000Y-112500000D02*
X48680000Y-113200000D01*
X53675000Y-106400000D02*
X53700000Y-111000000D01*
X44100000Y-108600000D02*
X44100000Y-113200000D01*
X49900000Y-111025000D02*
X53675000Y-111025000D01*
X48975000Y-106375000D02*
X53675000Y-106375000D01*
X44125000Y-108575000D02*
X46675000Y-108575000D01*
X44125000Y-113225000D02*
X48675000Y-113225000D01*
X41600000Y-102150000D02*
X46650000Y-102196000D01*
X41600000Y-102104000D02*
X41600000Y-98196000D01*
X41600000Y-98196000D02*
X50225000Y-98196000D01*
X52500000Y-100150000D02*
X52500000Y-104095000D01*
X52500000Y-104104000D02*
X48890000Y-104104000D01*
X48680000Y-112450000D02*
G75*
G02*
X49900000Y-111030000I1320000J100000D01*
G01*
X48970000Y-106400000D02*
G75*
G02*
X46600000Y-108570000I-2270000J100000D01*
G01*
X48885000Y-104080000D02*
G75*
G03*
X46625000Y-102200000I-2070000J-190000D01*
G01*
X52489000Y-100080000D02*
G75*
G03*
X50225000Y-98196000I-2074000J-190000D01*
G01*
%TO.C,SW20*%
X71550000Y-104104000D02*
X67940000Y-104104000D01*
X71550000Y-100150000D02*
X71550000Y-104095000D01*
X60650000Y-98196000D02*
X69275000Y-98196000D01*
X60650000Y-102104000D02*
X60650000Y-98196000D01*
X60650000Y-102150000D02*
X65700000Y-102196000D01*
X63175000Y-113225000D02*
X67725000Y-113225000D01*
X63175000Y-108575000D02*
X65725000Y-108575000D01*
X68025000Y-106375000D02*
X72725000Y-106375000D01*
X68950000Y-111025000D02*
X72725000Y-111025000D01*
X63150000Y-108600000D02*
X63150000Y-113200000D01*
X72725000Y-106400000D02*
X72750000Y-111000000D01*
X67730000Y-112500000D02*
X67730000Y-113200000D01*
X71539000Y-100080000D02*
G75*
G03*
X69275000Y-98196000I-2074000J-190000D01*
G01*
X67935000Y-104080000D02*
G75*
G03*
X65675000Y-102200000I-2070000J-190000D01*
G01*
X68020000Y-106400000D02*
G75*
G02*
X65650000Y-108570000I-2270000J100000D01*
G01*
X67730000Y-112450000D02*
G75*
G02*
X68950000Y-111030000I1320000J100000D01*
G01*
%TO.C,SW21*%
X115180000Y-106250000D02*
X115180000Y-106950000D01*
X120175000Y-100150000D02*
X120200000Y-104750000D01*
X110600000Y-102350000D02*
X110600000Y-106950000D01*
X116400000Y-104775000D02*
X120175000Y-104775000D01*
X115475000Y-100125000D02*
X120175000Y-100125000D01*
X110625000Y-102325000D02*
X113175000Y-102325000D01*
X110625000Y-106975000D02*
X115175000Y-106975000D01*
X108100000Y-95900000D02*
X113150000Y-95946000D01*
X108100000Y-95854000D02*
X108100000Y-91946000D01*
X108100000Y-91946000D02*
X116725000Y-91946000D01*
X119000000Y-93900000D02*
X119000000Y-97845000D01*
X119000000Y-97854000D02*
X115390000Y-97854000D01*
X115180000Y-106200000D02*
G75*
G02*
X116400000Y-104780000I1320000J100000D01*
G01*
X115470000Y-100150000D02*
G75*
G02*
X113100000Y-102320000I-2270000J100000D01*
G01*
X115385000Y-97830000D02*
G75*
G03*
X113125000Y-95950000I-2070000J-190000D01*
G01*
X118989000Y-93830000D02*
G75*
G03*
X116725000Y-91946000I-2074000J-190000D01*
G01*
%TO.C,SW22*%
X140055797Y-102212830D02*
X136568805Y-101278493D01*
X141079168Y-98393559D02*
X140058127Y-102204136D01*
X131056309Y-93685012D02*
X139387419Y-95917327D01*
X130044844Y-97459850D02*
X131056309Y-93685012D01*
X130032938Y-97504283D02*
X134898958Y-98855752D01*
X129605480Y-108855430D02*
X134000443Y-110033056D01*
X130808989Y-104363875D02*
X133272100Y-105023863D01*
X136063131Y-103494110D02*
X140602982Y-104710560D01*
X135753104Y-108225073D02*
X139399474Y-109202115D01*
X130778370Y-104381552D02*
X129587802Y-108824811D01*
X140596512Y-104734708D02*
X139430092Y-109184437D01*
X134192916Y-109334054D02*
X134011743Y-110010202D01*
X141086659Y-98323097D02*
G75*
G03*
X139387419Y-95917327I-2052505J353265D01*
G01*
X136570187Y-101254017D02*
G75*
G03*
X134873775Y-98853145I-2048642J352230D01*
G01*
X136051831Y-103516964D02*
G75*
G02*
X133200949Y-104999622I-2166770J684112D01*
G01*
X134205857Y-109285757D02*
G75*
G02*
X135751810Y-108229902I1300904J-245049D01*
G01*
%TO.C,SW23*%
X163735191Y-107025462D02*
X164341408Y-107375462D01*
X160949936Y-99649665D02*
X164946152Y-101928015D01*
X158067691Y-109041858D02*
X162051408Y-111341858D01*
X163067803Y-105231411D02*
X164955303Y-101962165D01*
X158578285Y-103707485D02*
X160928285Y-99637165D01*
X158058541Y-109007708D02*
X159333541Y-106799343D01*
X162085559Y-111332708D02*
X164360559Y-107392292D01*
X151231828Y-107981922D02*
X153796665Y-103631494D01*
X151191990Y-107958922D02*
X147807563Y-106004922D01*
X147807563Y-106004922D02*
X152120063Y-98535453D01*
X154949777Y-97542245D02*
X158366247Y-99514745D01*
X158374041Y-99519245D02*
X156569041Y-102645597D01*
X163691889Y-107000463D02*
G75*
G02*
X163072133Y-105233911I573398J1193154D01*
G01*
X158597436Y-103724314D02*
G75*
G02*
X159291711Y-106861795I-1221603J-1915878D01*
G01*
X156545756Y-102637927D02*
G75*
G03*
X153787629Y-103655144I-870455J-1887672D01*
G01*
X154883655Y-97516771D02*
G75*
G03*
X152120063Y-98535453I-872455J-1891137D01*
G01*
%TO.C,U1*%
X153366400Y-39402000D02*
X155906400Y-39402000D01*
X155906400Y-39402000D02*
X155906400Y-69882000D01*
X155906400Y-69882000D02*
X153366400Y-69882000D01*
X153366400Y-69882000D02*
X153366400Y-39402000D01*
X168586400Y-39402000D02*
X171126400Y-39402000D01*
X171126400Y-39402000D02*
X171126400Y-69882000D01*
X171126400Y-69882000D02*
X168586400Y-69882000D01*
X168586400Y-69882000D02*
X168586400Y-39402000D01*
%TO.C,D1*%
X47600000Y-40500000D02*
X47600000Y-39500000D01*
X47500000Y-40000000D02*
X46600000Y-40500000D01*
X46600000Y-39500000D02*
X47500000Y-40000000D01*
X46600000Y-40500000D02*
X46600000Y-39500000D01*
X44400000Y-40750000D02*
X44400000Y-39250000D01*
X49800000Y-40750000D02*
X49800000Y-39250000D01*
X44400000Y-40750000D02*
X49800000Y-40750000D01*
X49800000Y-39250000D02*
X44400000Y-39250000D01*
%TO.C,D2*%
X55450000Y-41000000D02*
X55450000Y-46400000D01*
X56950000Y-46400000D02*
X56950000Y-41000000D01*
X56950000Y-41000000D02*
X55450000Y-41000000D01*
X56950000Y-46400000D02*
X55450000Y-46400000D01*
X56700000Y-44200000D02*
X55700000Y-44200000D01*
X55700000Y-44200000D02*
X56200000Y-43300000D01*
X56200000Y-43300000D02*
X56700000Y-44200000D01*
X56700000Y-43200000D02*
X55700000Y-43200000D01*
%TO.C,D3*%
X75600000Y-39200000D02*
X74600000Y-39200000D01*
X75100000Y-39300000D02*
X75600000Y-40200000D01*
X74600000Y-40200000D02*
X75100000Y-39300000D01*
X75600000Y-40200000D02*
X74600000Y-40200000D01*
X75850000Y-42400000D02*
X74350000Y-42400000D01*
X75850000Y-37000000D02*
X74350000Y-37000000D01*
X75850000Y-42400000D02*
X75850000Y-37000000D01*
X74350000Y-37000000D02*
X74350000Y-42400000D01*
%TO.C,D4*%
X93350000Y-32600000D02*
X93350000Y-38000000D01*
X94850000Y-38000000D02*
X94850000Y-32600000D01*
X94850000Y-32600000D02*
X93350000Y-32600000D01*
X94850000Y-38000000D02*
X93350000Y-38000000D01*
X94600000Y-35800000D02*
X93600000Y-35800000D01*
X93600000Y-35800000D02*
X94100000Y-34900000D01*
X94100000Y-34900000D02*
X94600000Y-35800000D01*
X94600000Y-34800000D02*
X93600000Y-34800000D01*
%TO.C,D5*%
X113800000Y-36400000D02*
X112800000Y-36400000D01*
X113300000Y-36500000D02*
X113800000Y-37400000D01*
X112800000Y-37400000D02*
X113300000Y-36500000D01*
X113800000Y-37400000D02*
X112800000Y-37400000D01*
X114050000Y-39600000D02*
X112550000Y-39600000D01*
X114050000Y-34200000D02*
X112550000Y-34200000D01*
X114050000Y-39600000D02*
X114050000Y-34200000D01*
X112550000Y-34200000D02*
X112550000Y-39600000D01*
%TO.C,D6*%
X131450000Y-36000000D02*
X131450000Y-41400000D01*
X132950000Y-41400000D02*
X132950000Y-36000000D01*
X132950000Y-36000000D02*
X131450000Y-36000000D01*
X132950000Y-41400000D02*
X131450000Y-41400000D01*
X132700000Y-39200000D02*
X131700000Y-39200000D01*
X131700000Y-39200000D02*
X132200000Y-38300000D01*
X132200000Y-38300000D02*
X132700000Y-39200000D01*
X132700000Y-38200000D02*
X131700000Y-38200000D01*
%TO.C,D7*%
X47200000Y-59700000D02*
X47200000Y-58700000D01*
X47100000Y-59200000D02*
X46200000Y-59700000D01*
X46200000Y-58700000D02*
X47100000Y-59200000D01*
X46200000Y-59700000D02*
X46200000Y-58700000D01*
X44000000Y-59950000D02*
X44000000Y-58450000D01*
X49400000Y-59950000D02*
X49400000Y-58450000D01*
X44000000Y-59950000D02*
X49400000Y-59950000D01*
X49400000Y-58450000D02*
X44000000Y-58450000D01*
%TO.C,D8*%
X55150000Y-62800000D02*
X55150000Y-68200000D01*
X56650000Y-68200000D02*
X56650000Y-62800000D01*
X56650000Y-62800000D02*
X55150000Y-62800000D01*
X56650000Y-68200000D02*
X55150000Y-68200000D01*
X56400000Y-66000000D02*
X55400000Y-66000000D01*
X55400000Y-66000000D02*
X55900000Y-65100000D01*
X55900000Y-65100000D02*
X56400000Y-66000000D01*
X56400000Y-65000000D02*
X55400000Y-65000000D01*
%TO.C,D9*%
X73550000Y-57400000D02*
X73550000Y-62800000D01*
X75050000Y-62800000D02*
X75050000Y-57400000D01*
X75050000Y-57400000D02*
X73550000Y-57400000D01*
X75050000Y-62800000D02*
X73550000Y-62800000D01*
X74800000Y-60600000D02*
X73800000Y-60600000D01*
X73800000Y-60600000D02*
X74300000Y-59700000D01*
X74300000Y-59700000D02*
X74800000Y-60600000D01*
X74800000Y-59600000D02*
X73800000Y-59600000D01*
%TO.C,D10*%
X94300000Y-56600000D02*
X93300000Y-56600000D01*
X93800000Y-56700000D02*
X94300000Y-57600000D01*
X93300000Y-57600000D02*
X93800000Y-56700000D01*
X94300000Y-57600000D02*
X93300000Y-57600000D01*
X94550000Y-59800000D02*
X93050000Y-59800000D01*
X94550000Y-54400000D02*
X93050000Y-54400000D01*
X94550000Y-59800000D02*
X94550000Y-54400000D01*
X93050000Y-54400000D02*
X93050000Y-59800000D01*
%TO.C,D11*%
X112150000Y-54500000D02*
X112150000Y-59900000D01*
X113650000Y-59900000D02*
X113650000Y-54500000D01*
X113650000Y-54500000D02*
X112150000Y-54500000D01*
X113650000Y-59900000D02*
X112150000Y-59900000D01*
X113400000Y-57700000D02*
X112400000Y-57700000D01*
X112400000Y-57700000D02*
X112900000Y-56800000D01*
X112900000Y-56800000D02*
X113400000Y-57700000D01*
X113400000Y-56700000D02*
X112400000Y-56700000D01*
%TO.C,D12*%
X131250000Y-55650000D02*
X131250000Y-61050000D01*
X132750000Y-61050000D02*
X132750000Y-55650000D01*
X132750000Y-55650000D02*
X131250000Y-55650000D01*
X132750000Y-61050000D02*
X131250000Y-61050000D01*
X132500000Y-58850000D02*
X131500000Y-58850000D01*
X131500000Y-58850000D02*
X132000000Y-57950000D01*
X132000000Y-57950000D02*
X132500000Y-58850000D01*
X132500000Y-57850000D02*
X131500000Y-57850000D01*
%TO.C,D13*%
X41000000Y-94450000D02*
X41000000Y-93450000D01*
X40900000Y-93950000D02*
X40000000Y-94450000D01*
X40000000Y-93450000D02*
X40900000Y-93950000D01*
X40000000Y-94450000D02*
X40000000Y-93450000D01*
X37800000Y-94700000D02*
X37800000Y-93200000D01*
X43200000Y-94700000D02*
X43200000Y-93200000D01*
X37800000Y-94700000D02*
X43200000Y-94700000D01*
X43200000Y-93200000D02*
X37800000Y-93200000D01*
%TO.C,D14*%
X75000000Y-92400000D02*
X69600000Y-92400000D01*
X69600000Y-93900000D02*
X75000000Y-93900000D01*
X75000000Y-93900000D02*
X75000000Y-92400000D01*
X69600000Y-93900000D02*
X69600000Y-92400000D01*
X71800000Y-93650000D02*
X71800000Y-92650000D01*
X71800000Y-92650000D02*
X72700000Y-93150000D01*
X72700000Y-93150000D02*
X71800000Y-93650000D01*
X72800000Y-93650000D02*
X72800000Y-92650000D01*
%TO.C,D15*%
X78700000Y-87850000D02*
X78700000Y-86850000D01*
X78600000Y-87350000D02*
X77700000Y-87850000D01*
X77700000Y-86850000D02*
X78600000Y-87350000D01*
X77700000Y-87850000D02*
X77700000Y-86850000D01*
X75500000Y-88100000D02*
X75500000Y-86600000D01*
X80900000Y-88100000D02*
X80900000Y-86600000D01*
X75500000Y-88100000D02*
X80900000Y-88100000D01*
X80900000Y-86600000D02*
X75500000Y-86600000D01*
%TO.C,D16*%
X112100000Y-84800000D02*
X106700000Y-84800000D01*
X106700000Y-86300000D02*
X112100000Y-86300000D01*
X112100000Y-86300000D02*
X112100000Y-84800000D01*
X106700000Y-86300000D02*
X106700000Y-84800000D01*
X108900000Y-86050000D02*
X108900000Y-85050000D01*
X108900000Y-85050000D02*
X109800000Y-85550000D01*
X109800000Y-85550000D02*
X108900000Y-86050000D01*
X109900000Y-86050000D02*
X109900000Y-85050000D01*
%TO.C,D17*%
X128200000Y-87850000D02*
X128200000Y-86850000D01*
X128100000Y-87350000D02*
X127200000Y-87850000D01*
X127200000Y-86850000D02*
X128100000Y-87350000D01*
X127200000Y-87850000D02*
X127200000Y-86850000D01*
X125000000Y-88100000D02*
X125000000Y-86600000D01*
X130400000Y-88100000D02*
X130400000Y-86600000D01*
X125000000Y-88100000D02*
X130400000Y-88100000D01*
X130400000Y-86600000D02*
X125000000Y-86600000D01*
%TO.C,D18*%
X149500000Y-88900000D02*
X144100000Y-88900000D01*
X144100000Y-90400000D02*
X149500000Y-90400000D01*
X149500000Y-90400000D02*
X149500000Y-88900000D01*
X144100000Y-90400000D02*
X144100000Y-88900000D01*
X146300000Y-90150000D02*
X146300000Y-89150000D01*
X146300000Y-89150000D02*
X147200000Y-89650000D01*
X147200000Y-89650000D02*
X146300000Y-90150000D01*
X147300000Y-90150000D02*
X147300000Y-89150000D01*
%TO.C,D19*%
X54500000Y-112750000D02*
X54500000Y-111750000D01*
X54400000Y-112250000D02*
X53500000Y-112750000D01*
X53500000Y-111750000D02*
X54400000Y-112250000D01*
X53500000Y-112750000D02*
X53500000Y-111750000D01*
X51300000Y-113000000D02*
X51300000Y-111500000D01*
X56700000Y-113000000D02*
X56700000Y-111500000D01*
X51300000Y-113000000D02*
X56700000Y-113000000D01*
X56700000Y-111500000D02*
X51300000Y-111500000D01*
%TO.C,D20*%
X75300000Y-111500000D02*
X69900000Y-111500000D01*
X69900000Y-113000000D02*
X75300000Y-113000000D01*
X75300000Y-113000000D02*
X75300000Y-111500000D01*
X69900000Y-113000000D02*
X69900000Y-111500000D01*
X72100000Y-112750000D02*
X72100000Y-111750000D01*
X72100000Y-111750000D02*
X73000000Y-112250000D01*
X73000000Y-112250000D02*
X72100000Y-112750000D01*
X73100000Y-112750000D02*
X73100000Y-111750000D01*
%TO.C,D21*%
X100538372Y-100954416D02*
X101304416Y-100311628D01*
X100857115Y-100556418D02*
X99895584Y-100188372D01*
X100661628Y-99545584D02*
X100857115Y-100556418D01*
X99895584Y-100188372D02*
X100661628Y-99545584D01*
X98289940Y-98663771D02*
X99439007Y-97699589D01*
X101760993Y-102800411D02*
X102910060Y-101836229D01*
X98289940Y-98663771D02*
X101760993Y-102800411D01*
X102910060Y-101836229D02*
X99439007Y-97699589D01*
%TO.C,D22*%
X149783013Y-112733013D02*
X150283013Y-111866987D01*
X149946410Y-112250000D02*
X148916987Y-112233013D01*
X149416987Y-111366987D02*
X149946410Y-112250000D01*
X148916987Y-112233013D02*
X149416987Y-111366987D01*
X146886731Y-111349519D02*
X147636731Y-110050481D01*
X151563269Y-114049519D02*
X152313269Y-112750481D01*
X146886731Y-111349519D02*
X151563269Y-114049519D01*
X152313269Y-112750481D02*
X147636731Y-110050481D01*
%TO.C,D23*%
X127602114Y-106624367D02*
X122386115Y-105226744D01*
X121997886Y-106675633D02*
X127213885Y-108073256D01*
X127213885Y-108073256D02*
X127602114Y-106624367D01*
X121997886Y-106675633D02*
X122386115Y-105226744D01*
X124187628Y-107003553D02*
X124446447Y-106037628D01*
X124446447Y-106037628D02*
X125186370Y-106753528D01*
X125186370Y-106753528D02*
X124187628Y-107003553D01*
X125153553Y-107262372D02*
X125412372Y-106296447D01*
%TO.C,*%
%TO.C,J1*%
X164202380Y-86761904D02*
X164202380Y-86190476D01*
X165202380Y-86476190D02*
X164202380Y-86476190D01*
X165202380Y-85285714D02*
X164726190Y-85619047D01*
X165202380Y-85857142D02*
X164202380Y-85857142D01*
X164202380Y-85476190D01*
X164250000Y-85380952D01*
X164297619Y-85333333D01*
X164392857Y-85285714D01*
X164535714Y-85285714D01*
X164630952Y-85333333D01*
X164678571Y-85380952D01*
X164726190Y-85476190D01*
X164726190Y-85857142D01*
X165202380Y-84285714D02*
X164726190Y-84619047D01*
X165202380Y-84857142D02*
X164202380Y-84857142D01*
X164202380Y-84476190D01*
X164250000Y-84380952D01*
X164297619Y-84333333D01*
X164392857Y-84285714D01*
X164535714Y-84285714D01*
X164630952Y-84333333D01*
X164678571Y-84380952D01*
X164726190Y-84476190D01*
X164726190Y-84857142D01*
X165154761Y-83904761D02*
X165202380Y-83761904D01*
X165202380Y-83523809D01*
X165154761Y-83428571D01*
X165107142Y-83380952D01*
X165011904Y-83333333D01*
X164916666Y-83333333D01*
X164821428Y-83380952D01*
X164773809Y-83428571D01*
X164726190Y-83523809D01*
X164678571Y-83714285D01*
X164630952Y-83809523D01*
X164583333Y-83857142D01*
X164488095Y-83904761D01*
X164392857Y-83904761D01*
X164297619Y-83857142D01*
X164250000Y-83809523D01*
X164202380Y-83714285D01*
X164202380Y-83476190D01*
X164250000Y-83333333D01*
%TO.C,J2*%
X159847619Y-70902380D02*
X160038095Y-70902380D01*
X160133333Y-70950000D01*
X160228571Y-71045238D01*
X160276190Y-71235714D01*
X160276190Y-71569047D01*
X160228571Y-71759523D01*
X160133333Y-71854761D01*
X160038095Y-71902380D01*
X159847619Y-71902380D01*
X159752380Y-71854761D01*
X159657142Y-71759523D01*
X159609523Y-71569047D01*
X159609523Y-71235714D01*
X159657142Y-71045238D01*
X159752380Y-70950000D01*
X159847619Y-70902380D01*
X161180952Y-71902380D02*
X160704761Y-71902380D01*
X160704761Y-70902380D01*
X161514285Y-71378571D02*
X161847619Y-71378571D01*
X161990476Y-71902380D02*
X161514285Y-71902380D01*
X161514285Y-70902380D01*
X161990476Y-70902380D01*
X162419047Y-71902380D02*
X162419047Y-70902380D01*
X162657142Y-70902380D01*
X162800000Y-70950000D01*
X162895238Y-71045238D01*
X162942857Y-71140476D01*
X162990476Y-71330952D01*
X162990476Y-71473809D01*
X162942857Y-71664285D01*
X162895238Y-71759523D01*
X162800000Y-71854761D01*
X162657142Y-71902380D01*
X162419047Y-71902380D01*
%TO.C,JP6*%
%TO.C,JP7*%
%TO.C,JP8*%
%TO.C,JP9*%
%TO.C,P1*%
X159218695Y-76749923D02*
X158405895Y-76749923D01*
X158405895Y-76440285D01*
X158444600Y-76362876D01*
X158483304Y-76324171D01*
X158560714Y-76285466D01*
X158676828Y-76285466D01*
X158754238Y-76324171D01*
X158792942Y-76362876D01*
X158831647Y-76440285D01*
X158831647Y-76749923D01*
X159218695Y-75511371D02*
X159218695Y-75975828D01*
X159218695Y-75743600D02*
X158405895Y-75743600D01*
X158522009Y-75821009D01*
X158599419Y-75898419D01*
X158638123Y-75975828D01*
%TO.C,P2*%
X159218695Y-79149923D02*
X158405895Y-79149923D01*
X158405895Y-78840285D01*
X158444600Y-78762876D01*
X158483304Y-78724171D01*
X158560714Y-78685466D01*
X158676828Y-78685466D01*
X158754238Y-78724171D01*
X158792942Y-78762876D01*
X158831647Y-78840285D01*
X158831647Y-79149923D01*
X158483304Y-78375828D02*
X158444600Y-78337123D01*
X158405895Y-78259714D01*
X158405895Y-78066190D01*
X158444600Y-77988780D01*
X158483304Y-77950076D01*
X158560714Y-77911371D01*
X158638123Y-77911371D01*
X158754238Y-77950076D01*
X159218695Y-78414533D01*
X159218695Y-77911371D01*
%TO.C,R1*%
X163314533Y-76437695D02*
X163043600Y-76050647D01*
X162850076Y-76437695D02*
X162850076Y-75624895D01*
X163159714Y-75624895D01*
X163237123Y-75663600D01*
X163275828Y-75702304D01*
X163314533Y-75779714D01*
X163314533Y-75895828D01*
X163275828Y-75973238D01*
X163237123Y-76011942D01*
X163159714Y-76050647D01*
X162850076Y-76050647D01*
X164088628Y-76437695D02*
X163624171Y-76437695D01*
X163856400Y-76437695D02*
X163856400Y-75624895D01*
X163778990Y-75741009D01*
X163701580Y-75818419D01*
X163624171Y-75857123D01*
%TO.C,R2*%
X163314533Y-78937695D02*
X163043600Y-78550647D01*
X162850076Y-78937695D02*
X162850076Y-78124895D01*
X163159714Y-78124895D01*
X163237123Y-78163600D01*
X163275828Y-78202304D01*
X163314533Y-78279714D01*
X163314533Y-78395828D01*
X163275828Y-78473238D01*
X163237123Y-78511942D01*
X163159714Y-78550647D01*
X162850076Y-78550647D01*
X163624171Y-78202304D02*
X163662876Y-78163600D01*
X163740285Y-78124895D01*
X163933809Y-78124895D01*
X164011219Y-78163600D01*
X164049923Y-78202304D01*
X164088628Y-78279714D01*
X164088628Y-78357123D01*
X164049923Y-78473238D01*
X163585466Y-78937695D01*
X164088628Y-78937695D01*
%TO.C,RSW1*%
X169452380Y-77602380D02*
X168976190Y-77935714D01*
X169452380Y-78173809D02*
X168452380Y-78173809D01*
X168452380Y-77792857D01*
X168500000Y-77697619D01*
X168547619Y-77650000D01*
X168642857Y-77602380D01*
X168785714Y-77602380D01*
X168880952Y-77650000D01*
X168928571Y-77697619D01*
X168976190Y-77792857D01*
X168976190Y-78173809D01*
X168928571Y-77173809D02*
X168928571Y-76840476D01*
X169452380Y-76697619D02*
X169452380Y-77173809D01*
X168452380Y-77173809D01*
X168452380Y-76697619D01*
X169404761Y-76316666D02*
X169452380Y-76173809D01*
X169452380Y-75935714D01*
X169404761Y-75840476D01*
X169357142Y-75792857D01*
X169261904Y-75745238D01*
X169166666Y-75745238D01*
X169071428Y-75792857D01*
X169023809Y-75840476D01*
X168976190Y-75935714D01*
X168928571Y-76126190D01*
X168880952Y-76221428D01*
X168833333Y-76269047D01*
X168738095Y-76316666D01*
X168642857Y-76316666D01*
X168547619Y-76269047D01*
X168500000Y-76221428D01*
X168452380Y-76126190D01*
X168452380Y-75888095D01*
X168500000Y-75745238D01*
X168928571Y-75316666D02*
X168928571Y-74983333D01*
X169452380Y-74840476D02*
X169452380Y-75316666D01*
X168452380Y-75316666D01*
X168452380Y-74840476D01*
X168452380Y-74554761D02*
X168452380Y-73983333D01*
X169452380Y-74269047D02*
X168452380Y-74269047D01*
%TO.C,U1*%
D12*
X152139261Y-41011285D02*
X151972595Y-40654142D01*
X151853547Y-41011285D02*
X151853547Y-40261285D01*
X152044023Y-40261285D01*
X152091642Y-40297000D01*
X152115452Y-40332714D01*
X152139261Y-40404142D01*
X152139261Y-40511285D01*
X152115452Y-40582714D01*
X152091642Y-40618428D01*
X152044023Y-40654142D01*
X151853547Y-40654142D01*
X152329738Y-40797000D02*
X152567833Y-40797000D01*
X152282119Y-41011285D02*
X152448785Y-40261285D01*
X152615452Y-41011285D01*
X152734500Y-40261285D02*
X152853547Y-41011285D01*
X152948785Y-40475571D01*
X153044023Y-41011285D01*
X153163071Y-40261285D01*
X167378571Y-41011285D02*
X167140476Y-41011285D01*
X167140476Y-40261285D01*
X167545238Y-40618428D02*
X167711904Y-40618428D01*
X167783333Y-41011285D02*
X167545238Y-41011285D01*
X167545238Y-40261285D01*
X167783333Y-40261285D01*
X167997619Y-41011285D02*
X167997619Y-40261285D01*
X168116666Y-40261285D01*
X168188095Y-40297000D01*
X168235714Y-40368428D01*
X168259523Y-40439857D01*
X168283333Y-40582714D01*
X168283333Y-40689857D01*
X168259523Y-40832714D01*
X168235714Y-40904142D01*
X168188095Y-40975571D01*
X168116666Y-41011285D01*
X167997619Y-41011285D01*
X152103547Y-42837000D02*
X152055928Y-42801285D01*
X151984500Y-42801285D01*
X151913071Y-42837000D01*
X151865452Y-42908428D01*
X151841642Y-42979857D01*
X151817833Y-43122714D01*
X151817833Y-43229857D01*
X151841642Y-43372714D01*
X151865452Y-43444142D01*
X151913071Y-43515571D01*
X151984500Y-43551285D01*
X152032119Y-43551285D01*
X152103547Y-43515571D01*
X152127357Y-43479857D01*
X152127357Y-43229857D01*
X152032119Y-43229857D01*
X152341642Y-43551285D02*
X152341642Y-42801285D01*
X152627357Y-43551285D01*
X152627357Y-42801285D01*
X152865452Y-43551285D02*
X152865452Y-42801285D01*
X152984500Y-42801285D01*
X153055928Y-42837000D01*
X153103547Y-42908428D01*
X153127357Y-42979857D01*
X153151166Y-43122714D01*
X153151166Y-43229857D01*
X153127357Y-43372714D01*
X153103547Y-43444142D01*
X153055928Y-43515571D01*
X152984500Y-43551285D01*
X152865452Y-43551285D01*
X166800000Y-43539285D02*
X166800000Y-42789285D01*
X166919047Y-42789285D01*
X166990476Y-42825000D01*
X167038095Y-42896428D01*
X167061904Y-42967857D01*
X167085714Y-43110714D01*
X167085714Y-43217857D01*
X167061904Y-43360714D01*
X167038095Y-43432142D01*
X166990476Y-43503571D01*
X166919047Y-43539285D01*
X166800000Y-43539285D01*
X167276190Y-43325000D02*
X167514285Y-43325000D01*
X167228571Y-43539285D02*
X167395238Y-42789285D01*
X167561904Y-43539285D01*
X167657142Y-42789285D02*
X167942857Y-42789285D01*
X167800000Y-43539285D02*
X167800000Y-42789285D01*
X168085714Y-43325000D02*
X168323809Y-43325000D01*
X168038095Y-43539285D02*
X168204761Y-42789285D01*
X168371428Y-43539285D01*
X152210690Y-46154785D02*
X152044023Y-45797642D01*
X151924976Y-46154785D02*
X151924976Y-45404785D01*
X152115452Y-45404785D01*
X152163071Y-45440500D01*
X152186880Y-45476214D01*
X152210690Y-45547642D01*
X152210690Y-45654785D01*
X152186880Y-45726214D01*
X152163071Y-45761928D01*
X152115452Y-45797642D01*
X151924976Y-45797642D01*
X152401166Y-46119071D02*
X152472595Y-46154785D01*
X152591642Y-46154785D01*
X152639261Y-46119071D01*
X152663071Y-46083357D01*
X152686880Y-46011928D01*
X152686880Y-45940500D01*
X152663071Y-45869071D01*
X152639261Y-45833357D01*
X152591642Y-45797642D01*
X152496404Y-45761928D01*
X152448785Y-45726214D01*
X152424976Y-45690500D01*
X152401166Y-45619071D01*
X152401166Y-45547642D01*
X152424976Y-45476214D01*
X152448785Y-45440500D01*
X152496404Y-45404785D01*
X152615452Y-45404785D01*
X152686880Y-45440500D01*
X152829738Y-45404785D02*
X153115452Y-45404785D01*
X152972595Y-46154785D02*
X152972595Y-45404785D01*
X167343547Y-45440500D02*
X167295928Y-45404785D01*
X167224500Y-45404785D01*
X167153071Y-45440500D01*
X167105452Y-45511928D01*
X167081642Y-45583357D01*
X167057833Y-45726214D01*
X167057833Y-45833357D01*
X167081642Y-45976214D01*
X167105452Y-46047642D01*
X167153071Y-46119071D01*
X167224500Y-46154785D01*
X167272119Y-46154785D01*
X167343547Y-46119071D01*
X167367357Y-46083357D01*
X167367357Y-45833357D01*
X167272119Y-45833357D01*
X167581642Y-46154785D02*
X167581642Y-45404785D01*
X167867357Y-46154785D01*
X167867357Y-45404785D01*
X168105452Y-46154785D02*
X168105452Y-45404785D01*
X168224500Y-45404785D01*
X168295928Y-45440500D01*
X168343547Y-45511928D01*
X168367357Y-45583357D01*
X168391166Y-45726214D01*
X168391166Y-45833357D01*
X168367357Y-45976214D01*
X168343547Y-46047642D01*
X168295928Y-46119071D01*
X168224500Y-46154785D01*
X168105452Y-46154785D01*
X151817833Y-47881285D02*
X151984500Y-48631285D01*
X152151166Y-47881285D01*
X152603547Y-48559857D02*
X152579738Y-48595571D01*
X152508309Y-48631285D01*
X152460690Y-48631285D01*
X152389261Y-48595571D01*
X152341642Y-48524142D01*
X152317833Y-48452714D01*
X152294023Y-48309857D01*
X152294023Y-48202714D01*
X152317833Y-48059857D01*
X152341642Y-47988428D01*
X152389261Y-47917000D01*
X152460690Y-47881285D01*
X152508309Y-47881285D01*
X152579738Y-47917000D01*
X152603547Y-47952714D01*
X153103547Y-48559857D02*
X153079738Y-48595571D01*
X153008309Y-48631285D01*
X152960690Y-48631285D01*
X152889261Y-48595571D01*
X152841642Y-48524142D01*
X152817833Y-48452714D01*
X152794023Y-48309857D01*
X152794023Y-48202714D01*
X152817833Y-48059857D01*
X152841642Y-47988428D01*
X152889261Y-47917000D01*
X152960690Y-47881285D01*
X153008309Y-47881285D01*
X153079738Y-47917000D01*
X153103547Y-47952714D01*
X167280047Y-47980500D02*
X167232428Y-47944785D01*
X167161000Y-47944785D01*
X167089571Y-47980500D01*
X167041952Y-48051928D01*
X167018142Y-48123357D01*
X166994333Y-48266214D01*
X166994333Y-48373357D01*
X167018142Y-48516214D01*
X167041952Y-48587642D01*
X167089571Y-48659071D01*
X167161000Y-48694785D01*
X167208619Y-48694785D01*
X167280047Y-48659071D01*
X167303857Y-48623357D01*
X167303857Y-48373357D01*
X167208619Y-48373357D01*
X167518142Y-48694785D02*
X167518142Y-47944785D01*
X167803857Y-48694785D01*
X167803857Y-47944785D01*
X168041952Y-48694785D02*
X168041952Y-47944785D01*
X168161000Y-47944785D01*
X168232428Y-47980500D01*
X168280047Y-48051928D01*
X168303857Y-48123357D01*
X168327666Y-48266214D01*
X168327666Y-48373357D01*
X168303857Y-48516214D01*
X168280047Y-48587642D01*
X168232428Y-48659071D01*
X168161000Y-48694785D01*
X168041952Y-48694785D01*
X151652380Y-58767857D02*
X151628571Y-58803571D01*
X151557142Y-58839285D01*
X151509523Y-58839285D01*
X151438095Y-58803571D01*
X151390476Y-58732142D01*
X151366666Y-58660714D01*
X151342857Y-58517857D01*
X151342857Y-58410714D01*
X151366666Y-58267857D01*
X151390476Y-58196428D01*
X151438095Y-58125000D01*
X151509523Y-58089285D01*
X151557142Y-58089285D01*
X151628571Y-58125000D01*
X151652380Y-58160714D01*
X151961904Y-58089285D02*
X152057142Y-58089285D01*
X152104761Y-58125000D01*
X152152380Y-58196428D01*
X152176190Y-58339285D01*
X152176190Y-58589285D01*
X152152380Y-58732142D01*
X152104761Y-58803571D01*
X152057142Y-58839285D01*
X151961904Y-58839285D01*
X151914285Y-58803571D01*
X151866666Y-58732142D01*
X151842857Y-58589285D01*
X151842857Y-58339285D01*
X151866666Y-58196428D01*
X151914285Y-58125000D01*
X151961904Y-58089285D01*
X152628571Y-58839285D02*
X152390476Y-58839285D01*
X152390476Y-58089285D01*
X152747619Y-58089285D02*
X153057142Y-58089285D01*
X152890476Y-58375000D01*
X152961904Y-58375000D01*
X153009523Y-58410714D01*
X153033333Y-58446428D01*
X153057142Y-58517857D01*
X153057142Y-58696428D01*
X153033333Y-58767857D01*
X153009523Y-58803571D01*
X152961904Y-58839285D01*
X152819047Y-58839285D01*
X152771428Y-58803571D01*
X152747619Y-58767857D01*
X166769047Y-56289285D02*
X166602380Y-55932142D01*
X166483333Y-56289285D02*
X166483333Y-55539285D01*
X166673809Y-55539285D01*
X166721428Y-55575000D01*
X166745238Y-55610714D01*
X166769047Y-55682142D01*
X166769047Y-55789285D01*
X166745238Y-55860714D01*
X166721428Y-55896428D01*
X166673809Y-55932142D01*
X166483333Y-55932142D01*
X167078571Y-55539285D02*
X167173809Y-55539285D01*
X167221428Y-55575000D01*
X167269047Y-55646428D01*
X167292857Y-55789285D01*
X167292857Y-56039285D01*
X167269047Y-56182142D01*
X167221428Y-56253571D01*
X167173809Y-56289285D01*
X167078571Y-56289285D01*
X167030952Y-56253571D01*
X166983333Y-56182142D01*
X166959523Y-56039285D01*
X166959523Y-55789285D01*
X166983333Y-55646428D01*
X167030952Y-55575000D01*
X167078571Y-55539285D01*
X167459523Y-55539285D02*
X167578571Y-56289285D01*
X167673809Y-55753571D01*
X167769047Y-56289285D01*
X167888095Y-55539285D01*
X168173809Y-55539285D02*
X168221428Y-55539285D01*
X168269047Y-55575000D01*
X168292857Y-55610714D01*
X168316666Y-55682142D01*
X168340476Y-55825000D01*
X168340476Y-56003571D01*
X168316666Y-56146428D01*
X168292857Y-56217857D01*
X168269047Y-56253571D01*
X168221428Y-56289285D01*
X168173809Y-56289285D01*
X168126190Y-56253571D01*
X168102380Y-56217857D01*
X168078571Y-56146428D01*
X168054761Y-56003571D01*
X168054761Y-55825000D01*
X168078571Y-55682142D01*
X168102380Y-55610714D01*
X168126190Y-55575000D01*
X168173809Y-55539285D01*
X151752380Y-56179857D02*
X151728571Y-56215571D01*
X151657142Y-56251285D01*
X151609523Y-56251285D01*
X151538095Y-56215571D01*
X151490476Y-56144142D01*
X151466666Y-56072714D01*
X151442857Y-55929857D01*
X151442857Y-55822714D01*
X151466666Y-55679857D01*
X151490476Y-55608428D01*
X151538095Y-55537000D01*
X151609523Y-55501285D01*
X151657142Y-55501285D01*
X151728571Y-55537000D01*
X151752380Y-55572714D01*
X152061904Y-55501285D02*
X152157142Y-55501285D01*
X152204761Y-55537000D01*
X152252380Y-55608428D01*
X152276190Y-55751285D01*
X152276190Y-56001285D01*
X152252380Y-56144142D01*
X152204761Y-56215571D01*
X152157142Y-56251285D01*
X152061904Y-56251285D01*
X152014285Y-56215571D01*
X151966666Y-56144142D01*
X151942857Y-56001285D01*
X151942857Y-55751285D01*
X151966666Y-55608428D01*
X152014285Y-55537000D01*
X152061904Y-55501285D01*
X152728571Y-56251285D02*
X152490476Y-56251285D01*
X152490476Y-55501285D01*
X152871428Y-55572714D02*
X152895238Y-55537000D01*
X152942857Y-55501285D01*
X153061904Y-55501285D01*
X153109523Y-55537000D01*
X153133333Y-55572714D01*
X153157142Y-55644142D01*
X153157142Y-55715571D01*
X153133333Y-55822714D01*
X152847619Y-56251285D01*
X153157142Y-56251285D01*
X167065761Y-53675571D02*
X167137190Y-53711285D01*
X167256238Y-53711285D01*
X167303857Y-53675571D01*
X167327666Y-53639857D01*
X167351476Y-53568428D01*
X167351476Y-53497000D01*
X167327666Y-53425571D01*
X167303857Y-53389857D01*
X167256238Y-53354142D01*
X167161000Y-53318428D01*
X167113380Y-53282714D01*
X167089571Y-53247000D01*
X167065761Y-53175571D01*
X167065761Y-53104142D01*
X167089571Y-53032714D01*
X167113380Y-52997000D01*
X167161000Y-52961285D01*
X167280047Y-52961285D01*
X167351476Y-52997000D01*
X167851476Y-53639857D02*
X167827666Y-53675571D01*
X167756238Y-53711285D01*
X167708619Y-53711285D01*
X167637190Y-53675571D01*
X167589571Y-53604142D01*
X167565761Y-53532714D01*
X167541952Y-53389857D01*
X167541952Y-53282714D01*
X167565761Y-53139857D01*
X167589571Y-53068428D01*
X167637190Y-52997000D01*
X167708619Y-52961285D01*
X167756238Y-52961285D01*
X167827666Y-52997000D01*
X167851476Y-53032714D01*
X168303857Y-53711285D02*
X168065761Y-53711285D01*
X168065761Y-52961285D01*
X167053857Y-51135571D02*
X167125285Y-51171285D01*
X167244333Y-51171285D01*
X167291952Y-51135571D01*
X167315761Y-51099857D01*
X167339571Y-51028428D01*
X167339571Y-50957000D01*
X167315761Y-50885571D01*
X167291952Y-50849857D01*
X167244333Y-50814142D01*
X167149095Y-50778428D01*
X167101476Y-50742714D01*
X167077666Y-50707000D01*
X167053857Y-50635571D01*
X167053857Y-50564142D01*
X167077666Y-50492714D01*
X167101476Y-50457000D01*
X167149095Y-50421285D01*
X167268142Y-50421285D01*
X167339571Y-50457000D01*
X167553857Y-51171285D02*
X167553857Y-50421285D01*
X167672904Y-50421285D01*
X167744333Y-50457000D01*
X167791952Y-50528428D01*
X167815761Y-50599857D01*
X167839571Y-50742714D01*
X167839571Y-50849857D01*
X167815761Y-50992714D01*
X167791952Y-51064142D01*
X167744333Y-51135571D01*
X167672904Y-51171285D01*
X167553857Y-51171285D01*
X168030047Y-50957000D02*
X168268142Y-50957000D01*
X167982428Y-51171285D02*
X168149095Y-50421285D01*
X168315761Y-51171285D01*
X151752380Y-51117857D02*
X151728571Y-51153571D01*
X151657142Y-51189285D01*
X151609523Y-51189285D01*
X151538095Y-51153571D01*
X151490476Y-51082142D01*
X151466666Y-51010714D01*
X151442857Y-50867857D01*
X151442857Y-50760714D01*
X151466666Y-50617857D01*
X151490476Y-50546428D01*
X151538095Y-50475000D01*
X151609523Y-50439285D01*
X151657142Y-50439285D01*
X151728571Y-50475000D01*
X151752380Y-50510714D01*
X152061904Y-50439285D02*
X152157142Y-50439285D01*
X152204761Y-50475000D01*
X152252380Y-50546428D01*
X152276190Y-50689285D01*
X152276190Y-50939285D01*
X152252380Y-51082142D01*
X152204761Y-51153571D01*
X152157142Y-51189285D01*
X152061904Y-51189285D01*
X152014285Y-51153571D01*
X151966666Y-51082142D01*
X151942857Y-50939285D01*
X151942857Y-50689285D01*
X151966666Y-50546428D01*
X152014285Y-50475000D01*
X152061904Y-50439285D01*
X152728571Y-51189285D02*
X152490476Y-51189285D01*
X152490476Y-50439285D01*
X152990476Y-50439285D02*
X153038095Y-50439285D01*
X153085714Y-50475000D01*
X153109523Y-50510714D01*
X153133333Y-50582142D01*
X153157142Y-50725000D01*
X153157142Y-50903571D01*
X153133333Y-51046428D01*
X153109523Y-51117857D01*
X153085714Y-51153571D01*
X153038095Y-51189285D01*
X152990476Y-51189285D01*
X152942857Y-51153571D01*
X152919047Y-51117857D01*
X152895238Y-51046428D01*
X152871428Y-50903571D01*
X152871428Y-50725000D01*
X152895238Y-50582142D01*
X152919047Y-50510714D01*
X152942857Y-50475000D01*
X152990476Y-50439285D01*
X151947619Y-68596428D02*
X152019047Y-68632142D01*
X152042857Y-68667857D01*
X152066666Y-68739285D01*
X152066666Y-68846428D01*
X152042857Y-68917857D01*
X152019047Y-68953571D01*
X151971428Y-68989285D01*
X151780952Y-68989285D01*
X151780952Y-68239285D01*
X151947619Y-68239285D01*
X151995238Y-68275000D01*
X152019047Y-68310714D01*
X152042857Y-68382142D01*
X152042857Y-68453571D01*
X152019047Y-68525000D01*
X151995238Y-68560714D01*
X151947619Y-68596428D01*
X151780952Y-68596428D01*
X152495238Y-68239285D02*
X152400000Y-68239285D01*
X152352380Y-68275000D01*
X152328571Y-68310714D01*
X152280952Y-68417857D01*
X152257142Y-68560714D01*
X152257142Y-68846428D01*
X152280952Y-68917857D01*
X152304761Y-68953571D01*
X152352380Y-68989285D01*
X152447619Y-68989285D01*
X152495238Y-68953571D01*
X152519047Y-68917857D01*
X152542857Y-68846428D01*
X152542857Y-68667857D01*
X152519047Y-68596428D01*
X152495238Y-68560714D01*
X152447619Y-68525000D01*
X152352380Y-68525000D01*
X152304761Y-68560714D01*
X152280952Y-68596428D01*
X152257142Y-68667857D01*
X167197619Y-68621928D02*
X167269047Y-68657642D01*
X167292857Y-68693357D01*
X167316666Y-68764785D01*
X167316666Y-68871928D01*
X167292857Y-68943357D01*
X167269047Y-68979071D01*
X167221428Y-69014785D01*
X167030952Y-69014785D01*
X167030952Y-68264785D01*
X167197619Y-68264785D01*
X167245238Y-68300500D01*
X167269047Y-68336214D01*
X167292857Y-68407642D01*
X167292857Y-68479071D01*
X167269047Y-68550500D01*
X167245238Y-68586214D01*
X167197619Y-68621928D01*
X167030952Y-68621928D01*
X167769047Y-68264785D02*
X167530952Y-68264785D01*
X167507142Y-68621928D01*
X167530952Y-68586214D01*
X167578571Y-68550500D01*
X167697619Y-68550500D01*
X167745238Y-68586214D01*
X167769047Y-68621928D01*
X167792857Y-68693357D01*
X167792857Y-68871928D01*
X167769047Y-68943357D01*
X167745238Y-68979071D01*
X167697619Y-69014785D01*
X167578571Y-69014785D01*
X167530952Y-68979071D01*
X167507142Y-68943357D01*
X167197619Y-66018428D02*
X167269047Y-66054142D01*
X167292857Y-66089857D01*
X167316666Y-66161285D01*
X167316666Y-66268428D01*
X167292857Y-66339857D01*
X167269047Y-66375571D01*
X167221428Y-66411285D01*
X167030952Y-66411285D01*
X167030952Y-65661285D01*
X167197619Y-65661285D01*
X167245238Y-65697000D01*
X167269047Y-65732714D01*
X167292857Y-65804142D01*
X167292857Y-65875571D01*
X167269047Y-65947000D01*
X167245238Y-65982714D01*
X167197619Y-66018428D01*
X167030952Y-66018428D01*
X167745238Y-65911285D02*
X167745238Y-66411285D01*
X167626190Y-65625571D02*
X167507142Y-66161285D01*
X167816666Y-66161285D01*
X152047619Y-66046428D02*
X152119047Y-66082142D01*
X152142857Y-66117857D01*
X152166666Y-66189285D01*
X152166666Y-66296428D01*
X152142857Y-66367857D01*
X152119047Y-66403571D01*
X152071428Y-66439285D01*
X151880952Y-66439285D01*
X151880952Y-65689285D01*
X152047619Y-65689285D01*
X152095238Y-65725000D01*
X152119047Y-65760714D01*
X152142857Y-65832142D01*
X152142857Y-65903571D01*
X152119047Y-65975000D01*
X152095238Y-66010714D01*
X152047619Y-66046428D01*
X151880952Y-66046428D01*
X152357142Y-65760714D02*
X152380952Y-65725000D01*
X152428571Y-65689285D01*
X152547619Y-65689285D01*
X152595238Y-65725000D01*
X152619047Y-65760714D01*
X152642857Y-65832142D01*
X152642857Y-65903571D01*
X152619047Y-66010714D01*
X152333333Y-66439285D01*
X152642857Y-66439285D01*
X166769047Y-63934785D02*
X166602380Y-63577642D01*
X166483333Y-63934785D02*
X166483333Y-63184785D01*
X166673809Y-63184785D01*
X166721428Y-63220500D01*
X166745238Y-63256214D01*
X166769047Y-63327642D01*
X166769047Y-63434785D01*
X166745238Y-63506214D01*
X166721428Y-63541928D01*
X166673809Y-63577642D01*
X166483333Y-63577642D01*
X167078571Y-63184785D02*
X167173809Y-63184785D01*
X167221428Y-63220500D01*
X167269047Y-63291928D01*
X167292857Y-63434785D01*
X167292857Y-63684785D01*
X167269047Y-63827642D01*
X167221428Y-63899071D01*
X167173809Y-63934785D01*
X167078571Y-63934785D01*
X167030952Y-63899071D01*
X166983333Y-63827642D01*
X166959523Y-63684785D01*
X166959523Y-63434785D01*
X166983333Y-63291928D01*
X167030952Y-63220500D01*
X167078571Y-63184785D01*
X167459523Y-63184785D02*
X167578571Y-63934785D01*
X167673809Y-63399071D01*
X167769047Y-63934785D01*
X167888095Y-63184785D01*
X168030952Y-63184785D02*
X168340476Y-63184785D01*
X168173809Y-63470500D01*
X168245238Y-63470500D01*
X168292857Y-63506214D01*
X168316666Y-63541928D01*
X168340476Y-63613357D01*
X168340476Y-63791928D01*
X168316666Y-63863357D01*
X168292857Y-63899071D01*
X168245238Y-63934785D01*
X168102380Y-63934785D01*
X168054761Y-63899071D01*
X168030952Y-63863357D01*
X151702380Y-63863357D02*
X151678571Y-63899071D01*
X151607142Y-63934785D01*
X151559523Y-63934785D01*
X151488095Y-63899071D01*
X151440476Y-63827642D01*
X151416666Y-63756214D01*
X151392857Y-63613357D01*
X151392857Y-63506214D01*
X151416666Y-63363357D01*
X151440476Y-63291928D01*
X151488095Y-63220500D01*
X151559523Y-63184785D01*
X151607142Y-63184785D01*
X151678571Y-63220500D01*
X151702380Y-63256214D01*
X152011904Y-63184785D02*
X152107142Y-63184785D01*
X152154761Y-63220500D01*
X152202380Y-63291928D01*
X152226190Y-63434785D01*
X152226190Y-63684785D01*
X152202380Y-63827642D01*
X152154761Y-63899071D01*
X152107142Y-63934785D01*
X152011904Y-63934785D01*
X151964285Y-63899071D01*
X151916666Y-63827642D01*
X151892857Y-63684785D01*
X151892857Y-63434785D01*
X151916666Y-63291928D01*
X151964285Y-63220500D01*
X152011904Y-63184785D01*
X152678571Y-63934785D02*
X152440476Y-63934785D01*
X152440476Y-63184785D01*
X153083333Y-63184785D02*
X152845238Y-63184785D01*
X152821428Y-63541928D01*
X152845238Y-63506214D01*
X152892857Y-63470500D01*
X153011904Y-63470500D01*
X153059523Y-63506214D01*
X153083333Y-63541928D01*
X153107142Y-63613357D01*
X153107142Y-63791928D01*
X153083333Y-63863357D01*
X153059523Y-63899071D01*
X153011904Y-63934785D01*
X152892857Y-63934785D01*
X152845238Y-63899071D01*
X152821428Y-63863357D01*
X166769047Y-61339285D02*
X166602380Y-60982142D01*
X166483333Y-61339285D02*
X166483333Y-60589285D01*
X166673809Y-60589285D01*
X166721428Y-60625000D01*
X166745238Y-60660714D01*
X166769047Y-60732142D01*
X166769047Y-60839285D01*
X166745238Y-60910714D01*
X166721428Y-60946428D01*
X166673809Y-60982142D01*
X166483333Y-60982142D01*
X167078571Y-60589285D02*
X167173809Y-60589285D01*
X167221428Y-60625000D01*
X167269047Y-60696428D01*
X167292857Y-60839285D01*
X167292857Y-61089285D01*
X167269047Y-61232142D01*
X167221428Y-61303571D01*
X167173809Y-61339285D01*
X167078571Y-61339285D01*
X167030952Y-61303571D01*
X166983333Y-61232142D01*
X166959523Y-61089285D01*
X166959523Y-60839285D01*
X166983333Y-60696428D01*
X167030952Y-60625000D01*
X167078571Y-60589285D01*
X167459523Y-60589285D02*
X167578571Y-61339285D01*
X167673809Y-60803571D01*
X167769047Y-61339285D01*
X167888095Y-60589285D01*
X168054761Y-60660714D02*
X168078571Y-60625000D01*
X168126190Y-60589285D01*
X168245238Y-60589285D01*
X168292857Y-60625000D01*
X168316666Y-60660714D01*
X168340476Y-60732142D01*
X168340476Y-60803571D01*
X168316666Y-60910714D01*
X168030952Y-61339285D01*
X168340476Y-61339285D01*
X151702380Y-61267857D02*
X151678571Y-61303571D01*
X151607142Y-61339285D01*
X151559523Y-61339285D01*
X151488095Y-61303571D01*
X151440476Y-61232142D01*
X151416666Y-61160714D01*
X151392857Y-61017857D01*
X151392857Y-60910714D01*
X151416666Y-60767857D01*
X151440476Y-60696428D01*
X151488095Y-60625000D01*
X151559523Y-60589285D01*
X151607142Y-60589285D01*
X151678571Y-60625000D01*
X151702380Y-60660714D01*
X152011904Y-60589285D02*
X152107142Y-60589285D01*
X152154761Y-60625000D01*
X152202380Y-60696428D01*
X152226190Y-60839285D01*
X152226190Y-61089285D01*
X152202380Y-61232142D01*
X152154761Y-61303571D01*
X152107142Y-61339285D01*
X152011904Y-61339285D01*
X151964285Y-61303571D01*
X151916666Y-61232142D01*
X151892857Y-61089285D01*
X151892857Y-60839285D01*
X151916666Y-60696428D01*
X151964285Y-60625000D01*
X152011904Y-60589285D01*
X152678571Y-61339285D02*
X152440476Y-61339285D01*
X152440476Y-60589285D01*
X153059523Y-60839285D02*
X153059523Y-61339285D01*
X152940476Y-60553571D02*
X152821428Y-61089285D01*
X153130952Y-61089285D01*
X166819047Y-58791285D02*
X166652380Y-58434142D01*
X166533333Y-58791285D02*
X166533333Y-58041285D01*
X166723809Y-58041285D01*
X166771428Y-58077000D01*
X166795238Y-58112714D01*
X166819047Y-58184142D01*
X166819047Y-58291285D01*
X166795238Y-58362714D01*
X166771428Y-58398428D01*
X166723809Y-58434142D01*
X166533333Y-58434142D01*
X167128571Y-58041285D02*
X167223809Y-58041285D01*
X167271428Y-58077000D01*
X167319047Y-58148428D01*
X167342857Y-58291285D01*
X167342857Y-58541285D01*
X167319047Y-58684142D01*
X167271428Y-58755571D01*
X167223809Y-58791285D01*
X167128571Y-58791285D01*
X167080952Y-58755571D01*
X167033333Y-58684142D01*
X167009523Y-58541285D01*
X167009523Y-58291285D01*
X167033333Y-58148428D01*
X167080952Y-58077000D01*
X167128571Y-58041285D01*
X167509523Y-58041285D02*
X167628571Y-58791285D01*
X167723809Y-58255571D01*
X167819047Y-58791285D01*
X167938095Y-58041285D01*
X168390476Y-58791285D02*
X168104761Y-58791285D01*
X168247619Y-58791285D02*
X168247619Y-58041285D01*
X168200000Y-58148428D01*
X168152380Y-58219857D01*
X168104761Y-58255571D01*
%TD*%
M02*
