%TF.GenerationSoftware,KiCad,Pcbnew,(5.1.6-0-10_14)*%
%TF.CreationDate,2020-07-07T23:00:58+09:00*%
%TF.ProjectId,corne-cherry,636f726e-652d-4636-9865-7272792e6b69,rev?*%
%TF.SameCoordinates,Original*%
%TF.FileFunction,Legend,Bot*%
%TF.FilePolarity,Positive*%
%FSLAX46Y46*%
G04 Gerber Fmt 4.6, Leading zero omitted, Abs format (unit mm)*
G04 Created by KiCad (PCBNEW (5.1.6-0-10_14)) date 2020-07-07 23:00:58*
%MOMM*%
%LPD*%
G01*
G04 APERTURE LIST*
%ADD10C,0.300000*%
%ADD11C,0.150000*%
%ADD12C,0.125000*%
G04 APERTURE END LIST*
D10*
X96285714Y-95478571D02*
X95714285Y-95478571D01*
X96071428Y-94978571D02*
X96071428Y-96264285D01*
X96000000Y-96407142D01*
X95857142Y-96478571D01*
X95714285Y-96478571D01*
X95214285Y-96478571D02*
X95214285Y-94978571D01*
X94571428Y-96478571D02*
X94571428Y-95692857D01*
X94642857Y-95550000D01*
X94785714Y-95478571D01*
X95000000Y-95478571D01*
X95142857Y-95550000D01*
X95214285Y-95621428D01*
X93214285Y-96478571D02*
X93214285Y-95692857D01*
X93285714Y-95550000D01*
X93428571Y-95478571D01*
X93714285Y-95478571D01*
X93857142Y-95550000D01*
X93214285Y-96407142D02*
X93357142Y-96478571D01*
X93714285Y-96478571D01*
X93857142Y-96407142D01*
X93928571Y-96264285D01*
X93928571Y-96121428D01*
X93857142Y-95978571D01*
X93714285Y-95907142D01*
X93357142Y-95907142D01*
X93214285Y-95835714D01*
X92500000Y-95478571D02*
X92500000Y-96478571D01*
X92500000Y-95621428D02*
X92428571Y-95550000D01*
X92285714Y-95478571D01*
X92071428Y-95478571D01*
X91928571Y-95550000D01*
X91857142Y-95692857D01*
X91857142Y-96478571D01*
X91142857Y-96478571D02*
X91142857Y-94978571D01*
X91000000Y-95907142D02*
X90571428Y-96478571D01*
X90571428Y-95478571D02*
X91142857Y-96050000D01*
X90000000Y-96407142D02*
X89857142Y-96478571D01*
X89571428Y-96478571D01*
X89428571Y-96407142D01*
X89357142Y-96264285D01*
X89357142Y-96192857D01*
X89428571Y-96050000D01*
X89571428Y-95978571D01*
X89785714Y-95978571D01*
X89928571Y-95907142D01*
X90000000Y-95764285D01*
X90000000Y-95692857D01*
X89928571Y-95550000D01*
X89785714Y-95478571D01*
X89571428Y-95478571D01*
X89428571Y-95550000D01*
X87785714Y-95478571D02*
X87214285Y-95478571D01*
X87571428Y-96478571D02*
X87571428Y-95192857D01*
X87500000Y-95050000D01*
X87357142Y-94978571D01*
X87214285Y-94978571D01*
X86500000Y-96478571D02*
X86642857Y-96407142D01*
X86714285Y-96335714D01*
X86785714Y-96192857D01*
X86785714Y-95764285D01*
X86714285Y-95621428D01*
X86642857Y-95550000D01*
X86500000Y-95478571D01*
X86285714Y-95478571D01*
X86142857Y-95550000D01*
X86071428Y-95621428D01*
X86000000Y-95764285D01*
X86000000Y-96192857D01*
X86071428Y-96335714D01*
X86142857Y-96407142D01*
X86285714Y-96478571D01*
X86500000Y-96478571D01*
X85142857Y-96478571D02*
X85285714Y-96407142D01*
X85357142Y-96335714D01*
X85428571Y-96192857D01*
X85428571Y-95764285D01*
X85357142Y-95621428D01*
X85285714Y-95550000D01*
X85142857Y-95478571D01*
X84928571Y-95478571D01*
X84785714Y-95550000D01*
X84714285Y-95621428D01*
X84642857Y-95764285D01*
X84642857Y-96192857D01*
X84714285Y-96335714D01*
X84785714Y-96407142D01*
X84928571Y-96478571D01*
X85142857Y-96478571D01*
X84071428Y-96407142D02*
X83928571Y-96478571D01*
X83642857Y-96478571D01*
X83500000Y-96407142D01*
X83428571Y-96264285D01*
X83428571Y-96192857D01*
X83500000Y-96050000D01*
X83642857Y-95978571D01*
X83857142Y-95978571D01*
X84000000Y-95907142D01*
X84071428Y-95764285D01*
X84071428Y-95692857D01*
X84000000Y-95550000D01*
X83857142Y-95478571D01*
X83642857Y-95478571D01*
X83500000Y-95550000D01*
X83000000Y-95478571D02*
X82428571Y-95478571D01*
X82785714Y-94978571D02*
X82785714Y-96264285D01*
X82714285Y-96407142D01*
X82571428Y-96478571D01*
X82428571Y-96478571D01*
X81285714Y-96478571D02*
X81285714Y-95692857D01*
X81357142Y-95550000D01*
X81500000Y-95478571D01*
X81785714Y-95478571D01*
X81928571Y-95550000D01*
X81285714Y-96407142D02*
X81428571Y-96478571D01*
X81785714Y-96478571D01*
X81928571Y-96407142D01*
X82000000Y-96264285D01*
X82000000Y-96121428D01*
X81928571Y-95978571D01*
X81785714Y-95907142D01*
X81428571Y-95907142D01*
X81285714Y-95835714D01*
X80571428Y-95478571D02*
X80571428Y-96478571D01*
X80571428Y-95621428D02*
X80500000Y-95550000D01*
X80357142Y-95478571D01*
X80142857Y-95478571D01*
X80000000Y-95550000D01*
X79928571Y-95692857D01*
X79928571Y-96478571D01*
D11*
%TO.C,SW9*%
X78300000Y-59304000D02*
X81910000Y-59304000D01*
X78300000Y-55350000D02*
X78300000Y-59295000D01*
X89200000Y-53396000D02*
X80575000Y-53396000D01*
X89200000Y-57304000D02*
X89200000Y-53396000D01*
X89200000Y-57350000D02*
X84150000Y-57396000D01*
X86675000Y-68425000D02*
X82125000Y-68425000D01*
X86675000Y-63775000D02*
X84125000Y-63775000D01*
X81825000Y-61575000D02*
X77125000Y-61575000D01*
X80900000Y-66225000D02*
X77125000Y-66225000D01*
X86700000Y-63800000D02*
X86700000Y-68400000D01*
X77125000Y-61600000D02*
X77100000Y-66200000D01*
X82120000Y-67700000D02*
X82120000Y-68400000D01*
X78311000Y-55280000D02*
G75*
G02*
X80575000Y-53396000I2074000J-190000D01*
G01*
X81915000Y-59280000D02*
G75*
G02*
X84175000Y-57400000I2070000J-190000D01*
G01*
X81830000Y-61600000D02*
G75*
G03*
X84200000Y-63770000I2270000J100000D01*
G01*
X82120000Y-67650000D02*
G75*
G03*
X80900000Y-66230000I-1320000J100000D01*
G01*
%TO.C,J1*%
X159200000Y-81000000D02*
X171200000Y-81000000D01*
X159200000Y-87000000D02*
X159200000Y-81000000D01*
X171200000Y-87000000D02*
X159200000Y-87000000D01*
X171200000Y-81000000D02*
X171200000Y-87000000D01*
%TO.C,J2*%
X156230000Y-72280000D02*
X166390000Y-72280000D01*
X166390000Y-72280000D02*
X166390000Y-74820000D01*
X166390000Y-74820000D02*
X156230000Y-74820000D01*
X156230000Y-74820000D02*
X156230000Y-72280000D01*
%TO.C,JP2*%
X165989000Y-69607000D02*
X164211000Y-69607000D01*
X165989000Y-71893000D02*
X165989000Y-69607000D01*
X164211000Y-71893000D02*
X165989000Y-71893000D01*
X164211000Y-69607000D02*
X164211000Y-71893000D01*
%TO.C,JP3*%
X161711000Y-69607000D02*
X161711000Y-71893000D01*
X161711000Y-71893000D02*
X163489000Y-71893000D01*
X163489000Y-71893000D02*
X163489000Y-69607000D01*
X163489000Y-69607000D02*
X161711000Y-69607000D01*
%TO.C,JP4*%
X160989000Y-69607000D02*
X159211000Y-69607000D01*
X160989000Y-71893000D02*
X160989000Y-69607000D01*
X159211000Y-71893000D02*
X160989000Y-71893000D01*
X159211000Y-69607000D02*
X159211000Y-71893000D01*
%TO.C,JP5*%
X156611000Y-69607000D02*
X156611000Y-71893000D01*
X156611000Y-71893000D02*
X158389000Y-71893000D01*
X158389000Y-71893000D02*
X158389000Y-69607000D01*
X158389000Y-69607000D02*
X156611000Y-69607000D01*
D10*
%TO.C,L22*%
X68730000Y-58000000D02*
X68730000Y-59450000D01*
X66280000Y-58000000D02*
X68700000Y-58000000D01*
X66280000Y-59450000D02*
X66280000Y-58000000D01*
X68730000Y-59450000D02*
X66280000Y-59450000D01*
%TO.C,L23*%
X106930000Y-50100000D02*
X104480000Y-50100000D01*
X104480000Y-50100000D02*
X104480000Y-48650000D01*
X104480000Y-48650000D02*
X106900000Y-48650000D01*
X106930000Y-48650000D02*
X106930000Y-50100000D01*
%TO.C,L24*%
X144730000Y-53300000D02*
X144730000Y-54750000D01*
X142280000Y-53300000D02*
X144700000Y-53300000D01*
X142280000Y-54750000D02*
X142280000Y-53300000D01*
X144730000Y-54750000D02*
X142280000Y-54750000D01*
%TO.C,L25*%
X61670000Y-94075000D02*
X64120000Y-94075000D01*
X64120000Y-94075000D02*
X64120000Y-95525000D01*
X64120000Y-95525000D02*
X61700000Y-95525000D01*
X61670000Y-95525000D02*
X61670000Y-94075000D01*
%TO.C,L26*%
X96230000Y-87475000D02*
X96230000Y-88925000D01*
X93780000Y-87475000D02*
X96200000Y-87475000D01*
X93780000Y-88925000D02*
X93780000Y-87475000D01*
X96230000Y-88925000D02*
X93780000Y-88925000D01*
%TO.C,L27*%
X139399015Y-94983231D02*
X137032497Y-94349124D01*
X137032497Y-94349124D02*
X137407784Y-92948532D01*
X137407784Y-92948532D02*
X139745325Y-93574874D01*
X139774303Y-93582638D02*
X139399015Y-94983231D01*
D11*
%TO.C,P1*%
X156200000Y-77150000D02*
X156200000Y-75150000D01*
X156200000Y-75150000D02*
X158200000Y-75150000D01*
X158200000Y-75150000D02*
X158200000Y-77150000D01*
X158200000Y-77150000D02*
X156200000Y-77150000D01*
%TO.C,P2*%
X158200000Y-79550000D02*
X156200000Y-79550000D01*
X158200000Y-77550000D02*
X158200000Y-79550000D01*
X156200000Y-77550000D02*
X158200000Y-77550000D01*
X156200000Y-79550000D02*
X156200000Y-77550000D01*
%TO.C,R1*%
X161900000Y-77150000D02*
X161900000Y-75150000D01*
X164900000Y-77150000D02*
X161900000Y-77150000D01*
X164900000Y-75150000D02*
X164900000Y-77150000D01*
X161900000Y-75150000D02*
X164900000Y-75150000D01*
%TO.C,R2*%
X161900000Y-77650000D02*
X164900000Y-77650000D01*
X164900000Y-77650000D02*
X164900000Y-79650000D01*
X164900000Y-79650000D02*
X161900000Y-79650000D01*
X161900000Y-79650000D02*
X161900000Y-77650000D01*
%TO.C,RSW1*%
X170500000Y-73150000D02*
X170750000Y-73150000D01*
X170750000Y-73150000D02*
X170750000Y-79150000D01*
X170750000Y-79150000D02*
X170500000Y-79150000D01*
X167500000Y-79150000D02*
X167250000Y-79150000D01*
X167250000Y-79150000D02*
X167250000Y-73150000D01*
X167250000Y-73150000D02*
X167500000Y-73150000D01*
%TO.C,SW1*%
X40300000Y-46954000D02*
X43910000Y-46954000D01*
X40300000Y-43000000D02*
X40300000Y-46945000D01*
X51200000Y-41046000D02*
X42575000Y-41046000D01*
X51200000Y-44954000D02*
X51200000Y-41046000D01*
X51200000Y-45000000D02*
X46150000Y-45046000D01*
X48675000Y-56075000D02*
X44125000Y-56075000D01*
X48675000Y-51425000D02*
X46125000Y-51425000D01*
X43825000Y-49225000D02*
X39125000Y-49225000D01*
X42900000Y-53875000D02*
X39125000Y-53875000D01*
X48700000Y-51450000D02*
X48700000Y-56050000D01*
X39125000Y-49250000D02*
X39100000Y-53850000D01*
X44120000Y-55350000D02*
X44120000Y-56050000D01*
X40311000Y-42930000D02*
G75*
G02*
X42575000Y-41046000I2074000J-190000D01*
G01*
X43915000Y-46930000D02*
G75*
G02*
X46175000Y-45050000I2070000J-190000D01*
G01*
X43830000Y-49250000D02*
G75*
G03*
X46200000Y-51420000I2270000J100000D01*
G01*
X44120000Y-55300000D02*
G75*
G03*
X42900000Y-53880000I-1320000J100000D01*
G01*
%TO.C,SW2*%
X63170000Y-55350000D02*
X63170000Y-56050000D01*
X58175000Y-49250000D02*
X58150000Y-53850000D01*
X67750000Y-51450000D02*
X67750000Y-56050000D01*
X61950000Y-53875000D02*
X58175000Y-53875000D01*
X62875000Y-49225000D02*
X58175000Y-49225000D01*
X67725000Y-51425000D02*
X65175000Y-51425000D01*
X67725000Y-56075000D02*
X63175000Y-56075000D01*
X70250000Y-45000000D02*
X65200000Y-45046000D01*
X70250000Y-44954000D02*
X70250000Y-41046000D01*
X70250000Y-41046000D02*
X61625000Y-41046000D01*
X59350000Y-43000000D02*
X59350000Y-46945000D01*
X59350000Y-46954000D02*
X62960000Y-46954000D01*
X63170000Y-55300000D02*
G75*
G03*
X61950000Y-53880000I-1320000J100000D01*
G01*
X62880000Y-49250000D02*
G75*
G03*
X65250000Y-51420000I2270000J100000D01*
G01*
X62965000Y-46930000D02*
G75*
G02*
X65225000Y-45050000I2070000J-190000D01*
G01*
X59361000Y-42930000D02*
G75*
G02*
X61625000Y-41046000I2074000J-190000D01*
G01*
%TO.C,SW3*%
X78300000Y-40254000D02*
X81910000Y-40254000D01*
X78300000Y-36300000D02*
X78300000Y-40245000D01*
X89200000Y-34346000D02*
X80575000Y-34346000D01*
X89200000Y-38254000D02*
X89200000Y-34346000D01*
X89200000Y-38300000D02*
X84150000Y-38346000D01*
X86675000Y-49375000D02*
X82125000Y-49375000D01*
X86675000Y-44725000D02*
X84125000Y-44725000D01*
X81825000Y-42525000D02*
X77125000Y-42525000D01*
X80900000Y-47175000D02*
X77125000Y-47175000D01*
X86700000Y-44750000D02*
X86700000Y-49350000D01*
X77125000Y-42550000D02*
X77100000Y-47150000D01*
X82120000Y-48650000D02*
X82120000Y-49350000D01*
X78311000Y-36230000D02*
G75*
G02*
X80575000Y-34346000I2074000J-190000D01*
G01*
X81915000Y-40230000D02*
G75*
G02*
X84175000Y-38350000I2070000J-190000D01*
G01*
X81830000Y-42550000D02*
G75*
G03*
X84200000Y-44720000I2270000J100000D01*
G01*
X82120000Y-48600000D02*
G75*
G03*
X80900000Y-47180000I-1320000J100000D01*
G01*
%TO.C,SW4*%
X101170000Y-46250000D02*
X101170000Y-46950000D01*
X96175000Y-40150000D02*
X96150000Y-44750000D01*
X105750000Y-42350000D02*
X105750000Y-46950000D01*
X99950000Y-44775000D02*
X96175000Y-44775000D01*
X100875000Y-40125000D02*
X96175000Y-40125000D01*
X105725000Y-42325000D02*
X103175000Y-42325000D01*
X105725000Y-46975000D02*
X101175000Y-46975000D01*
X108250000Y-35900000D02*
X103200000Y-35946000D01*
X108250000Y-35854000D02*
X108250000Y-31946000D01*
X108250000Y-31946000D02*
X99625000Y-31946000D01*
X97350000Y-33900000D02*
X97350000Y-37845000D01*
X97350000Y-37854000D02*
X100960000Y-37854000D01*
X101170000Y-46200000D02*
G75*
G03*
X99950000Y-44780000I-1320000J100000D01*
G01*
X100880000Y-40150000D02*
G75*
G03*
X103250000Y-42320000I2270000J100000D01*
G01*
X100965000Y-37830000D02*
G75*
G02*
X103225000Y-35950000I2070000J-190000D01*
G01*
X97361000Y-33830000D02*
G75*
G02*
X99625000Y-31946000I2074000J-190000D01*
G01*
%TO.C,SW5*%
X116300000Y-40254000D02*
X119910000Y-40254000D01*
X116300000Y-36300000D02*
X116300000Y-40245000D01*
X127200000Y-34346000D02*
X118575000Y-34346000D01*
X127200000Y-38254000D02*
X127200000Y-34346000D01*
X127200000Y-38300000D02*
X122150000Y-38346000D01*
X124675000Y-49375000D02*
X120125000Y-49375000D01*
X124675000Y-44725000D02*
X122125000Y-44725000D01*
X119825000Y-42525000D02*
X115125000Y-42525000D01*
X118900000Y-47175000D02*
X115125000Y-47175000D01*
X124700000Y-44750000D02*
X124700000Y-49350000D01*
X115125000Y-42550000D02*
X115100000Y-47150000D01*
X120120000Y-48650000D02*
X120120000Y-49350000D01*
X116311000Y-36230000D02*
G75*
G02*
X118575000Y-34346000I2074000J-190000D01*
G01*
X119915000Y-40230000D02*
G75*
G02*
X122175000Y-38350000I2070000J-190000D01*
G01*
X119830000Y-42550000D02*
G75*
G03*
X122200000Y-44720000I2270000J100000D01*
G01*
X120120000Y-48600000D02*
G75*
G03*
X118900000Y-47180000I-1320000J100000D01*
G01*
%TO.C,SW6*%
X139170000Y-50950000D02*
X139170000Y-51650000D01*
X134175000Y-44850000D02*
X134150000Y-49450000D01*
X143750000Y-47050000D02*
X143750000Y-51650000D01*
X137950000Y-49475000D02*
X134175000Y-49475000D01*
X138875000Y-44825000D02*
X134175000Y-44825000D01*
X143725000Y-47025000D02*
X141175000Y-47025000D01*
X143725000Y-51675000D02*
X139175000Y-51675000D01*
X146250000Y-40600000D02*
X141200000Y-40646000D01*
X146250000Y-40554000D02*
X146250000Y-36646000D01*
X146250000Y-36646000D02*
X137625000Y-36646000D01*
X135350000Y-38600000D02*
X135350000Y-42545000D01*
X135350000Y-42554000D02*
X138960000Y-42554000D01*
X139170000Y-50900000D02*
G75*
G03*
X137950000Y-49480000I-1320000J100000D01*
G01*
X138880000Y-44850000D02*
G75*
G03*
X141250000Y-47020000I2270000J100000D01*
G01*
X138965000Y-42530000D02*
G75*
G02*
X141225000Y-40650000I2070000J-190000D01*
G01*
X135361000Y-38530000D02*
G75*
G02*
X137625000Y-36646000I2074000J-190000D01*
G01*
%TO.C,SW7*%
X40300000Y-66004000D02*
X43910000Y-66004000D01*
X40300000Y-62050000D02*
X40300000Y-65995000D01*
X51200000Y-60096000D02*
X42575000Y-60096000D01*
X51200000Y-64004000D02*
X51200000Y-60096000D01*
X51200000Y-64050000D02*
X46150000Y-64096000D01*
X48675000Y-75125000D02*
X44125000Y-75125000D01*
X48675000Y-70475000D02*
X46125000Y-70475000D01*
X43825000Y-68275000D02*
X39125000Y-68275000D01*
X42900000Y-72925000D02*
X39125000Y-72925000D01*
X48700000Y-70500000D02*
X48700000Y-75100000D01*
X39125000Y-68300000D02*
X39100000Y-72900000D01*
X44120000Y-74400000D02*
X44120000Y-75100000D01*
X40311000Y-61980000D02*
G75*
G02*
X42575000Y-60096000I2074000J-190000D01*
G01*
X43915000Y-65980000D02*
G75*
G02*
X46175000Y-64100000I2070000J-190000D01*
G01*
X43830000Y-68300000D02*
G75*
G03*
X46200000Y-70470000I2270000J100000D01*
G01*
X44120000Y-74350000D02*
G75*
G03*
X42900000Y-72930000I-1320000J100000D01*
G01*
%TO.C,SW8*%
X63170000Y-74400000D02*
X63170000Y-75100000D01*
X58175000Y-68300000D02*
X58150000Y-72900000D01*
X67750000Y-70500000D02*
X67750000Y-75100000D01*
X61950000Y-72925000D02*
X58175000Y-72925000D01*
X62875000Y-68275000D02*
X58175000Y-68275000D01*
X67725000Y-70475000D02*
X65175000Y-70475000D01*
X67725000Y-75125000D02*
X63175000Y-75125000D01*
X70250000Y-64050000D02*
X65200000Y-64096000D01*
X70250000Y-64004000D02*
X70250000Y-60096000D01*
X70250000Y-60096000D02*
X61625000Y-60096000D01*
X59350000Y-62050000D02*
X59350000Y-65995000D01*
X59350000Y-66004000D02*
X62960000Y-66004000D01*
X63170000Y-74350000D02*
G75*
G03*
X61950000Y-72930000I-1320000J100000D01*
G01*
X62880000Y-68300000D02*
G75*
G03*
X65250000Y-70470000I2270000J100000D01*
G01*
X62965000Y-65980000D02*
G75*
G02*
X65225000Y-64100000I2070000J-190000D01*
G01*
X59361000Y-61980000D02*
G75*
G02*
X61625000Y-60096000I2074000J-190000D01*
G01*
%TO.C,SW10*%
X101170000Y-65300000D02*
X101170000Y-66000000D01*
X96175000Y-59200000D02*
X96150000Y-63800000D01*
X105750000Y-61400000D02*
X105750000Y-66000000D01*
X99950000Y-63825000D02*
X96175000Y-63825000D01*
X100875000Y-59175000D02*
X96175000Y-59175000D01*
X105725000Y-61375000D02*
X103175000Y-61375000D01*
X105725000Y-66025000D02*
X101175000Y-66025000D01*
X108250000Y-54950000D02*
X103200000Y-54996000D01*
X108250000Y-54904000D02*
X108250000Y-50996000D01*
X108250000Y-50996000D02*
X99625000Y-50996000D01*
X97350000Y-52950000D02*
X97350000Y-56895000D01*
X97350000Y-56904000D02*
X100960000Y-56904000D01*
X101170000Y-65250000D02*
G75*
G03*
X99950000Y-63830000I-1320000J100000D01*
G01*
X100880000Y-59200000D02*
G75*
G03*
X103250000Y-61370000I2270000J100000D01*
G01*
X100965000Y-56880000D02*
G75*
G02*
X103225000Y-55000000I2070000J-190000D01*
G01*
X97361000Y-52880000D02*
G75*
G02*
X99625000Y-50996000I2074000J-190000D01*
G01*
%TO.C,SW11*%
X116300000Y-59304000D02*
X119910000Y-59304000D01*
X116300000Y-55350000D02*
X116300000Y-59295000D01*
X127200000Y-53396000D02*
X118575000Y-53396000D01*
X127200000Y-57304000D02*
X127200000Y-53396000D01*
X127200000Y-57350000D02*
X122150000Y-57396000D01*
X124675000Y-68425000D02*
X120125000Y-68425000D01*
X124675000Y-63775000D02*
X122125000Y-63775000D01*
X119825000Y-61575000D02*
X115125000Y-61575000D01*
X118900000Y-66225000D02*
X115125000Y-66225000D01*
X124700000Y-63800000D02*
X124700000Y-68400000D01*
X115125000Y-61600000D02*
X115100000Y-66200000D01*
X120120000Y-67700000D02*
X120120000Y-68400000D01*
X116311000Y-55280000D02*
G75*
G02*
X118575000Y-53396000I2074000J-190000D01*
G01*
X119915000Y-59280000D02*
G75*
G02*
X122175000Y-57400000I2070000J-190000D01*
G01*
X119830000Y-61600000D02*
G75*
G03*
X122200000Y-63770000I2270000J100000D01*
G01*
X120120000Y-67650000D02*
G75*
G03*
X118900000Y-66230000I-1320000J100000D01*
G01*
%TO.C,SW12*%
X139170000Y-70000000D02*
X139170000Y-70700000D01*
X134175000Y-63900000D02*
X134150000Y-68500000D01*
X143750000Y-66100000D02*
X143750000Y-70700000D01*
X137950000Y-68525000D02*
X134175000Y-68525000D01*
X138875000Y-63875000D02*
X134175000Y-63875000D01*
X143725000Y-66075000D02*
X141175000Y-66075000D01*
X143725000Y-70725000D02*
X139175000Y-70725000D01*
X146250000Y-59650000D02*
X141200000Y-59696000D01*
X146250000Y-59604000D02*
X146250000Y-55696000D01*
X146250000Y-55696000D02*
X137625000Y-55696000D01*
X135350000Y-57650000D02*
X135350000Y-61595000D01*
X135350000Y-61604000D02*
X138960000Y-61604000D01*
X139170000Y-69950000D02*
G75*
G03*
X137950000Y-68530000I-1320000J100000D01*
G01*
X138880000Y-63900000D02*
G75*
G03*
X141250000Y-66070000I2270000J100000D01*
G01*
X138965000Y-61580000D02*
G75*
G02*
X141225000Y-59700000I2070000J-190000D01*
G01*
X135361000Y-57580000D02*
G75*
G02*
X137625000Y-55696000I2074000J-190000D01*
G01*
%TO.C,SW13*%
X40300000Y-85054000D02*
X43910000Y-85054000D01*
X40300000Y-81100000D02*
X40300000Y-85045000D01*
X51200000Y-79146000D02*
X42575000Y-79146000D01*
X51200000Y-83054000D02*
X51200000Y-79146000D01*
X51200000Y-83100000D02*
X46150000Y-83146000D01*
X48675000Y-94175000D02*
X44125000Y-94175000D01*
X48675000Y-89525000D02*
X46125000Y-89525000D01*
X43825000Y-87325000D02*
X39125000Y-87325000D01*
X42900000Y-91975000D02*
X39125000Y-91975000D01*
X48700000Y-89550000D02*
X48700000Y-94150000D01*
X39125000Y-87350000D02*
X39100000Y-91950000D01*
X44120000Y-93450000D02*
X44120000Y-94150000D01*
X40311000Y-81030000D02*
G75*
G02*
X42575000Y-79146000I2074000J-190000D01*
G01*
X43915000Y-85030000D02*
G75*
G02*
X46175000Y-83150000I2070000J-190000D01*
G01*
X43830000Y-87350000D02*
G75*
G03*
X46200000Y-89520000I2270000J100000D01*
G01*
X44120000Y-93400000D02*
G75*
G03*
X42900000Y-91980000I-1320000J100000D01*
G01*
%TO.C,SW14*%
X63170000Y-93450000D02*
X63170000Y-94150000D01*
X58175000Y-87350000D02*
X58150000Y-91950000D01*
X67750000Y-89550000D02*
X67750000Y-94150000D01*
X61950000Y-91975000D02*
X58175000Y-91975000D01*
X62875000Y-87325000D02*
X58175000Y-87325000D01*
X67725000Y-89525000D02*
X65175000Y-89525000D01*
X67725000Y-94175000D02*
X63175000Y-94175000D01*
X70250000Y-83100000D02*
X65200000Y-83146000D01*
X70250000Y-83054000D02*
X70250000Y-79146000D01*
X70250000Y-79146000D02*
X61625000Y-79146000D01*
X59350000Y-81100000D02*
X59350000Y-85045000D01*
X59350000Y-85054000D02*
X62960000Y-85054000D01*
X63170000Y-93400000D02*
G75*
G03*
X61950000Y-91980000I-1320000J100000D01*
G01*
X62880000Y-87350000D02*
G75*
G03*
X65250000Y-89520000I2270000J100000D01*
G01*
X62965000Y-85030000D02*
G75*
G02*
X65225000Y-83150000I2070000J-190000D01*
G01*
X59361000Y-81030000D02*
G75*
G02*
X61625000Y-79146000I2074000J-190000D01*
G01*
%TO.C,SW15*%
X78300000Y-78354000D02*
X81910000Y-78354000D01*
X78300000Y-74400000D02*
X78300000Y-78345000D01*
X89200000Y-72446000D02*
X80575000Y-72446000D01*
X89200000Y-76354000D02*
X89200000Y-72446000D01*
X89200000Y-76400000D02*
X84150000Y-76446000D01*
X86675000Y-87475000D02*
X82125000Y-87475000D01*
X86675000Y-82825000D02*
X84125000Y-82825000D01*
X81825000Y-80625000D02*
X77125000Y-80625000D01*
X80900000Y-85275000D02*
X77125000Y-85275000D01*
X86700000Y-82850000D02*
X86700000Y-87450000D01*
X77125000Y-80650000D02*
X77100000Y-85250000D01*
X82120000Y-86750000D02*
X82120000Y-87450000D01*
X78311000Y-74330000D02*
G75*
G02*
X80575000Y-72446000I2074000J-190000D01*
G01*
X81915000Y-78330000D02*
G75*
G02*
X84175000Y-76450000I2070000J-190000D01*
G01*
X81830000Y-80650000D02*
G75*
G03*
X84200000Y-82820000I2270000J100000D01*
G01*
X82120000Y-86700000D02*
G75*
G03*
X80900000Y-85280000I-1320000J100000D01*
G01*
%TO.C,SW16*%
X101170000Y-84350000D02*
X101170000Y-85050000D01*
X96175000Y-78250000D02*
X96150000Y-82850000D01*
X105750000Y-80450000D02*
X105750000Y-85050000D01*
X99950000Y-82875000D02*
X96175000Y-82875000D01*
X100875000Y-78225000D02*
X96175000Y-78225000D01*
X105725000Y-80425000D02*
X103175000Y-80425000D01*
X105725000Y-85075000D02*
X101175000Y-85075000D01*
X108250000Y-74000000D02*
X103200000Y-74046000D01*
X108250000Y-73954000D02*
X108250000Y-70046000D01*
X108250000Y-70046000D02*
X99625000Y-70046000D01*
X97350000Y-72000000D02*
X97350000Y-75945000D01*
X97350000Y-75954000D02*
X100960000Y-75954000D01*
X101170000Y-84300000D02*
G75*
G03*
X99950000Y-82880000I-1320000J100000D01*
G01*
X100880000Y-78250000D02*
G75*
G03*
X103250000Y-80420000I2270000J100000D01*
G01*
X100965000Y-75930000D02*
G75*
G02*
X103225000Y-74050000I2070000J-190000D01*
G01*
X97361000Y-71930000D02*
G75*
G02*
X99625000Y-70046000I2074000J-190000D01*
G01*
%TO.C,SW17*%
X116300000Y-78354000D02*
X119910000Y-78354000D01*
X116300000Y-74400000D02*
X116300000Y-78345000D01*
X127200000Y-72446000D02*
X118575000Y-72446000D01*
X127200000Y-76354000D02*
X127200000Y-72446000D01*
X127200000Y-76400000D02*
X122150000Y-76446000D01*
X124675000Y-87475000D02*
X120125000Y-87475000D01*
X124675000Y-82825000D02*
X122125000Y-82825000D01*
X119825000Y-80625000D02*
X115125000Y-80625000D01*
X118900000Y-85275000D02*
X115125000Y-85275000D01*
X124700000Y-82850000D02*
X124700000Y-87450000D01*
X115125000Y-80650000D02*
X115100000Y-85250000D01*
X120120000Y-86750000D02*
X120120000Y-87450000D01*
X116311000Y-74330000D02*
G75*
G02*
X118575000Y-72446000I2074000J-190000D01*
G01*
X119915000Y-78330000D02*
G75*
G02*
X122175000Y-76450000I2070000J-190000D01*
G01*
X119830000Y-80650000D02*
G75*
G03*
X122200000Y-82820000I2270000J100000D01*
G01*
X120120000Y-86700000D02*
G75*
G03*
X118900000Y-85280000I-1320000J100000D01*
G01*
%TO.C,SW18*%
X139170000Y-89050000D02*
X139170000Y-89750000D01*
X134175000Y-82950000D02*
X134150000Y-87550000D01*
X143750000Y-85150000D02*
X143750000Y-89750000D01*
X137950000Y-87575000D02*
X134175000Y-87575000D01*
X138875000Y-82925000D02*
X134175000Y-82925000D01*
X143725000Y-85125000D02*
X141175000Y-85125000D01*
X143725000Y-89775000D02*
X139175000Y-89775000D01*
X146250000Y-78700000D02*
X141200000Y-78746000D01*
X146250000Y-78654000D02*
X146250000Y-74746000D01*
X146250000Y-74746000D02*
X137625000Y-74746000D01*
X135350000Y-76700000D02*
X135350000Y-80645000D01*
X135350000Y-80654000D02*
X138960000Y-80654000D01*
X139170000Y-89000000D02*
G75*
G03*
X137950000Y-87580000I-1320000J100000D01*
G01*
X138880000Y-82950000D02*
G75*
G03*
X141250000Y-85120000I2270000J100000D01*
G01*
X138965000Y-80630000D02*
G75*
G02*
X141225000Y-78750000I2070000J-190000D01*
G01*
X135361000Y-76630000D02*
G75*
G02*
X137625000Y-74746000I2074000J-190000D01*
G01*
%TO.C,SW19*%
X40300000Y-104104000D02*
X43910000Y-104104000D01*
X40300000Y-100150000D02*
X40300000Y-104095000D01*
X51200000Y-98196000D02*
X42575000Y-98196000D01*
X51200000Y-102104000D02*
X51200000Y-98196000D01*
X51200000Y-102150000D02*
X46150000Y-102196000D01*
X48675000Y-113225000D02*
X44125000Y-113225000D01*
X48675000Y-108575000D02*
X46125000Y-108575000D01*
X43825000Y-106375000D02*
X39125000Y-106375000D01*
X42900000Y-111025000D02*
X39125000Y-111025000D01*
X48700000Y-108600000D02*
X48700000Y-113200000D01*
X39125000Y-106400000D02*
X39100000Y-111000000D01*
X44120000Y-112500000D02*
X44120000Y-113200000D01*
X40311000Y-100080000D02*
G75*
G02*
X42575000Y-98196000I2074000J-190000D01*
G01*
X43915000Y-104080000D02*
G75*
G02*
X46175000Y-102200000I2070000J-190000D01*
G01*
X43830000Y-106400000D02*
G75*
G03*
X46200000Y-108570000I2270000J100000D01*
G01*
X44120000Y-112450000D02*
G75*
G03*
X42900000Y-111030000I-1320000J100000D01*
G01*
%TO.C,SW20*%
X63170000Y-112500000D02*
X63170000Y-113200000D01*
X58175000Y-106400000D02*
X58150000Y-111000000D01*
X67750000Y-108600000D02*
X67750000Y-113200000D01*
X61950000Y-111025000D02*
X58175000Y-111025000D01*
X62875000Y-106375000D02*
X58175000Y-106375000D01*
X67725000Y-108575000D02*
X65175000Y-108575000D01*
X67725000Y-113225000D02*
X63175000Y-113225000D01*
X70250000Y-102150000D02*
X65200000Y-102196000D01*
X70250000Y-102104000D02*
X70250000Y-98196000D01*
X70250000Y-98196000D02*
X61625000Y-98196000D01*
X59350000Y-100150000D02*
X59350000Y-104095000D01*
X59350000Y-104104000D02*
X62960000Y-104104000D01*
X63170000Y-112450000D02*
G75*
G03*
X61950000Y-111030000I-1320000J100000D01*
G01*
X62880000Y-106400000D02*
G75*
G03*
X65250000Y-108570000I2270000J100000D01*
G01*
X62965000Y-104080000D02*
G75*
G02*
X65225000Y-102200000I2070000J-190000D01*
G01*
X59361000Y-100080000D02*
G75*
G02*
X61625000Y-98196000I2074000J-190000D01*
G01*
%TO.C,SW21*%
X106800000Y-97854000D02*
X110410000Y-97854000D01*
X106800000Y-93900000D02*
X106800000Y-97845000D01*
X117700000Y-91946000D02*
X109075000Y-91946000D01*
X117700000Y-95854000D02*
X117700000Y-91946000D01*
X117700000Y-95900000D02*
X112650000Y-95946000D01*
X115175000Y-106975000D02*
X110625000Y-106975000D01*
X115175000Y-102325000D02*
X112625000Y-102325000D01*
X110325000Y-100125000D02*
X105625000Y-100125000D01*
X109400000Y-104775000D02*
X105625000Y-104775000D01*
X115200000Y-102350000D02*
X115200000Y-106950000D01*
X105625000Y-100150000D02*
X105600000Y-104750000D01*
X110620000Y-106250000D02*
X110620000Y-106950000D01*
X106811000Y-93830000D02*
G75*
G02*
X109075000Y-91946000I2074000J-190000D01*
G01*
X110415000Y-97830000D02*
G75*
G02*
X112675000Y-95950000I2070000J-190000D01*
G01*
X110330000Y-100150000D02*
G75*
G03*
X112700000Y-102320000I2270000J100000D01*
G01*
X110620000Y-106200000D02*
G75*
G03*
X109400000Y-104780000I-1320000J100000D01*
G01*
%TO.C,SW22*%
X129788294Y-108153839D02*
X129607121Y-108829987D01*
X126542291Y-100968891D02*
X125327575Y-105405679D01*
X135221629Y-105572120D02*
X134031061Y-110015379D01*
X128991623Y-106413339D02*
X125345253Y-105436298D01*
X131088613Y-102161192D02*
X126548761Y-100944742D01*
X135203951Y-105541501D02*
X132740840Y-104881513D01*
X134000443Y-110033056D02*
X129605480Y-108855430D01*
X139305826Y-99988946D02*
X134415995Y-98726342D01*
X139317732Y-99944513D02*
X140329197Y-96169675D01*
X140329197Y-96169675D02*
X131998086Y-93937361D01*
X129294873Y-95235967D02*
X128273832Y-99046544D01*
X128271502Y-99055237D02*
X131758495Y-99989574D01*
X129801235Y-108105543D02*
G75*
G03*
X128990329Y-106418169I-1249140J438234D01*
G01*
X131086972Y-102186635D02*
G75*
G03*
X132814579Y-104896094I2218533J-490926D01*
G01*
X131769536Y-99967686D02*
G75*
G02*
X134439108Y-98736676I1950291J-719281D01*
G01*
X129323616Y-95171199D02*
G75*
G02*
X131998086Y-93937361I1954154J-720316D01*
G01*
%TO.C,SW23*%
X152274041Y-110084755D02*
X154079041Y-106958403D01*
X148849777Y-108107755D02*
X152266247Y-110080255D01*
X152607563Y-97691078D02*
X148295063Y-105160547D01*
X155991990Y-99645078D02*
X152607563Y-97691078D01*
X156031828Y-99668078D02*
X153546665Y-104064506D01*
X164360559Y-107392292D02*
X162085559Y-111332708D01*
X160333541Y-105067292D02*
X159058541Y-107275657D01*
X156003285Y-108167515D02*
X153653285Y-112237835D01*
X159567803Y-111293589D02*
X157680303Y-114562835D01*
X160367691Y-105058142D02*
X164351408Y-107358142D01*
X153674936Y-112250335D02*
X157646152Y-114571985D01*
X161455191Y-110974538D02*
X162061408Y-111324538D01*
X148794655Y-108063229D02*
G75*
G02*
X148295063Y-105160547I1201545J1701137D01*
G01*
X154060756Y-106942073D02*
G75*
G02*
X153562629Y-104044856I1199545J1697672D01*
G01*
X156027436Y-108175686D02*
G75*
G03*
X159091711Y-107208205I1048397J2015878D01*
G01*
X161411889Y-110949537D02*
G75*
G03*
X159572133Y-111296089I-746602J-1093154D01*
G01*
%TO.C,U1*%
X152040000Y-71152000D02*
X152040000Y-40672000D01*
X154580000Y-71152000D02*
X152040000Y-71152000D01*
X154580000Y-40672000D02*
X154580000Y-71152000D01*
X152040000Y-40672000D02*
X154580000Y-40672000D01*
X167280000Y-71152000D02*
X167280000Y-40672000D01*
X169820000Y-71152000D02*
X167280000Y-71152000D01*
X169820000Y-40672000D02*
X169820000Y-71152000D01*
X167280000Y-40672000D02*
X169820000Y-40672000D01*
%TO.C,D1*%
X47600000Y-40500000D02*
X47600000Y-39500000D01*
X47500000Y-40000000D02*
X46600000Y-40500000D01*
X46600000Y-40500000D02*
X46600000Y-39500000D01*
X46600000Y-39500000D02*
X47500000Y-40000000D01*
X44400000Y-40750000D02*
X49800000Y-40750000D01*
X49800000Y-40750000D02*
X49800000Y-39250000D01*
X49800000Y-39250000D02*
X44400000Y-39250000D01*
X44400000Y-39250000D02*
X44400000Y-40750000D01*
%TO.C,D2*%
X55450000Y-46400000D02*
X56950000Y-46400000D01*
X55450000Y-41000000D02*
X55450000Y-46400000D01*
X56950000Y-41000000D02*
X55450000Y-41000000D01*
X56950000Y-46400000D02*
X56950000Y-41000000D01*
X55700000Y-44200000D02*
X56200000Y-43300000D01*
X56700000Y-44200000D02*
X55700000Y-44200000D01*
X56200000Y-43300000D02*
X56700000Y-44200000D01*
X56700000Y-43200000D02*
X55700000Y-43200000D01*
%TO.C,D3*%
X75600000Y-39200000D02*
X74600000Y-39200000D01*
X75100000Y-39300000D02*
X75600000Y-40200000D01*
X75600000Y-40200000D02*
X74600000Y-40200000D01*
X74600000Y-40200000D02*
X75100000Y-39300000D01*
X75850000Y-42400000D02*
X75850000Y-37000000D01*
X75850000Y-37000000D02*
X74350000Y-37000000D01*
X74350000Y-37000000D02*
X74350000Y-42400000D01*
X74350000Y-42400000D02*
X75850000Y-42400000D01*
%TO.C,D4*%
X93350000Y-38000000D02*
X94850000Y-38000000D01*
X93350000Y-32600000D02*
X93350000Y-38000000D01*
X94850000Y-32600000D02*
X93350000Y-32600000D01*
X94850000Y-38000000D02*
X94850000Y-32600000D01*
X93600000Y-35800000D02*
X94100000Y-34900000D01*
X94600000Y-35800000D02*
X93600000Y-35800000D01*
X94100000Y-34900000D02*
X94600000Y-35800000D01*
X94600000Y-34800000D02*
X93600000Y-34800000D01*
%TO.C,D5*%
X113800000Y-36400000D02*
X112800000Y-36400000D01*
X113300000Y-36500000D02*
X113800000Y-37400000D01*
X113800000Y-37400000D02*
X112800000Y-37400000D01*
X112800000Y-37400000D02*
X113300000Y-36500000D01*
X114050000Y-39600000D02*
X114050000Y-34200000D01*
X114050000Y-34200000D02*
X112550000Y-34200000D01*
X112550000Y-34200000D02*
X112550000Y-39600000D01*
X112550000Y-39600000D02*
X114050000Y-39600000D01*
%TO.C,D6*%
X131450000Y-41400000D02*
X132950000Y-41400000D01*
X131450000Y-36000000D02*
X131450000Y-41400000D01*
X132950000Y-36000000D02*
X131450000Y-36000000D01*
X132950000Y-41400000D02*
X132950000Y-36000000D01*
X131700000Y-39200000D02*
X132200000Y-38300000D01*
X132700000Y-39200000D02*
X131700000Y-39200000D01*
X132200000Y-38300000D02*
X132700000Y-39200000D01*
X132700000Y-38200000D02*
X131700000Y-38200000D01*
%TO.C,D7*%
X47200000Y-59700000D02*
X47200000Y-58700000D01*
X47100000Y-59200000D02*
X46200000Y-59700000D01*
X46200000Y-59700000D02*
X46200000Y-58700000D01*
X46200000Y-58700000D02*
X47100000Y-59200000D01*
X44000000Y-59950000D02*
X49400000Y-59950000D01*
X49400000Y-59950000D02*
X49400000Y-58450000D01*
X49400000Y-58450000D02*
X44000000Y-58450000D01*
X44000000Y-58450000D02*
X44000000Y-59950000D01*
%TO.C,D8*%
X55150000Y-68200000D02*
X56650000Y-68200000D01*
X55150000Y-62800000D02*
X55150000Y-68200000D01*
X56650000Y-62800000D02*
X55150000Y-62800000D01*
X56650000Y-68200000D02*
X56650000Y-62800000D01*
X55400000Y-66000000D02*
X55900000Y-65100000D01*
X56400000Y-66000000D02*
X55400000Y-66000000D01*
X55900000Y-65100000D02*
X56400000Y-66000000D01*
X56400000Y-65000000D02*
X55400000Y-65000000D01*
%TO.C,D9*%
X73550000Y-62800000D02*
X75050000Y-62800000D01*
X73550000Y-57400000D02*
X73550000Y-62800000D01*
X75050000Y-57400000D02*
X73550000Y-57400000D01*
X75050000Y-62800000D02*
X75050000Y-57400000D01*
X73800000Y-60600000D02*
X74300000Y-59700000D01*
X74800000Y-60600000D02*
X73800000Y-60600000D01*
X74300000Y-59700000D02*
X74800000Y-60600000D01*
X74800000Y-59600000D02*
X73800000Y-59600000D01*
%TO.C,D10*%
X94300000Y-56600000D02*
X93300000Y-56600000D01*
X93800000Y-56700000D02*
X94300000Y-57600000D01*
X94300000Y-57600000D02*
X93300000Y-57600000D01*
X93300000Y-57600000D02*
X93800000Y-56700000D01*
X94550000Y-59800000D02*
X94550000Y-54400000D01*
X94550000Y-54400000D02*
X93050000Y-54400000D01*
X93050000Y-54400000D02*
X93050000Y-59800000D01*
X93050000Y-59800000D02*
X94550000Y-59800000D01*
%TO.C,D11*%
X112150000Y-59900000D02*
X113650000Y-59900000D01*
X112150000Y-54500000D02*
X112150000Y-59900000D01*
X113650000Y-54500000D02*
X112150000Y-54500000D01*
X113650000Y-59900000D02*
X113650000Y-54500000D01*
X112400000Y-57700000D02*
X112900000Y-56800000D01*
X113400000Y-57700000D02*
X112400000Y-57700000D01*
X112900000Y-56800000D02*
X113400000Y-57700000D01*
X113400000Y-56700000D02*
X112400000Y-56700000D01*
%TO.C,D12*%
X131250000Y-61050000D02*
X132750000Y-61050000D01*
X131250000Y-55650000D02*
X131250000Y-61050000D01*
X132750000Y-55650000D02*
X131250000Y-55650000D01*
X132750000Y-61050000D02*
X132750000Y-55650000D01*
X131500000Y-58850000D02*
X132000000Y-57950000D01*
X132500000Y-58850000D02*
X131500000Y-58850000D01*
X132000000Y-57950000D02*
X132500000Y-58850000D01*
X132500000Y-57850000D02*
X131500000Y-57850000D01*
%TO.C,D13*%
X41000000Y-94450000D02*
X41000000Y-93450000D01*
X40900000Y-93950000D02*
X40000000Y-94450000D01*
X40000000Y-94450000D02*
X40000000Y-93450000D01*
X40000000Y-93450000D02*
X40900000Y-93950000D01*
X37800000Y-94700000D02*
X43200000Y-94700000D01*
X43200000Y-94700000D02*
X43200000Y-93200000D01*
X43200000Y-93200000D02*
X37800000Y-93200000D01*
X37800000Y-93200000D02*
X37800000Y-94700000D01*
%TO.C,D14*%
X69600000Y-92400000D02*
X69600000Y-93900000D01*
X75000000Y-92400000D02*
X69600000Y-92400000D01*
X75000000Y-93900000D02*
X75000000Y-92400000D01*
X69600000Y-93900000D02*
X75000000Y-93900000D01*
X71800000Y-92650000D02*
X72700000Y-93150000D01*
X71800000Y-93650000D02*
X71800000Y-92650000D01*
X72700000Y-93150000D02*
X71800000Y-93650000D01*
X72800000Y-93650000D02*
X72800000Y-92650000D01*
%TO.C,D15*%
X78700000Y-87850000D02*
X78700000Y-86850000D01*
X78600000Y-87350000D02*
X77700000Y-87850000D01*
X77700000Y-87850000D02*
X77700000Y-86850000D01*
X77700000Y-86850000D02*
X78600000Y-87350000D01*
X75500000Y-88100000D02*
X80900000Y-88100000D01*
X80900000Y-88100000D02*
X80900000Y-86600000D01*
X80900000Y-86600000D02*
X75500000Y-86600000D01*
X75500000Y-86600000D02*
X75500000Y-88100000D01*
%TO.C,D16*%
X106700000Y-84800000D02*
X106700000Y-86300000D01*
X112100000Y-84800000D02*
X106700000Y-84800000D01*
X112100000Y-86300000D02*
X112100000Y-84800000D01*
X106700000Y-86300000D02*
X112100000Y-86300000D01*
X108900000Y-85050000D02*
X109800000Y-85550000D01*
X108900000Y-86050000D02*
X108900000Y-85050000D01*
X109800000Y-85550000D02*
X108900000Y-86050000D01*
X109900000Y-86050000D02*
X109900000Y-85050000D01*
%TO.C,D17*%
X128200000Y-87850000D02*
X128200000Y-86850000D01*
X128100000Y-87350000D02*
X127200000Y-87850000D01*
X127200000Y-87850000D02*
X127200000Y-86850000D01*
X127200000Y-86850000D02*
X128100000Y-87350000D01*
X125000000Y-88100000D02*
X130400000Y-88100000D01*
X130400000Y-88100000D02*
X130400000Y-86600000D01*
X130400000Y-86600000D02*
X125000000Y-86600000D01*
X125000000Y-86600000D02*
X125000000Y-88100000D01*
%TO.C,D18*%
X144100000Y-88900000D02*
X144100000Y-90400000D01*
X149500000Y-88900000D02*
X144100000Y-88900000D01*
X149500000Y-90400000D02*
X149500000Y-88900000D01*
X144100000Y-90400000D02*
X149500000Y-90400000D01*
X146300000Y-89150000D02*
X147200000Y-89650000D01*
X146300000Y-90150000D02*
X146300000Y-89150000D01*
X147200000Y-89650000D02*
X146300000Y-90150000D01*
X147300000Y-90150000D02*
X147300000Y-89150000D01*
%TO.C,D19*%
X54500000Y-112750000D02*
X54500000Y-111750000D01*
X54400000Y-112250000D02*
X53500000Y-112750000D01*
X53500000Y-112750000D02*
X53500000Y-111750000D01*
X53500000Y-111750000D02*
X54400000Y-112250000D01*
X51300000Y-113000000D02*
X56700000Y-113000000D01*
X56700000Y-113000000D02*
X56700000Y-111500000D01*
X56700000Y-111500000D02*
X51300000Y-111500000D01*
X51300000Y-111500000D02*
X51300000Y-113000000D01*
%TO.C,D20*%
X69900000Y-111500000D02*
X69900000Y-113000000D01*
X75300000Y-111500000D02*
X69900000Y-111500000D01*
X75300000Y-113000000D02*
X75300000Y-111500000D01*
X69900000Y-113000000D02*
X75300000Y-113000000D01*
X72100000Y-111750000D02*
X73000000Y-112250000D01*
X72100000Y-112750000D02*
X72100000Y-111750000D01*
X73000000Y-112250000D02*
X72100000Y-112750000D01*
X73100000Y-112750000D02*
X73100000Y-111750000D01*
%TO.C,D21*%
X100538372Y-100954416D02*
X101304416Y-100311628D01*
X100857115Y-100556418D02*
X99895584Y-100188372D01*
X99895584Y-100188372D02*
X100661628Y-99545584D01*
X100661628Y-99545584D02*
X100857115Y-100556418D01*
X98289940Y-98663771D02*
X101760993Y-102800411D01*
X101760993Y-102800411D02*
X102910060Y-101836229D01*
X102910060Y-101836229D02*
X99439007Y-97699589D01*
X99439007Y-97699589D02*
X98289940Y-98663771D01*
%TO.C,D22*%
X149783013Y-112733013D02*
X150283013Y-111866987D01*
X149946410Y-112250000D02*
X148916987Y-112233013D01*
X148916987Y-112233013D02*
X149416987Y-111366987D01*
X149416987Y-111366987D02*
X149946410Y-112250000D01*
X146886731Y-111349519D02*
X151563269Y-114049519D01*
X151563269Y-114049519D02*
X152313269Y-112750481D01*
X152313269Y-112750481D02*
X147636731Y-110050481D01*
X147636731Y-110050481D02*
X146886731Y-111349519D01*
%TO.C,D23*%
X122386115Y-105226744D02*
X121997886Y-106675633D01*
X127602114Y-106624367D02*
X122386115Y-105226744D01*
X127213885Y-108073256D02*
X127602114Y-106624367D01*
X121997886Y-106675633D02*
X127213885Y-108073256D01*
X124446447Y-106037628D02*
X125186370Y-106753528D01*
X124187628Y-107003553D02*
X124446447Y-106037628D01*
X125186370Y-106753528D02*
X124187628Y-107003553D01*
X125153553Y-107262372D02*
X125412372Y-106296447D01*
%TO.C,J1*%
X164238880Y-83162595D02*
X164238880Y-83734023D01*
X165238880Y-83448309D02*
X164238880Y-83448309D01*
X165238880Y-84638785D02*
X164762690Y-84305452D01*
X165238880Y-84067357D02*
X164238880Y-84067357D01*
X164238880Y-84448309D01*
X164286500Y-84543547D01*
X164334119Y-84591166D01*
X164429357Y-84638785D01*
X164572214Y-84638785D01*
X164667452Y-84591166D01*
X164715071Y-84543547D01*
X164762690Y-84448309D01*
X164762690Y-84067357D01*
X165238880Y-85638785D02*
X164762690Y-85305452D01*
X165238880Y-85067357D02*
X164238880Y-85067357D01*
X164238880Y-85448309D01*
X164286500Y-85543547D01*
X164334119Y-85591166D01*
X164429357Y-85638785D01*
X164572214Y-85638785D01*
X164667452Y-85591166D01*
X164715071Y-85543547D01*
X164762690Y-85448309D01*
X164762690Y-85067357D01*
X165191261Y-86019738D02*
X165238880Y-86162595D01*
X165238880Y-86400690D01*
X165191261Y-86495928D01*
X165143642Y-86543547D01*
X165048404Y-86591166D01*
X164953166Y-86591166D01*
X164857928Y-86543547D01*
X164810309Y-86495928D01*
X164762690Y-86400690D01*
X164715071Y-86210214D01*
X164667452Y-86114976D01*
X164619833Y-86067357D01*
X164524595Y-86019738D01*
X164429357Y-86019738D01*
X164334119Y-86067357D01*
X164286500Y-86114976D01*
X164238880Y-86210214D01*
X164238880Y-86448309D01*
X164286500Y-86591166D01*
%TO.C,J2*%
X162702380Y-70902380D02*
X162511904Y-70902380D01*
X162416666Y-70950000D01*
X162321428Y-71045238D01*
X162273809Y-71235714D01*
X162273809Y-71569047D01*
X162321428Y-71759523D01*
X162416666Y-71854761D01*
X162511904Y-71902380D01*
X162702380Y-71902380D01*
X162797619Y-71854761D01*
X162892857Y-71759523D01*
X162940476Y-71569047D01*
X162940476Y-71235714D01*
X162892857Y-71045238D01*
X162797619Y-70950000D01*
X162702380Y-70902380D01*
X161369047Y-71902380D02*
X161845238Y-71902380D01*
X161845238Y-70902380D01*
X161035714Y-71378571D02*
X160702380Y-71378571D01*
X160559523Y-71902380D02*
X161035714Y-71902380D01*
X161035714Y-70902380D01*
X160559523Y-70902380D01*
X160130952Y-71902380D02*
X160130952Y-70902380D01*
X159892857Y-70902380D01*
X159750000Y-70950000D01*
X159654761Y-71045238D01*
X159607142Y-71140476D01*
X159559523Y-71330952D01*
X159559523Y-71473809D01*
X159607142Y-71664285D01*
X159654761Y-71759523D01*
X159750000Y-71854761D01*
X159892857Y-71902380D01*
X160130952Y-71902380D01*
%TO.C,JP2*%
%TO.C,JP3*%
%TO.C,JP4*%
%TO.C,JP5*%
%TO.C,P1*%
X158405895Y-75840361D02*
X158599419Y-75840361D01*
X158522009Y-75646838D02*
X158599419Y-75840361D01*
X158522009Y-76033885D01*
X158754238Y-75724247D02*
X158599419Y-75840361D01*
X158754238Y-75956476D01*
X158405895Y-76459638D02*
X158599419Y-76459638D01*
X158522009Y-76266114D02*
X158599419Y-76459638D01*
X158522009Y-76653161D01*
X158754238Y-76343523D02*
X158599419Y-76459638D01*
X158754238Y-76575752D01*
%TO.C,P2*%
X158405895Y-78240361D02*
X158599419Y-78240361D01*
X158522009Y-78046838D02*
X158599419Y-78240361D01*
X158522009Y-78433885D01*
X158754238Y-78124247D02*
X158599419Y-78240361D01*
X158754238Y-78356476D01*
X158405895Y-78859638D02*
X158599419Y-78859638D01*
X158522009Y-78666114D02*
X158599419Y-78859638D01*
X158522009Y-79053161D01*
X158754238Y-78743523D02*
X158599419Y-78859638D01*
X158754238Y-78975752D01*
%TO.C,R1*%
X163709638Y-75641395D02*
X163709638Y-75834919D01*
X163903161Y-75757509D02*
X163709638Y-75834919D01*
X163516114Y-75757509D01*
X163825752Y-75989738D02*
X163709638Y-75834919D01*
X163593523Y-75989738D01*
X163090361Y-75641395D02*
X163090361Y-75834919D01*
X163283885Y-75757509D02*
X163090361Y-75834919D01*
X162896838Y-75757509D01*
X163206476Y-75989738D02*
X163090361Y-75834919D01*
X162974247Y-75989738D01*
%TO.C,R2*%
X163709638Y-78141395D02*
X163709638Y-78334919D01*
X163903161Y-78257509D02*
X163709638Y-78334919D01*
X163516114Y-78257509D01*
X163825752Y-78489738D02*
X163709638Y-78334919D01*
X163593523Y-78489738D01*
X163090361Y-78141395D02*
X163090361Y-78334919D01*
X163283885Y-78257509D02*
X163090361Y-78334919D01*
X162896838Y-78257509D01*
X163206476Y-78489738D02*
X163090361Y-78334919D01*
X162974247Y-78489738D01*
%TO.C,RSW1*%
X169452380Y-74570619D02*
X168976190Y-74237285D01*
X169452380Y-73999190D02*
X168452380Y-73999190D01*
X168452380Y-74380142D01*
X168500000Y-74475380D01*
X168547619Y-74523000D01*
X168642857Y-74570619D01*
X168785714Y-74570619D01*
X168880952Y-74523000D01*
X168928571Y-74475380D01*
X168976190Y-74380142D01*
X168976190Y-73999190D01*
X168928571Y-74999190D02*
X168928571Y-75332523D01*
X169452380Y-75475380D02*
X169452380Y-74999190D01*
X168452380Y-74999190D01*
X168452380Y-75475380D01*
X169404761Y-75856333D02*
X169452380Y-75999190D01*
X169452380Y-76237285D01*
X169404761Y-76332523D01*
X169357142Y-76380142D01*
X169261904Y-76427761D01*
X169166666Y-76427761D01*
X169071428Y-76380142D01*
X169023809Y-76332523D01*
X168976190Y-76237285D01*
X168928571Y-76046809D01*
X168880952Y-75951571D01*
X168833333Y-75903952D01*
X168738095Y-75856333D01*
X168642857Y-75856333D01*
X168547619Y-75903952D01*
X168500000Y-75951571D01*
X168452380Y-76046809D01*
X168452380Y-76284904D01*
X168500000Y-76427761D01*
X168928571Y-76856333D02*
X168928571Y-77189666D01*
X169452380Y-77332523D02*
X169452380Y-76856333D01*
X168452380Y-76856333D01*
X168452380Y-77332523D01*
X168452380Y-77618238D02*
X168452380Y-78189666D01*
X169452380Y-77903952D02*
X168452380Y-77903952D01*
%TO.C,U1*%
D12*
X151530952Y-60124785D02*
X151697619Y-59767642D01*
X151816666Y-60124785D02*
X151816666Y-59374785D01*
X151626190Y-59374785D01*
X151578571Y-59410500D01*
X151554761Y-59446214D01*
X151530952Y-59517642D01*
X151530952Y-59624785D01*
X151554761Y-59696214D01*
X151578571Y-59731928D01*
X151626190Y-59767642D01*
X151816666Y-59767642D01*
X151221428Y-59374785D02*
X151126190Y-59374785D01*
X151078571Y-59410500D01*
X151030952Y-59481928D01*
X151007142Y-59624785D01*
X151007142Y-59874785D01*
X151030952Y-60017642D01*
X151078571Y-60089071D01*
X151126190Y-60124785D01*
X151221428Y-60124785D01*
X151269047Y-60089071D01*
X151316666Y-60017642D01*
X151340476Y-59874785D01*
X151340476Y-59624785D01*
X151316666Y-59481928D01*
X151269047Y-59410500D01*
X151221428Y-59374785D01*
X150840476Y-59374785D02*
X150721428Y-60124785D01*
X150626190Y-59589071D01*
X150530952Y-60124785D01*
X150411904Y-59374785D01*
X149959523Y-60124785D02*
X150245238Y-60124785D01*
X150102380Y-60124785D02*
X150102380Y-59374785D01*
X150150000Y-59481928D01*
X150197619Y-59553357D01*
X150245238Y-59589071D01*
X166697619Y-62529857D02*
X166721428Y-62565571D01*
X166792857Y-62601285D01*
X166840476Y-62601285D01*
X166911904Y-62565571D01*
X166959523Y-62494142D01*
X166983333Y-62422714D01*
X167007142Y-62279857D01*
X167007142Y-62172714D01*
X166983333Y-62029857D01*
X166959523Y-61958428D01*
X166911904Y-61887000D01*
X166840476Y-61851285D01*
X166792857Y-61851285D01*
X166721428Y-61887000D01*
X166697619Y-61922714D01*
X166388095Y-61851285D02*
X166292857Y-61851285D01*
X166245238Y-61887000D01*
X166197619Y-61958428D01*
X166173809Y-62101285D01*
X166173809Y-62351285D01*
X166197619Y-62494142D01*
X166245238Y-62565571D01*
X166292857Y-62601285D01*
X166388095Y-62601285D01*
X166435714Y-62565571D01*
X166483333Y-62494142D01*
X166507142Y-62351285D01*
X166507142Y-62101285D01*
X166483333Y-61958428D01*
X166435714Y-61887000D01*
X166388095Y-61851285D01*
X165721428Y-62601285D02*
X165959523Y-62601285D01*
X165959523Y-61851285D01*
X165340476Y-62101285D02*
X165340476Y-62601285D01*
X165459523Y-61815571D02*
X165578571Y-62351285D01*
X165269047Y-62351285D01*
X151530952Y-62728285D02*
X151697619Y-62371142D01*
X151816666Y-62728285D02*
X151816666Y-61978285D01*
X151626190Y-61978285D01*
X151578571Y-62014000D01*
X151554761Y-62049714D01*
X151530952Y-62121142D01*
X151530952Y-62228285D01*
X151554761Y-62299714D01*
X151578571Y-62335428D01*
X151626190Y-62371142D01*
X151816666Y-62371142D01*
X151221428Y-61978285D02*
X151126190Y-61978285D01*
X151078571Y-62014000D01*
X151030952Y-62085428D01*
X151007142Y-62228285D01*
X151007142Y-62478285D01*
X151030952Y-62621142D01*
X151078571Y-62692571D01*
X151126190Y-62728285D01*
X151221428Y-62728285D01*
X151269047Y-62692571D01*
X151316666Y-62621142D01*
X151340476Y-62478285D01*
X151340476Y-62228285D01*
X151316666Y-62085428D01*
X151269047Y-62014000D01*
X151221428Y-61978285D01*
X150840476Y-61978285D02*
X150721428Y-62728285D01*
X150626190Y-62192571D01*
X150530952Y-62728285D01*
X150411904Y-61978285D01*
X150245238Y-62049714D02*
X150221428Y-62014000D01*
X150173809Y-61978285D01*
X150054761Y-61978285D01*
X150007142Y-62014000D01*
X149983333Y-62049714D01*
X149959523Y-62121142D01*
X149959523Y-62192571D01*
X149983333Y-62299714D01*
X150269047Y-62728285D01*
X149959523Y-62728285D01*
X166747619Y-65167857D02*
X166771428Y-65203571D01*
X166842857Y-65239285D01*
X166890476Y-65239285D01*
X166961904Y-65203571D01*
X167009523Y-65132142D01*
X167033333Y-65060714D01*
X167057142Y-64917857D01*
X167057142Y-64810714D01*
X167033333Y-64667857D01*
X167009523Y-64596428D01*
X166961904Y-64525000D01*
X166890476Y-64489285D01*
X166842857Y-64489285D01*
X166771428Y-64525000D01*
X166747619Y-64560714D01*
X166438095Y-64489285D02*
X166342857Y-64489285D01*
X166295238Y-64525000D01*
X166247619Y-64596428D01*
X166223809Y-64739285D01*
X166223809Y-64989285D01*
X166247619Y-65132142D01*
X166295238Y-65203571D01*
X166342857Y-65239285D01*
X166438095Y-65239285D01*
X166485714Y-65203571D01*
X166533333Y-65132142D01*
X166557142Y-64989285D01*
X166557142Y-64739285D01*
X166533333Y-64596428D01*
X166485714Y-64525000D01*
X166438095Y-64489285D01*
X165771428Y-65239285D02*
X166009523Y-65239285D01*
X166009523Y-64489285D01*
X165366666Y-64489285D02*
X165604761Y-64489285D01*
X165628571Y-64846428D01*
X165604761Y-64810714D01*
X165557142Y-64775000D01*
X165438095Y-64775000D01*
X165390476Y-64810714D01*
X165366666Y-64846428D01*
X165342857Y-64917857D01*
X165342857Y-65096428D01*
X165366666Y-65167857D01*
X165390476Y-65203571D01*
X165438095Y-65239285D01*
X165557142Y-65239285D01*
X165604761Y-65203571D01*
X165628571Y-65167857D01*
X151530952Y-65239285D02*
X151697619Y-64882142D01*
X151816666Y-65239285D02*
X151816666Y-64489285D01*
X151626190Y-64489285D01*
X151578571Y-64525000D01*
X151554761Y-64560714D01*
X151530952Y-64632142D01*
X151530952Y-64739285D01*
X151554761Y-64810714D01*
X151578571Y-64846428D01*
X151626190Y-64882142D01*
X151816666Y-64882142D01*
X151221428Y-64489285D02*
X151126190Y-64489285D01*
X151078571Y-64525000D01*
X151030952Y-64596428D01*
X151007142Y-64739285D01*
X151007142Y-64989285D01*
X151030952Y-65132142D01*
X151078571Y-65203571D01*
X151126190Y-65239285D01*
X151221428Y-65239285D01*
X151269047Y-65203571D01*
X151316666Y-65132142D01*
X151340476Y-64989285D01*
X151340476Y-64739285D01*
X151316666Y-64596428D01*
X151269047Y-64525000D01*
X151221428Y-64489285D01*
X150840476Y-64489285D02*
X150721428Y-65239285D01*
X150626190Y-64703571D01*
X150530952Y-65239285D01*
X150411904Y-64489285D01*
X150269047Y-64489285D02*
X149959523Y-64489285D01*
X150126190Y-64775000D01*
X150054761Y-64775000D01*
X150007142Y-64810714D01*
X149983333Y-64846428D01*
X149959523Y-64917857D01*
X149959523Y-65096428D01*
X149983333Y-65167857D01*
X150007142Y-65203571D01*
X150054761Y-65239285D01*
X150197619Y-65239285D01*
X150245238Y-65203571D01*
X150269047Y-65167857D01*
X166910880Y-67224928D02*
X166839452Y-67260642D01*
X166815642Y-67296357D01*
X166791833Y-67367785D01*
X166791833Y-67474928D01*
X166815642Y-67546357D01*
X166839452Y-67582071D01*
X166887071Y-67617785D01*
X167077547Y-67617785D01*
X167077547Y-66867785D01*
X166910880Y-66867785D01*
X166863261Y-66903500D01*
X166839452Y-66939214D01*
X166815642Y-67010642D01*
X166815642Y-67082071D01*
X166839452Y-67153500D01*
X166863261Y-67189214D01*
X166910880Y-67224928D01*
X167077547Y-67224928D01*
X166601357Y-66939214D02*
X166577547Y-66903500D01*
X166529928Y-66867785D01*
X166410880Y-66867785D01*
X166363261Y-66903500D01*
X166339452Y-66939214D01*
X166315642Y-67010642D01*
X166315642Y-67082071D01*
X166339452Y-67189214D01*
X166625166Y-67617785D01*
X166315642Y-67617785D01*
X151353380Y-67351928D02*
X151281952Y-67387642D01*
X151258142Y-67423357D01*
X151234333Y-67494785D01*
X151234333Y-67601928D01*
X151258142Y-67673357D01*
X151281952Y-67709071D01*
X151329571Y-67744785D01*
X151520047Y-67744785D01*
X151520047Y-66994785D01*
X151353380Y-66994785D01*
X151305761Y-67030500D01*
X151281952Y-67066214D01*
X151258142Y-67137642D01*
X151258142Y-67209071D01*
X151281952Y-67280500D01*
X151305761Y-67316214D01*
X151353380Y-67351928D01*
X151520047Y-67351928D01*
X150805761Y-67244785D02*
X150805761Y-67744785D01*
X150924809Y-66959071D02*
X151043857Y-67494785D01*
X150734333Y-67494785D01*
X151353380Y-69891928D02*
X151281952Y-69927642D01*
X151258142Y-69963357D01*
X151234333Y-70034785D01*
X151234333Y-70141928D01*
X151258142Y-70213357D01*
X151281952Y-70249071D01*
X151329571Y-70284785D01*
X151520047Y-70284785D01*
X151520047Y-69534785D01*
X151353380Y-69534785D01*
X151305761Y-69570500D01*
X151281952Y-69606214D01*
X151258142Y-69677642D01*
X151258142Y-69749071D01*
X151281952Y-69820500D01*
X151305761Y-69856214D01*
X151353380Y-69891928D01*
X151520047Y-69891928D01*
X150781952Y-69534785D02*
X151020047Y-69534785D01*
X151043857Y-69891928D01*
X151020047Y-69856214D01*
X150972428Y-69820500D01*
X150853380Y-69820500D01*
X150805761Y-69856214D01*
X150781952Y-69891928D01*
X150758142Y-69963357D01*
X150758142Y-70141928D01*
X150781952Y-70213357D01*
X150805761Y-70249071D01*
X150853380Y-70284785D01*
X150972428Y-70284785D01*
X151020047Y-70249071D01*
X151043857Y-70213357D01*
X166847380Y-69828428D02*
X166775952Y-69864142D01*
X166752142Y-69899857D01*
X166728333Y-69971285D01*
X166728333Y-70078428D01*
X166752142Y-70149857D01*
X166775952Y-70185571D01*
X166823571Y-70221285D01*
X167014047Y-70221285D01*
X167014047Y-69471285D01*
X166847380Y-69471285D01*
X166799761Y-69507000D01*
X166775952Y-69542714D01*
X166752142Y-69614142D01*
X166752142Y-69685571D01*
X166775952Y-69757000D01*
X166799761Y-69792714D01*
X166847380Y-69828428D01*
X167014047Y-69828428D01*
X166299761Y-69471285D02*
X166395000Y-69471285D01*
X166442619Y-69507000D01*
X166466428Y-69542714D01*
X166514047Y-69649857D01*
X166537857Y-69792714D01*
X166537857Y-70078428D01*
X166514047Y-70149857D01*
X166490238Y-70185571D01*
X166442619Y-70221285D01*
X166347380Y-70221285D01*
X166299761Y-70185571D01*
X166275952Y-70149857D01*
X166252142Y-70078428D01*
X166252142Y-69899857D01*
X166275952Y-69828428D01*
X166299761Y-69792714D01*
X166347380Y-69757000D01*
X166442619Y-69757000D01*
X166490238Y-69792714D01*
X166514047Y-69828428D01*
X166537857Y-69899857D01*
X166747619Y-52467857D02*
X166771428Y-52503571D01*
X166842857Y-52539285D01*
X166890476Y-52539285D01*
X166961904Y-52503571D01*
X167009523Y-52432142D01*
X167033333Y-52360714D01*
X167057142Y-52217857D01*
X167057142Y-52110714D01*
X167033333Y-51967857D01*
X167009523Y-51896428D01*
X166961904Y-51825000D01*
X166890476Y-51789285D01*
X166842857Y-51789285D01*
X166771428Y-51825000D01*
X166747619Y-51860714D01*
X166438095Y-51789285D02*
X166342857Y-51789285D01*
X166295238Y-51825000D01*
X166247619Y-51896428D01*
X166223809Y-52039285D01*
X166223809Y-52289285D01*
X166247619Y-52432142D01*
X166295238Y-52503571D01*
X166342857Y-52539285D01*
X166438095Y-52539285D01*
X166485714Y-52503571D01*
X166533333Y-52432142D01*
X166557142Y-52289285D01*
X166557142Y-52039285D01*
X166533333Y-51896428D01*
X166485714Y-51825000D01*
X166438095Y-51789285D01*
X165771428Y-52539285D02*
X166009523Y-52539285D01*
X166009523Y-51789285D01*
X165509523Y-51789285D02*
X165461904Y-51789285D01*
X165414285Y-51825000D01*
X165390476Y-51860714D01*
X165366666Y-51932142D01*
X165342857Y-52075000D01*
X165342857Y-52253571D01*
X165366666Y-52396428D01*
X165390476Y-52467857D01*
X165414285Y-52503571D01*
X165461904Y-52539285D01*
X165509523Y-52539285D01*
X165557142Y-52503571D01*
X165580952Y-52467857D01*
X165604761Y-52396428D01*
X165628571Y-52253571D01*
X165628571Y-52075000D01*
X165604761Y-51932142D01*
X165580952Y-51860714D01*
X165557142Y-51825000D01*
X165509523Y-51789285D01*
X151758142Y-52469071D02*
X151686714Y-52504785D01*
X151567666Y-52504785D01*
X151520047Y-52469071D01*
X151496238Y-52433357D01*
X151472428Y-52361928D01*
X151472428Y-52290500D01*
X151496238Y-52219071D01*
X151520047Y-52183357D01*
X151567666Y-52147642D01*
X151662904Y-52111928D01*
X151710523Y-52076214D01*
X151734333Y-52040500D01*
X151758142Y-51969071D01*
X151758142Y-51897642D01*
X151734333Y-51826214D01*
X151710523Y-51790500D01*
X151662904Y-51754785D01*
X151543857Y-51754785D01*
X151472428Y-51790500D01*
X151258142Y-52504785D02*
X151258142Y-51754785D01*
X151139095Y-51754785D01*
X151067666Y-51790500D01*
X151020047Y-51861928D01*
X150996238Y-51933357D01*
X150972428Y-52076214D01*
X150972428Y-52183357D01*
X150996238Y-52326214D01*
X151020047Y-52397642D01*
X151067666Y-52469071D01*
X151139095Y-52504785D01*
X151258142Y-52504785D01*
X150781952Y-52290500D02*
X150543857Y-52290500D01*
X150829571Y-52504785D02*
X150662904Y-51754785D01*
X150496238Y-52504785D01*
X166747619Y-54973357D02*
X166771428Y-55009071D01*
X166842857Y-55044785D01*
X166890476Y-55044785D01*
X166961904Y-55009071D01*
X167009523Y-54937642D01*
X167033333Y-54866214D01*
X167057142Y-54723357D01*
X167057142Y-54616214D01*
X167033333Y-54473357D01*
X167009523Y-54401928D01*
X166961904Y-54330500D01*
X166890476Y-54294785D01*
X166842857Y-54294785D01*
X166771428Y-54330500D01*
X166747619Y-54366214D01*
X166438095Y-54294785D02*
X166342857Y-54294785D01*
X166295238Y-54330500D01*
X166247619Y-54401928D01*
X166223809Y-54544785D01*
X166223809Y-54794785D01*
X166247619Y-54937642D01*
X166295238Y-55009071D01*
X166342857Y-55044785D01*
X166438095Y-55044785D01*
X166485714Y-55009071D01*
X166533333Y-54937642D01*
X166557142Y-54794785D01*
X166557142Y-54544785D01*
X166533333Y-54401928D01*
X166485714Y-54330500D01*
X166438095Y-54294785D01*
X165771428Y-55044785D02*
X166009523Y-55044785D01*
X166009523Y-54294785D01*
X165342857Y-55044785D02*
X165628571Y-55044785D01*
X165485714Y-55044785D02*
X165485714Y-54294785D01*
X165533333Y-54401928D01*
X165580952Y-54473357D01*
X165628571Y-54509071D01*
X151746238Y-55009071D02*
X151674809Y-55044785D01*
X151555761Y-55044785D01*
X151508142Y-55009071D01*
X151484333Y-54973357D01*
X151460523Y-54901928D01*
X151460523Y-54830500D01*
X151484333Y-54759071D01*
X151508142Y-54723357D01*
X151555761Y-54687642D01*
X151651000Y-54651928D01*
X151698619Y-54616214D01*
X151722428Y-54580500D01*
X151746238Y-54509071D01*
X151746238Y-54437642D01*
X151722428Y-54366214D01*
X151698619Y-54330500D01*
X151651000Y-54294785D01*
X151531952Y-54294785D01*
X151460523Y-54330500D01*
X150960523Y-54973357D02*
X150984333Y-55009071D01*
X151055761Y-55044785D01*
X151103380Y-55044785D01*
X151174809Y-55009071D01*
X151222428Y-54937642D01*
X151246238Y-54866214D01*
X151270047Y-54723357D01*
X151270047Y-54616214D01*
X151246238Y-54473357D01*
X151222428Y-54401928D01*
X151174809Y-54330500D01*
X151103380Y-54294785D01*
X151055761Y-54294785D01*
X150984333Y-54330500D01*
X150960523Y-54366214D01*
X150508142Y-55044785D02*
X150746238Y-55044785D01*
X150746238Y-54294785D01*
X166747619Y-57517857D02*
X166771428Y-57553571D01*
X166842857Y-57589285D01*
X166890476Y-57589285D01*
X166961904Y-57553571D01*
X167009523Y-57482142D01*
X167033333Y-57410714D01*
X167057142Y-57267857D01*
X167057142Y-57160714D01*
X167033333Y-57017857D01*
X167009523Y-56946428D01*
X166961904Y-56875000D01*
X166890476Y-56839285D01*
X166842857Y-56839285D01*
X166771428Y-56875000D01*
X166747619Y-56910714D01*
X166438095Y-56839285D02*
X166342857Y-56839285D01*
X166295238Y-56875000D01*
X166247619Y-56946428D01*
X166223809Y-57089285D01*
X166223809Y-57339285D01*
X166247619Y-57482142D01*
X166295238Y-57553571D01*
X166342857Y-57589285D01*
X166438095Y-57589285D01*
X166485714Y-57553571D01*
X166533333Y-57482142D01*
X166557142Y-57339285D01*
X166557142Y-57089285D01*
X166533333Y-56946428D01*
X166485714Y-56875000D01*
X166438095Y-56839285D01*
X165771428Y-57589285D02*
X166009523Y-57589285D01*
X166009523Y-56839285D01*
X165628571Y-56910714D02*
X165604761Y-56875000D01*
X165557142Y-56839285D01*
X165438095Y-56839285D01*
X165390476Y-56875000D01*
X165366666Y-56910714D01*
X165342857Y-56982142D01*
X165342857Y-57053571D01*
X165366666Y-57160714D01*
X165652380Y-57589285D01*
X165342857Y-57589285D01*
X151530952Y-57521285D02*
X151697619Y-57164142D01*
X151816666Y-57521285D02*
X151816666Y-56771285D01*
X151626190Y-56771285D01*
X151578571Y-56807000D01*
X151554761Y-56842714D01*
X151530952Y-56914142D01*
X151530952Y-57021285D01*
X151554761Y-57092714D01*
X151578571Y-57128428D01*
X151626190Y-57164142D01*
X151816666Y-57164142D01*
X151221428Y-56771285D02*
X151126190Y-56771285D01*
X151078571Y-56807000D01*
X151030952Y-56878428D01*
X151007142Y-57021285D01*
X151007142Y-57271285D01*
X151030952Y-57414142D01*
X151078571Y-57485571D01*
X151126190Y-57521285D01*
X151221428Y-57521285D01*
X151269047Y-57485571D01*
X151316666Y-57414142D01*
X151340476Y-57271285D01*
X151340476Y-57021285D01*
X151316666Y-56878428D01*
X151269047Y-56807000D01*
X151221428Y-56771285D01*
X150840476Y-56771285D02*
X150721428Y-57521285D01*
X150626190Y-56985571D01*
X150530952Y-57521285D01*
X150411904Y-56771285D01*
X150126190Y-56771285D02*
X150078571Y-56771285D01*
X150030952Y-56807000D01*
X150007142Y-56842714D01*
X149983333Y-56914142D01*
X149959523Y-57057000D01*
X149959523Y-57235571D01*
X149983333Y-57378428D01*
X150007142Y-57449857D01*
X150030952Y-57485571D01*
X150078571Y-57521285D01*
X150126190Y-57521285D01*
X150173809Y-57485571D01*
X150197619Y-57449857D01*
X150221428Y-57378428D01*
X150245238Y-57235571D01*
X150245238Y-57057000D01*
X150221428Y-56914142D01*
X150197619Y-56842714D01*
X150173809Y-56807000D01*
X150126190Y-56771285D01*
X166747619Y-60017857D02*
X166771428Y-60053571D01*
X166842857Y-60089285D01*
X166890476Y-60089285D01*
X166961904Y-60053571D01*
X167009523Y-59982142D01*
X167033333Y-59910714D01*
X167057142Y-59767857D01*
X167057142Y-59660714D01*
X167033333Y-59517857D01*
X167009523Y-59446428D01*
X166961904Y-59375000D01*
X166890476Y-59339285D01*
X166842857Y-59339285D01*
X166771428Y-59375000D01*
X166747619Y-59410714D01*
X166438095Y-59339285D02*
X166342857Y-59339285D01*
X166295238Y-59375000D01*
X166247619Y-59446428D01*
X166223809Y-59589285D01*
X166223809Y-59839285D01*
X166247619Y-59982142D01*
X166295238Y-60053571D01*
X166342857Y-60089285D01*
X166438095Y-60089285D01*
X166485714Y-60053571D01*
X166533333Y-59982142D01*
X166557142Y-59839285D01*
X166557142Y-59589285D01*
X166533333Y-59446428D01*
X166485714Y-59375000D01*
X166438095Y-59339285D01*
X165771428Y-60089285D02*
X166009523Y-60089285D01*
X166009523Y-59339285D01*
X165652380Y-59339285D02*
X165342857Y-59339285D01*
X165509523Y-59625000D01*
X165438095Y-59625000D01*
X165390476Y-59660714D01*
X165366666Y-59696428D01*
X165342857Y-59767857D01*
X165342857Y-59946428D01*
X165366666Y-60017857D01*
X165390476Y-60053571D01*
X165438095Y-60089285D01*
X165580952Y-60089285D01*
X165628571Y-60053571D01*
X165652380Y-60017857D01*
X151531952Y-49250500D02*
X151579571Y-49214785D01*
X151651000Y-49214785D01*
X151722428Y-49250500D01*
X151770047Y-49321928D01*
X151793857Y-49393357D01*
X151817666Y-49536214D01*
X151817666Y-49643357D01*
X151793857Y-49786214D01*
X151770047Y-49857642D01*
X151722428Y-49929071D01*
X151651000Y-49964785D01*
X151603380Y-49964785D01*
X151531952Y-49929071D01*
X151508142Y-49893357D01*
X151508142Y-49643357D01*
X151603380Y-49643357D01*
X151293857Y-49964785D02*
X151293857Y-49214785D01*
X151008142Y-49964785D01*
X151008142Y-49214785D01*
X150770047Y-49964785D02*
X150770047Y-49214785D01*
X150651000Y-49214785D01*
X150579571Y-49250500D01*
X150531952Y-49321928D01*
X150508142Y-49393357D01*
X150484333Y-49536214D01*
X150484333Y-49643357D01*
X150508142Y-49786214D01*
X150531952Y-49857642D01*
X150579571Y-49929071D01*
X150651000Y-49964785D01*
X150770047Y-49964785D01*
X166994166Y-49214785D02*
X166827500Y-49964785D01*
X166660833Y-49214785D01*
X166208452Y-49893357D02*
X166232261Y-49929071D01*
X166303690Y-49964785D01*
X166351309Y-49964785D01*
X166422738Y-49929071D01*
X166470357Y-49857642D01*
X166494166Y-49786214D01*
X166517976Y-49643357D01*
X166517976Y-49536214D01*
X166494166Y-49393357D01*
X166470357Y-49321928D01*
X166422738Y-49250500D01*
X166351309Y-49214785D01*
X166303690Y-49214785D01*
X166232261Y-49250500D01*
X166208452Y-49286214D01*
X165708452Y-49893357D02*
X165732261Y-49929071D01*
X165803690Y-49964785D01*
X165851309Y-49964785D01*
X165922738Y-49929071D01*
X165970357Y-49857642D01*
X165994166Y-49786214D01*
X166017976Y-49643357D01*
X166017976Y-49536214D01*
X165994166Y-49393357D01*
X165970357Y-49321928D01*
X165922738Y-49250500D01*
X165851309Y-49214785D01*
X165803690Y-49214785D01*
X165732261Y-49250500D01*
X165708452Y-49286214D01*
X151531952Y-46710500D02*
X151579571Y-46674785D01*
X151651000Y-46674785D01*
X151722428Y-46710500D01*
X151770047Y-46781928D01*
X151793857Y-46853357D01*
X151817666Y-46996214D01*
X151817666Y-47103357D01*
X151793857Y-47246214D01*
X151770047Y-47317642D01*
X151722428Y-47389071D01*
X151651000Y-47424785D01*
X151603380Y-47424785D01*
X151531952Y-47389071D01*
X151508142Y-47353357D01*
X151508142Y-47103357D01*
X151603380Y-47103357D01*
X151293857Y-47424785D02*
X151293857Y-46674785D01*
X151008142Y-47424785D01*
X151008142Y-46674785D01*
X150770047Y-47424785D02*
X150770047Y-46674785D01*
X150651000Y-46674785D01*
X150579571Y-46710500D01*
X150531952Y-46781928D01*
X150508142Y-46853357D01*
X150484333Y-46996214D01*
X150484333Y-47103357D01*
X150508142Y-47246214D01*
X150531952Y-47317642D01*
X150579571Y-47389071D01*
X150651000Y-47424785D01*
X150770047Y-47424785D01*
X166664809Y-47424785D02*
X166831476Y-47067642D01*
X166950523Y-47424785D02*
X166950523Y-46674785D01*
X166760047Y-46674785D01*
X166712428Y-46710500D01*
X166688619Y-46746214D01*
X166664809Y-46817642D01*
X166664809Y-46924785D01*
X166688619Y-46996214D01*
X166712428Y-47031928D01*
X166760047Y-47067642D01*
X166950523Y-47067642D01*
X166474333Y-47389071D02*
X166402904Y-47424785D01*
X166283857Y-47424785D01*
X166236238Y-47389071D01*
X166212428Y-47353357D01*
X166188619Y-47281928D01*
X166188619Y-47210500D01*
X166212428Y-47139071D01*
X166236238Y-47103357D01*
X166283857Y-47067642D01*
X166379095Y-47031928D01*
X166426714Y-46996214D01*
X166450523Y-46960500D01*
X166474333Y-46889071D01*
X166474333Y-46817642D01*
X166450523Y-46746214D01*
X166426714Y-46710500D01*
X166379095Y-46674785D01*
X166260047Y-46674785D01*
X166188619Y-46710500D01*
X166045761Y-46674785D02*
X165760047Y-46674785D01*
X165902904Y-47424785D02*
X165902904Y-46674785D01*
X151750000Y-44989285D02*
X151750000Y-44239285D01*
X151630952Y-44239285D01*
X151559523Y-44275000D01*
X151511904Y-44346428D01*
X151488095Y-44417857D01*
X151464285Y-44560714D01*
X151464285Y-44667857D01*
X151488095Y-44810714D01*
X151511904Y-44882142D01*
X151559523Y-44953571D01*
X151630952Y-44989285D01*
X151750000Y-44989285D01*
X151273809Y-44775000D02*
X151035714Y-44775000D01*
X151321428Y-44989285D02*
X151154761Y-44239285D01*
X150988095Y-44989285D01*
X150892857Y-44239285D02*
X150607142Y-44239285D01*
X150750000Y-44989285D02*
X150750000Y-44239285D01*
X150464285Y-44775000D02*
X150226190Y-44775000D01*
X150511904Y-44989285D02*
X150345238Y-44239285D01*
X150178571Y-44989285D01*
X166708452Y-44107000D02*
X166756071Y-44071285D01*
X166827500Y-44071285D01*
X166898928Y-44107000D01*
X166946547Y-44178428D01*
X166970357Y-44249857D01*
X166994166Y-44392714D01*
X166994166Y-44499857D01*
X166970357Y-44642714D01*
X166946547Y-44714142D01*
X166898928Y-44785571D01*
X166827500Y-44821285D01*
X166779880Y-44821285D01*
X166708452Y-44785571D01*
X166684642Y-44749857D01*
X166684642Y-44499857D01*
X166779880Y-44499857D01*
X166470357Y-44821285D02*
X166470357Y-44071285D01*
X166184642Y-44821285D01*
X166184642Y-44071285D01*
X165946547Y-44821285D02*
X165946547Y-44071285D01*
X165827500Y-44071285D01*
X165756071Y-44107000D01*
X165708452Y-44178428D01*
X165684642Y-44249857D01*
X165660833Y-44392714D01*
X165660833Y-44499857D01*
X165684642Y-44642714D01*
X165708452Y-44714142D01*
X165756071Y-44785571D01*
X165827500Y-44821285D01*
X165946547Y-44821285D01*
X151472428Y-42344785D02*
X151710523Y-42344785D01*
X151710523Y-41594785D01*
X151305761Y-41951928D02*
X151139095Y-41951928D01*
X151067666Y-42344785D02*
X151305761Y-42344785D01*
X151305761Y-41594785D01*
X151067666Y-41594785D01*
X150853380Y-42344785D02*
X150853380Y-41594785D01*
X150734333Y-41594785D01*
X150662904Y-41630500D01*
X150615285Y-41701928D01*
X150591476Y-41773357D01*
X150567666Y-41916214D01*
X150567666Y-42023357D01*
X150591476Y-42166214D01*
X150615285Y-42237642D01*
X150662904Y-42309071D01*
X150734333Y-42344785D01*
X150853380Y-42344785D01*
X166736238Y-42344785D02*
X166902904Y-41987642D01*
X167021952Y-42344785D02*
X167021952Y-41594785D01*
X166831476Y-41594785D01*
X166783857Y-41630500D01*
X166760047Y-41666214D01*
X166736238Y-41737642D01*
X166736238Y-41844785D01*
X166760047Y-41916214D01*
X166783857Y-41951928D01*
X166831476Y-41987642D01*
X167021952Y-41987642D01*
X166545761Y-42130500D02*
X166307666Y-42130500D01*
X166593380Y-42344785D02*
X166426714Y-41594785D01*
X166260047Y-42344785D01*
X166141000Y-41594785D02*
X166021952Y-42344785D01*
X165926714Y-41809071D01*
X165831476Y-42344785D01*
X165712428Y-41594785D01*
%TD*%
M02*
