%TF.GenerationSoftware,KiCad,Pcbnew,(5.1.6-0-10_14)*%
%TF.CreationDate,2020-07-07T23:00:58+09:00*%
%TF.ProjectId,corne-cherry,636f726e-652d-4636-9865-7272792e6b69,rev?*%
%TF.SameCoordinates,Original*%
%TF.FileFunction,Soldermask,Top*%
%TF.FilePolarity,Negative*%
%FSLAX46Y46*%
G04 Gerber Fmt 4.6, Leading zero omitted, Abs format (unit mm)*
G04 Created by KiCad (PCBNEW (5.1.6-0-10_14)) date 2020-07-07 23:00:58*
%MOMM*%
%LPD*%
G01*
G04 APERTURE LIST*
%ADD10C,3.400000*%
%ADD11C,2.100000*%
%ADD12C,2.300000*%
%ADD13C,4.400000*%
%ADD14R,2.400000X2.400000*%
%ADD15R,2.200000X2.400000*%
%ADD16C,5.400000*%
%ADD17C,1.600000*%
%ADD18O,2.900000X2.100000*%
%ADD19C,1.797000*%
%ADD20R,1.924000X1.924000*%
%ADD21R,0.781000X0.781000*%
%ADD22R,1.035000X1.543000*%
%ADD23R,1.543000X1.035000*%
%ADD24R,2.400000X1.400000*%
%ADD25C,0.100000*%
%ADD26C,2.400000*%
%ADD27C,0.500000*%
%ADD28C,1.924000*%
%ADD29R,1.700000X1.350000*%
%ADD30R,1.350000X1.700000*%
G04 APERTURE END LIST*
D10*
%TO.C,SW9*%
X80590000Y-57660000D03*
D11*
X79320000Y-60200000D03*
X89480000Y-60200000D03*
D12*
X89900000Y-60200000D03*
X78900000Y-60200000D03*
D13*
X84400000Y-60200000D03*
D10*
X86940000Y-55120000D03*
X84400000Y-66100000D03*
X79400000Y-63900000D03*
D14*
X92500000Y-63900000D03*
D15*
X81600000Y-66100000D03*
D10*
X89400000Y-63900000D03*
D14*
X91300000Y-57660000D03*
D10*
X81860000Y-55120000D03*
X88210000Y-57660000D03*
D14*
X78800000Y-55120000D03*
%TD*%
D13*
%TO.C,*%
X154120000Y-84240000D03*
%TD*%
%TO.C,*%
X168650000Y-92720000D03*
%TD*%
D16*
%TO.C,Ref\u002A\u002A*%
X93400000Y-49850000D03*
%TD*%
%TO.C,Ref\u002A\u002A*%
X56400000Y-56850000D03*
%TD*%
%TO.C,Ref\u002A\u002A*%
X56400000Y-95850000D03*
%TD*%
%TO.C,Ref\u002A\u002A*%
X99400000Y-90850000D03*
%TD*%
%TO.C,Ref\u002A\u002A*%
X148400000Y-94850000D03*
%TD*%
%TO.C,Ref\u002A\u002A*%
X132400000Y-52350000D03*
%TD*%
D17*
%TO.C,J1*%
X162700000Y-84000000D03*
X169700000Y-84000000D03*
D18*
X160900000Y-81900000D03*
X159400000Y-86100000D03*
X167900000Y-81900000D03*
X164900000Y-81900000D03*
D17*
X169700000Y-85750000D03*
X162700000Y-85750000D03*
D18*
X167900000Y-87850000D03*
X164900000Y-87850000D03*
X160900000Y-87850000D03*
X159400000Y-83650000D03*
%TD*%
D19*
%TO.C,J2*%
X157500000Y-73550000D03*
X160040000Y-73550000D03*
X162580000Y-73550000D03*
X165120000Y-73550000D03*
%TD*%
D20*
%TO.C,J3*%
X151400000Y-77930000D03*
X151400000Y-75390000D03*
X151400000Y-72850000D03*
%TD*%
D21*
%TO.C,JP1*%
X157400000Y-80950000D03*
D22*
X157900380Y-80950000D03*
X156899620Y-80950000D03*
%TD*%
D23*
%TO.C,JP6*%
X165100000Y-71250380D03*
X165100000Y-70249620D03*
%TD*%
%TO.C,JP7*%
X162600000Y-70249620D03*
X162600000Y-71250380D03*
%TD*%
%TO.C,JP8*%
X160100000Y-71250380D03*
X160100000Y-70249620D03*
%TD*%
%TO.C,JP9*%
X157500000Y-70249620D03*
X157500000Y-71250380D03*
%TD*%
D24*
%TO.C,L22*%
X67500000Y-56975000D03*
X67500000Y-58725000D03*
X63100000Y-56975000D03*
X63100000Y-58725000D03*
%TD*%
%TO.C,L23*%
X101300000Y-49375000D03*
X101300000Y-47625000D03*
X105700000Y-49375000D03*
X105700000Y-47625000D03*
%TD*%
%TO.C,L24*%
X143500000Y-52275000D03*
X143500000Y-54025000D03*
X139100000Y-52275000D03*
X139100000Y-54025000D03*
%TD*%
%TO.C,L25*%
X67300000Y-94800000D03*
X67300000Y-96550000D03*
X62900000Y-94800000D03*
X62900000Y-96550000D03*
%TD*%
%TO.C,L26*%
X95000000Y-86450000D03*
X95000000Y-88200000D03*
X90600000Y-86450000D03*
X90600000Y-88200000D03*
%TD*%
D25*
%TO.C,L27*%
G36*
X132808213Y-93191348D02*
G01*
X133170559Y-91839052D01*
X135488781Y-92460218D01*
X135126435Y-93812514D01*
X132808213Y-93191348D01*
G37*
G36*
X133261146Y-91500978D02*
G01*
X133623492Y-90148682D01*
X135941714Y-90769848D01*
X135579368Y-92122144D01*
X133261146Y-91500978D01*
G37*
G36*
X137058286Y-94330152D02*
G01*
X137420632Y-92977856D01*
X139738854Y-93599022D01*
X139376508Y-94951318D01*
X137058286Y-94330152D01*
G37*
G36*
X137511219Y-92639782D02*
G01*
X137873565Y-91287486D01*
X140191787Y-91908652D01*
X139829441Y-93260948D01*
X137511219Y-92639782D01*
G37*
%TD*%
D19*
%TO.C,P1*%
X157200000Y-76150000D03*
%TD*%
%TO.C,P2*%
X157200000Y-78550000D03*
%TD*%
%TO.C,R1*%
X165940000Y-76150000D03*
X160860000Y-76150000D03*
%TD*%
%TO.C,R2*%
X160860000Y-78650000D03*
X165940000Y-78650000D03*
%TD*%
D26*
%TO.C,RSW1*%
X169000000Y-72900000D03*
X169000000Y-79400000D03*
%TD*%
D10*
%TO.C,SW1*%
X42590000Y-45310000D03*
D11*
X41320000Y-47850000D03*
X51480000Y-47850000D03*
D12*
X51900000Y-47850000D03*
X40900000Y-47850000D03*
D13*
X46400000Y-47850000D03*
D10*
X48940000Y-42770000D03*
X46400000Y-53750000D03*
X41400000Y-51550000D03*
D14*
X54500000Y-51550000D03*
D15*
X43600000Y-53750000D03*
D10*
X51400000Y-51550000D03*
D14*
X53300000Y-45310000D03*
D10*
X43860000Y-42770000D03*
X50210000Y-45310000D03*
D14*
X40800000Y-42770000D03*
%TD*%
%TO.C,SW2*%
X59850000Y-42770000D03*
D10*
X69260000Y-45310000D03*
X62910000Y-42770000D03*
D14*
X72350000Y-45310000D03*
D10*
X70450000Y-51550000D03*
D15*
X62650000Y-53750000D03*
D14*
X73550000Y-51550000D03*
D10*
X60450000Y-51550000D03*
X65450000Y-53750000D03*
X67990000Y-42770000D03*
D13*
X65450000Y-47850000D03*
D12*
X59950000Y-47850000D03*
X70950000Y-47850000D03*
D11*
X70530000Y-47850000D03*
X60370000Y-47850000D03*
D10*
X61640000Y-45310000D03*
%TD*%
%TO.C,SW3*%
X80590000Y-38610000D03*
D11*
X79320000Y-41150000D03*
X89480000Y-41150000D03*
D12*
X89900000Y-41150000D03*
X78900000Y-41150000D03*
D13*
X84400000Y-41150000D03*
D10*
X86940000Y-36070000D03*
X84400000Y-47050000D03*
X79400000Y-44850000D03*
D14*
X92500000Y-44850000D03*
D15*
X81600000Y-47050000D03*
D10*
X89400000Y-44850000D03*
D14*
X91300000Y-38610000D03*
D10*
X81860000Y-36070000D03*
X88210000Y-38610000D03*
D14*
X78800000Y-36070000D03*
%TD*%
%TO.C,SW4*%
X97850000Y-33670000D03*
D10*
X107260000Y-36210000D03*
X100910000Y-33670000D03*
D14*
X110350000Y-36210000D03*
D10*
X108450000Y-42450000D03*
D15*
X100650000Y-44650000D03*
D14*
X111550000Y-42450000D03*
D10*
X98450000Y-42450000D03*
X103450000Y-44650000D03*
X105990000Y-33670000D03*
D13*
X103450000Y-38750000D03*
D12*
X97950000Y-38750000D03*
X108950000Y-38750000D03*
D11*
X108530000Y-38750000D03*
X98370000Y-38750000D03*
D10*
X99640000Y-36210000D03*
%TD*%
%TO.C,SW5*%
X118590000Y-38610000D03*
D11*
X117320000Y-41150000D03*
X127480000Y-41150000D03*
D12*
X127900000Y-41150000D03*
X116900000Y-41150000D03*
D13*
X122400000Y-41150000D03*
D10*
X124940000Y-36070000D03*
X122400000Y-47050000D03*
X117400000Y-44850000D03*
D14*
X130500000Y-44850000D03*
D15*
X119600000Y-47050000D03*
D10*
X127400000Y-44850000D03*
D14*
X129300000Y-38610000D03*
D10*
X119860000Y-36070000D03*
X126210000Y-38610000D03*
D14*
X116800000Y-36070000D03*
%TD*%
%TO.C,SW6*%
X135850000Y-38370000D03*
D10*
X145260000Y-40910000D03*
X138910000Y-38370000D03*
D14*
X148350000Y-40910000D03*
D10*
X146450000Y-47150000D03*
D15*
X138650000Y-49350000D03*
D14*
X149550000Y-47150000D03*
D10*
X136450000Y-47150000D03*
X141450000Y-49350000D03*
X143990000Y-38370000D03*
D13*
X141450000Y-43450000D03*
D12*
X135950000Y-43450000D03*
X146950000Y-43450000D03*
D11*
X146530000Y-43450000D03*
X136370000Y-43450000D03*
D10*
X137640000Y-40910000D03*
%TD*%
%TO.C,SW7*%
X42590000Y-64360000D03*
D11*
X41320000Y-66900000D03*
X51480000Y-66900000D03*
D12*
X51900000Y-66900000D03*
X40900000Y-66900000D03*
D13*
X46400000Y-66900000D03*
D10*
X48940000Y-61820000D03*
X46400000Y-72800000D03*
X41400000Y-70600000D03*
D14*
X54500000Y-70600000D03*
D15*
X43600000Y-72800000D03*
D10*
X51400000Y-70600000D03*
D14*
X53300000Y-64360000D03*
D10*
X43860000Y-61820000D03*
X50210000Y-64360000D03*
D14*
X40800000Y-61820000D03*
%TD*%
%TO.C,SW8*%
X59850000Y-61820000D03*
D10*
X69260000Y-64360000D03*
X62910000Y-61820000D03*
D14*
X72350000Y-64360000D03*
D10*
X70450000Y-70600000D03*
D15*
X62650000Y-72800000D03*
D14*
X73550000Y-70600000D03*
D10*
X60450000Y-70600000D03*
X65450000Y-72800000D03*
X67990000Y-61820000D03*
D13*
X65450000Y-66900000D03*
D12*
X59950000Y-66900000D03*
X70950000Y-66900000D03*
D11*
X70530000Y-66900000D03*
X60370000Y-66900000D03*
D10*
X61640000Y-64360000D03*
%TD*%
D14*
%TO.C,SW10*%
X97850000Y-52720000D03*
D10*
X107260000Y-55260000D03*
X100910000Y-52720000D03*
D14*
X110350000Y-55260000D03*
D10*
X108450000Y-61500000D03*
D15*
X100650000Y-63700000D03*
D14*
X111550000Y-61500000D03*
D10*
X98450000Y-61500000D03*
X103450000Y-63700000D03*
X105990000Y-52720000D03*
D13*
X103450000Y-57800000D03*
D12*
X97950000Y-57800000D03*
X108950000Y-57800000D03*
D11*
X108530000Y-57800000D03*
X98370000Y-57800000D03*
D10*
X99640000Y-55260000D03*
%TD*%
%TO.C,SW11*%
X118590000Y-57660000D03*
D11*
X117320000Y-60200000D03*
X127480000Y-60200000D03*
D12*
X127900000Y-60200000D03*
X116900000Y-60200000D03*
D13*
X122400000Y-60200000D03*
D10*
X124940000Y-55120000D03*
X122400000Y-66100000D03*
X117400000Y-63900000D03*
D14*
X130500000Y-63900000D03*
D15*
X119600000Y-66100000D03*
D10*
X127400000Y-63900000D03*
D14*
X129300000Y-57660000D03*
D10*
X119860000Y-55120000D03*
X126210000Y-57660000D03*
D14*
X116800000Y-55120000D03*
%TD*%
%TO.C,SW12*%
X135850000Y-57420000D03*
D10*
X145260000Y-59960000D03*
X138910000Y-57420000D03*
D14*
X148350000Y-59960000D03*
D10*
X146450000Y-66200000D03*
D15*
X138650000Y-68400000D03*
D14*
X149550000Y-66200000D03*
D10*
X136450000Y-66200000D03*
X141450000Y-68400000D03*
X143990000Y-57420000D03*
D13*
X141450000Y-62500000D03*
D12*
X135950000Y-62500000D03*
X146950000Y-62500000D03*
D11*
X146530000Y-62500000D03*
X136370000Y-62500000D03*
D10*
X137640000Y-59960000D03*
%TD*%
%TO.C,SW13*%
X42590000Y-83410000D03*
D11*
X41320000Y-85950000D03*
X51480000Y-85950000D03*
D12*
X51900000Y-85950000D03*
X40900000Y-85950000D03*
D13*
X46400000Y-85950000D03*
D10*
X48940000Y-80870000D03*
X46400000Y-91850000D03*
X41400000Y-89650000D03*
D14*
X54500000Y-89650000D03*
D15*
X43600000Y-91850000D03*
D10*
X51400000Y-89650000D03*
D14*
X53300000Y-83410000D03*
D10*
X43860000Y-80870000D03*
X50210000Y-83410000D03*
D14*
X40800000Y-80870000D03*
%TD*%
%TO.C,SW14*%
X59850000Y-80870000D03*
D10*
X69260000Y-83410000D03*
X62910000Y-80870000D03*
D14*
X72350000Y-83410000D03*
D10*
X70450000Y-89650000D03*
D15*
X62650000Y-91850000D03*
D14*
X73550000Y-89650000D03*
D10*
X60450000Y-89650000D03*
X65450000Y-91850000D03*
X67990000Y-80870000D03*
D13*
X65450000Y-85950000D03*
D12*
X59950000Y-85950000D03*
X70950000Y-85950000D03*
D11*
X70530000Y-85950000D03*
X60370000Y-85950000D03*
D10*
X61640000Y-83410000D03*
%TD*%
%TO.C,SW15*%
X80590000Y-76710000D03*
D11*
X79320000Y-79250000D03*
X89480000Y-79250000D03*
D12*
X89900000Y-79250000D03*
X78900000Y-79250000D03*
D13*
X84400000Y-79250000D03*
D10*
X86940000Y-74170000D03*
X84400000Y-85150000D03*
X79400000Y-82950000D03*
D14*
X92500000Y-82950000D03*
D15*
X81600000Y-85150000D03*
D10*
X89400000Y-82950000D03*
D14*
X91300000Y-76710000D03*
D10*
X81860000Y-74170000D03*
X88210000Y-76710000D03*
D14*
X78800000Y-74170000D03*
%TD*%
%TO.C,SW16*%
X97850000Y-71770000D03*
D10*
X107260000Y-74310000D03*
X100910000Y-71770000D03*
D14*
X110350000Y-74310000D03*
D10*
X108450000Y-80550000D03*
D15*
X100650000Y-82750000D03*
D14*
X111550000Y-80550000D03*
D10*
X98450000Y-80550000D03*
X103450000Y-82750000D03*
X105990000Y-71770000D03*
D13*
X103450000Y-76850000D03*
D12*
X97950000Y-76850000D03*
X108950000Y-76850000D03*
D11*
X108530000Y-76850000D03*
X98370000Y-76850000D03*
D10*
X99640000Y-74310000D03*
%TD*%
%TO.C,SW17*%
X118590000Y-76710000D03*
D11*
X117320000Y-79250000D03*
X127480000Y-79250000D03*
D12*
X127900000Y-79250000D03*
X116900000Y-79250000D03*
D13*
X122400000Y-79250000D03*
D10*
X124940000Y-74170000D03*
X122400000Y-85150000D03*
X117400000Y-82950000D03*
D14*
X130500000Y-82950000D03*
D15*
X119600000Y-85150000D03*
D10*
X127400000Y-82950000D03*
D14*
X129300000Y-76710000D03*
D10*
X119860000Y-74170000D03*
X126210000Y-76710000D03*
D14*
X116800000Y-74170000D03*
%TD*%
%TO.C,SW18*%
X135850000Y-76470000D03*
D10*
X145260000Y-79010000D03*
X138910000Y-76470000D03*
D14*
X148350000Y-79010000D03*
D10*
X146450000Y-85250000D03*
D15*
X138650000Y-87450000D03*
D14*
X149550000Y-85250000D03*
D10*
X136450000Y-85250000D03*
X141450000Y-87450000D03*
X143990000Y-76470000D03*
D13*
X141450000Y-81550000D03*
D12*
X135950000Y-81550000D03*
X146950000Y-81550000D03*
D11*
X146530000Y-81550000D03*
X136370000Y-81550000D03*
D10*
X137640000Y-79010000D03*
%TD*%
%TO.C,SW19*%
X42590000Y-102460000D03*
D11*
X41320000Y-105000000D03*
X51480000Y-105000000D03*
D12*
X51900000Y-105000000D03*
X40900000Y-105000000D03*
D13*
X46400000Y-105000000D03*
D10*
X48940000Y-99920000D03*
X46400000Y-110900000D03*
X41400000Y-108700000D03*
D14*
X54500000Y-108700000D03*
D15*
X43600000Y-110900000D03*
D10*
X51400000Y-108700000D03*
D14*
X53300000Y-102460000D03*
D10*
X43860000Y-99920000D03*
X50210000Y-102460000D03*
D14*
X40800000Y-99920000D03*
%TD*%
%TO.C,SW20*%
X59850000Y-99920000D03*
D10*
X69260000Y-102460000D03*
X62910000Y-99920000D03*
D14*
X72350000Y-102460000D03*
D10*
X70450000Y-108700000D03*
D15*
X62650000Y-110900000D03*
D14*
X73550000Y-108700000D03*
D10*
X60450000Y-108700000D03*
X65450000Y-110900000D03*
X67990000Y-99920000D03*
D13*
X65450000Y-105000000D03*
D12*
X59950000Y-105000000D03*
X70950000Y-105000000D03*
D11*
X70530000Y-105000000D03*
X60370000Y-105000000D03*
D10*
X61640000Y-102460000D03*
%TD*%
%TO.C,SW21*%
X109090000Y-96210000D03*
D11*
X107820000Y-98750000D03*
X117980000Y-98750000D03*
D12*
X118400000Y-98750000D03*
X107400000Y-98750000D03*
D13*
X112900000Y-98750000D03*
D10*
X115440000Y-93670000D03*
X112900000Y-104650000D03*
X107900000Y-102450000D03*
D14*
X121000000Y-102450000D03*
D15*
X110100000Y-104650000D03*
D10*
X117900000Y-102450000D03*
D14*
X119800000Y-96210000D03*
D10*
X110360000Y-93670000D03*
X116710000Y-96210000D03*
D14*
X107300000Y-93670000D03*
%TD*%
D25*
%TO.C,SW22*%
G36*
X131307058Y-94294685D02*
G01*
X130685892Y-96612907D01*
X128367670Y-95991741D01*
X128988836Y-93673519D01*
X131307058Y-94294685D01*
G37*
D10*
X138269326Y-100032152D03*
X132793097Y-95935199D03*
D25*
G36*
X142723731Y-99983375D02*
G01*
X142102565Y-102301597D01*
X139784343Y-101680431D01*
X140405509Y-99362209D01*
X142723731Y-99983375D01*
G37*
D10*
X137803747Y-106367524D03*
D25*
G36*
X131073224Y-105599362D02*
G01*
X130452059Y-107917584D01*
X128327022Y-107348182D01*
X128948187Y-105029960D01*
X131073224Y-105599362D01*
G37*
G36*
X142267811Y-106321335D02*
G01*
X141646645Y-108639557D01*
X139328423Y-108018391D01*
X139949589Y-105700169D01*
X142267811Y-106321335D01*
G37*
D10*
X128144488Y-103779333D03*
X132404716Y-107198465D03*
X137700000Y-97250000D03*
D13*
X133931748Y-101499503D03*
D12*
X128619156Y-100075998D03*
X139244340Y-102923008D03*
D11*
X138838651Y-102814304D03*
X129024845Y-100184702D03*
D10*
X130908971Y-98059951D03*
%TD*%
%TO.C,SW23*%
X151995295Y-107279557D03*
D11*
X153560000Y-109649409D03*
X158640000Y-100850591D03*
D12*
X158850000Y-100486860D03*
X153350000Y-110013140D03*
D13*
X156100000Y-105250000D03*
D10*
X152970591Y-100510295D03*
D27*
X151953154Y-107272547D03*
D10*
X161209550Y-108200000D03*
X156804294Y-111430127D03*
D25*
G36*
X162740064Y-98749073D02*
G01*
X164818524Y-99949073D01*
X163868524Y-101594521D01*
X161790064Y-100394521D01*
X162740064Y-98749073D01*
G37*
G36*
X159145320Y-109375352D02*
G01*
X161223780Y-110575352D01*
X160273780Y-112220800D01*
X158195320Y-111020800D01*
X159145320Y-109375352D01*
G37*
D10*
X161804294Y-102769873D03*
D27*
X155778154Y-100647453D03*
D25*
G36*
X156736065Y-96668303D02*
G01*
X158814525Y-97868303D01*
X157864525Y-99513751D01*
X155786065Y-98313751D01*
X156736065Y-96668303D01*
G37*
D10*
X150430591Y-104909705D03*
X155805295Y-100680443D03*
D25*
G36*
X148386361Y-106050416D02*
G01*
X150464821Y-107250416D01*
X149514821Y-108895864D01*
X147436361Y-107695864D01*
X148386361Y-106050416D01*
G37*
D10*
X155805295Y-100680443D03*
%TD*%
D28*
%TO.C,U1*%
X168550000Y-41942000D03*
X168550000Y-44482000D03*
X168550000Y-47022000D03*
X168550000Y-49562000D03*
X168550000Y-52102000D03*
X168550000Y-54642000D03*
X168550000Y-57182000D03*
X168550000Y-59722000D03*
X168550000Y-62262000D03*
X168550000Y-64802000D03*
X168550000Y-67342000D03*
X168550000Y-69882000D03*
X153310000Y-69882000D03*
X153310000Y-67342000D03*
X153310000Y-64802000D03*
X153310000Y-62262000D03*
X153310000Y-59722000D03*
X153310000Y-57182000D03*
X153310000Y-54642000D03*
X153310000Y-52102000D03*
X153310000Y-49562000D03*
X153310000Y-47022000D03*
X153310000Y-44482000D03*
X153310000Y-41942000D03*
X169856400Y-40672000D03*
X169856400Y-43212000D03*
X169856400Y-45752000D03*
X169856400Y-48292000D03*
X169856400Y-50832000D03*
X169856400Y-53372000D03*
X169856400Y-55912000D03*
X169856400Y-58452000D03*
X169856400Y-60992000D03*
X169856400Y-63532000D03*
X169856400Y-66072000D03*
X169856400Y-68612000D03*
X154636400Y-68612000D03*
X154636400Y-66072000D03*
X154636400Y-63532000D03*
X154636400Y-60992000D03*
X154636400Y-58452000D03*
X154636400Y-55912000D03*
X154636400Y-53372000D03*
X154636400Y-50832000D03*
X154636400Y-48292000D03*
X154636400Y-45752000D03*
X154636400Y-43212000D03*
X154636400Y-40672000D03*
%TD*%
D29*
%TO.C,D1*%
X45325000Y-40000000D03*
X48875000Y-40000000D03*
%TD*%
D30*
%TO.C,D2*%
X56200000Y-41925000D03*
X56200000Y-45475000D03*
%TD*%
%TO.C,D3*%
X75100000Y-41475000D03*
X75100000Y-37925000D03*
%TD*%
%TO.C,D4*%
X94100000Y-33525000D03*
X94100000Y-37075000D03*
%TD*%
%TO.C,D5*%
X113300000Y-38675000D03*
X113300000Y-35125000D03*
%TD*%
%TO.C,D6*%
X132200000Y-36925000D03*
X132200000Y-40475000D03*
%TD*%
D29*
%TO.C,D7*%
X44925000Y-59200000D03*
X48475000Y-59200000D03*
%TD*%
D30*
%TO.C,D8*%
X55900000Y-63725000D03*
X55900000Y-67275000D03*
%TD*%
%TO.C,D9*%
X74300000Y-58325000D03*
X74300000Y-61875000D03*
%TD*%
%TO.C,D10*%
X93800000Y-58875000D03*
X93800000Y-55325000D03*
%TD*%
%TO.C,D11*%
X112900000Y-55425000D03*
X112900000Y-58975000D03*
%TD*%
%TO.C,D12*%
X132000000Y-56575000D03*
X132000000Y-60125000D03*
%TD*%
D29*
%TO.C,D13*%
X38725000Y-93950000D03*
X42275000Y-93950000D03*
%TD*%
%TO.C,D14*%
X74075000Y-93150000D03*
X70525000Y-93150000D03*
%TD*%
%TO.C,D15*%
X76425000Y-87350000D03*
X79975000Y-87350000D03*
%TD*%
%TO.C,D16*%
X111175000Y-85550000D03*
X107625000Y-85550000D03*
%TD*%
%TO.C,D17*%
X125925000Y-87350000D03*
X129475000Y-87350000D03*
%TD*%
%TO.C,D18*%
X148575000Y-89650000D03*
X145025000Y-89650000D03*
%TD*%
%TO.C,D19*%
X52225000Y-112250000D03*
X55775000Y-112250000D03*
%TD*%
%TO.C,D20*%
X74375000Y-112250000D03*
X70825000Y-112250000D03*
%TD*%
D25*
%TO.C,D21*%
G36*
X100522501Y-99107527D02*
G01*
X99488341Y-99975290D01*
X98395603Y-98673015D01*
X99429763Y-97805252D01*
X100522501Y-99107527D01*
G37*
G36*
X102804397Y-101826985D02*
G01*
X101770237Y-102694748D01*
X100677499Y-101392473D01*
X101711659Y-100524710D01*
X102804397Y-101826985D01*
G37*
%TD*%
%TO.C,D22*%
G36*
X149136427Y-111002933D02*
G01*
X148461427Y-112172067D01*
X146989183Y-111322067D01*
X147664183Y-110152933D01*
X149136427Y-111002933D01*
G37*
G36*
X152210817Y-112777933D02*
G01*
X151535817Y-113947067D01*
X150063573Y-113097067D01*
X150738573Y-111927933D01*
X152210817Y-112777933D01*
G37*
%TD*%
%TO.C,D23*%
G36*
X127510258Y-106677400D02*
G01*
X127160852Y-107981400D01*
X125518778Y-107541408D01*
X125868184Y-106237408D01*
X127510258Y-106677400D01*
G37*
G36*
X124081222Y-105758592D02*
G01*
X123731816Y-107062592D01*
X122089742Y-106622600D01*
X122439148Y-105318600D01*
X124081222Y-105758592D01*
G37*
%TD*%
M02*
